<svg width="14" height="14" viewBox="0 0 14 14" fill="none" xmlns="http://www.w3.org/2000/svg">
<path d="M0.709852 7.39017C0.658939 7.339 0.618602 7.27831 0.591147 7.21156C0.563215 7.14509 0.548828 7.07372 0.548828 7.00163C0.548828 6.92953 0.563215 6.85816 0.591147 6.79169C0.618602 6.72494 0.658939 6.66425 0.709852 6.61309L5.10634 2.2166C5.15703 2.16411 5.21767 2.12225 5.28472 2.09345C5.35177 2.06464 5.42388 2.04948 5.49685 2.04885C5.56982 2.04821 5.64219 2.06212 5.70973 2.08975C5.77727 2.11738 5.83863 2.15819 5.89023 2.20979C5.94183 2.26139 5.98263 2.32275 6.01027 2.39029C6.0379 2.45783 6.0518 2.53019 6.05117 2.60316C6.05054 2.67613 6.03538 2.74825 6.00657 2.8153C5.97777 2.88234 5.9359 2.94299 5.88342 2.99368L2.42503 6.45207H12.0896C12.2354 6.45207 12.3751 6.50997 12.4782 6.61303C12.5813 6.71609 12.6392 6.85587 12.6392 7.00163C12.6392 7.14738 12.5813 7.28716 12.4782 7.39022C12.3751 7.49329 12.2354 7.55119 12.0896 7.55119H2.42503L5.88342 11.0096C5.98352 11.1132 6.03892 11.252 6.03766 11.3961C6.03641 11.5402 5.97861 11.6781 5.87672 11.78C5.77483 11.8818 5.63699 11.9396 5.4929 11.9409C5.34881 11.9422 5.20999 11.8868 5.10634 11.7867L0.709852 7.39017Z" fill="black"/>
</svg>
