<svg width="13" height="13" viewBox="0 0 13 13" fill="none" xmlns="http://www.w3.org/2000/svg">
<mask id="path-1-outside-1_221_62" maskUnits="userSpaceOnUse" x="0" y="0" width="14" height="14" fill="black">
<rect fill="white" width="14" height="14"/>
<path fill-rule="evenodd" clip-rule="evenodd" d="M11.8035 10.5316C11.4639 11.5636 10.1335 12.0782 9.18299 11.9924C7.88484 11.875 6.47227 11.1865 5.40001 10.4281C3.82389 9.31333 2.34751 7.58891 1.48721 5.75902C0.879202 4.466 0.742788 2.87624 1.6471 1.69763C1.98154 1.26198 2.34311 1.02931 2.88658 1.00217C3.64053 0.965498 3.74615 1.39682 4.00504 2.06864C4.19793 2.57103 4.45536 3.08351 4.59911 3.60424C4.86828 4.57602 3.9273 4.61664 3.80849 5.41093C3.73441 5.91186 4.34168 6.58363 4.61598 6.9408C5.15358 7.64049 5.79972 8.24397 6.52874 8.70309C6.94606 8.96639 7.62007 9.44086 8.09826 9.17902C8.83462 8.77564 8.76494 7.53402 9.79467 7.95427C10.3279 8.17136 10.8442 8.48466 11.3532 8.75896C12.1401 9.18214 12.1035 9.62072 11.8035 10.5316C12.0279 9.85101 11.5791 11.2122 11.8035 10.5316Z"/>
</mask>
<path d="M9.18299 11.9924L9.09297 12.9883L9.09308 12.9883L9.18299 11.9924ZM5.40001 10.4281L4.82255 11.2446L4.82258 11.2446L5.40001 10.4281ZM1.48721 5.75902L2.39218 5.33355L2.39215 5.33349L1.48721 5.75902ZM1.6471 1.69763L0.853876 1.08869L0.85372 1.0889L1.6471 1.69763ZM2.88658 1.00217L2.838 0.00334888L2.83671 0.00341327L2.88658 1.00217ZM4.00504 2.06864L4.9386 1.71021L4.93815 1.70904L4.00504 2.06864ZM4.59911 3.60424L3.63517 3.87034L3.6354 3.87117L4.59911 3.60424ZM3.80849 5.41093L2.81949 5.26299L2.81924 5.26465L3.80849 5.41093ZM4.61598 6.9408L3.82288 7.54988L3.82302 7.55007L4.61598 6.9408ZM6.52874 8.70309L7.06235 7.85735L7.06165 7.85691L6.52874 8.70309ZM8.09826 9.17902L8.57853 10.0561L8.57871 10.0561L8.09826 9.17902ZM9.79467 7.95427L9.4168 8.88013L9.41757 8.88044L9.79467 7.95427ZM11.3532 8.75896L10.8788 9.63926L10.8796 9.63969L11.3532 8.75896ZM10.8536 10.219C10.7925 10.4049 10.6144 10.6171 10.2752 10.7867C9.93608 10.9563 9.55093 11.0215 9.27291 10.9964L9.09308 12.9883C9.76557 13.049 10.5209 12.8999 11.1696 12.5756C11.818 12.2514 12.475 11.6903 12.7534 10.8442L10.8536 10.219ZM9.27302 10.9964C8.21955 10.9012 6.97591 10.3179 5.97744 9.61169L4.82258 11.2446C5.96863 12.0551 7.55013 12.8489 9.09297 12.9883L9.27302 10.9964ZM5.97747 9.61171C4.53904 8.5943 3.17717 7.00324 2.39218 5.33355L0.582233 6.18448C1.51785 8.17457 3.10874 10.0324 4.82255 11.2446L5.97747 9.61171ZM2.39215 5.33349C1.86899 4.22091 1.85353 3.07133 2.44047 2.30636L0.85372 1.0889C-0.367957 2.68114 -0.110589 4.71109 0.582262 6.18454L2.39215 5.33349ZM2.44031 2.30657C2.55512 2.15701 2.63594 2.09318 2.68998 2.06185C2.73626 2.03502 2.80409 2.00753 2.93645 2.00092L2.83671 0.00341327C2.4256 0.0239408 2.04091 0.126359 1.68693 0.331562C1.3407 0.532269 1.07351 0.802593 0.853876 1.08869L2.44031 2.30657ZM2.93516 2.00099C3.03186 1.99628 3.03284 2.01084 2.98651 1.99316C2.92644 1.97024 2.87921 1.92952 2.85715 1.90253C2.84766 1.89092 2.86531 1.90877 2.90922 2.01032C2.92984 2.058 2.95221 2.11431 2.97982 2.18634C3.00112 2.2419 3.04296 2.35304 3.07194 2.42823L4.93815 1.70904C4.88486 1.57074 4.81366 1.37543 4.74495 1.21653C4.67268 1.0494 4.56827 0.835749 4.40577 0.636913C4.2307 0.422699 3.99951 0.239037 3.6995 0.124563C3.41322 0.0153292 3.11827 -0.0102824 2.838 0.00334971L2.93516 2.00099ZM3.07149 2.42707C3.17402 2.69411 3.30354 2.98835 3.39713 3.21346C3.49943 3.45952 3.5803 3.67157 3.63517 3.87034L5.56306 3.33813C5.47418 3.01617 5.35445 2.71162 5.24388 2.44566C5.1246 2.15876 5.02896 1.94556 4.9386 1.71021L3.07149 2.42707ZM3.6354 3.87117C3.6596 3.95855 3.63488 3.93371 3.65953 3.86155C3.67702 3.81036 3.69891 3.80576 3.61971 3.89025C3.52422 3.99212 2.93718 4.47619 2.81949 5.26299L4.79748 5.55887C4.7986 5.55138 4.74146 5.618 5.07888 5.25803C5.21613 5.11161 5.43022 4.86501 5.55215 4.50806C5.68124 4.13016 5.67321 3.73581 5.56283 3.33731L3.6354 3.87117ZM2.81924 5.26465C2.76776 5.61282 2.84191 5.92536 2.92559 6.15434C3.01099 6.38801 3.13005 6.59878 3.24032 6.77038C3.44691 7.09188 3.732 7.43154 3.82288 7.54988L5.40909 6.33172C5.22567 6.09288 5.06997 5.91808 4.92287 5.68917C4.85629 5.58556 4.82028 5.51215 4.80407 5.46781C4.78616 5.41879 4.81218 5.45951 4.79773 5.55722L2.81924 5.26465ZM3.82302 7.55007C4.42643 8.33541 5.15856 9.02196 5.99584 9.54927L7.06165 7.85691C6.44089 7.46597 5.88074 6.94557 5.40895 6.33153L3.82302 7.55007ZM5.99514 9.54883C6.1614 9.65372 6.52462 9.89949 6.90061 10.0588C7.25181 10.2075 7.91997 10.4167 8.57853 10.0561L7.618 8.3019C7.70767 8.2528 7.78226 8.25467 7.79564 8.25582C7.7997 8.25617 7.76447 8.25266 7.68074 8.21719C7.60036 8.18314 7.50627 8.13309 7.39636 8.0673C7.28004 7.99769 7.187 7.936 7.06235 7.85735L5.99514 9.54883ZM8.57871 10.0561C8.96109 9.84658 9.20231 9.54716 9.35646 9.32017C9.43351 9.20669 9.49982 9.09421 9.54931 9.00998C9.60445 8.91613 9.63799 8.85877 9.67123 8.80837C9.74601 8.69499 9.72102 8.77626 9.58963 8.83206C9.41689 8.90541 9.31574 8.83888 9.4168 8.88013L10.1725 7.02841C9.75873 6.85953 9.28014 6.79061 8.80785 6.99118C8.3769 7.1742 8.13023 7.51228 8.00167 7.7072C7.93324 7.81095 7.8697 7.92061 7.82489 7.99688C7.77443 8.08277 7.73794 8.14351 7.70189 8.1966C7.62982 8.30272 7.60362 8.30978 7.61782 8.302L8.57871 10.0561ZM9.41757 8.88044C9.88425 9.07045 10.3067 9.33097 10.8788 9.63926L11.8276 7.87865C11.3817 7.63834 10.7715 7.27227 10.1718 7.02809L9.41757 8.88044ZM10.8796 9.63969C11.0169 9.71355 11.0539 9.75469 11.0518 9.75234C11.0369 9.73575 11.0118 9.69337 11.003 9.64627C10.9977 9.61772 11.0083 9.636 10.9879 9.74365C10.9672 9.85267 10.9257 10.0001 10.8537 10.2188L12.7533 10.8444C12.892 10.4233 13.0749 9.84525 12.9689 9.27852C12.8378 8.57759 12.3469 8.15789 11.8268 7.87822L10.8796 9.63969ZM10.8538 10.2185C10.8534 10.2198 10.8529 10.2211 10.8525 10.2224C10.8521 10.2238 10.8516 10.2251 10.8512 10.2264C10.8508 10.2277 10.8504 10.2289 10.8499 10.2302C10.8495 10.2315 10.8491 10.2328 10.8487 10.2341C10.8483 10.2353 10.8478 10.2366 10.8474 10.2378C10.847 10.2391 10.8466 10.2403 10.8462 10.2416C10.8458 10.2428 10.8454 10.244 10.845 10.2453C10.8446 10.2465 10.8442 10.2477 10.8438 10.2489C10.8434 10.2501 10.843 10.2513 10.8426 10.2525C10.8422 10.2537 10.8418 10.2549 10.8414 10.256C10.841 10.2572 10.8406 10.2584 10.8403 10.2596C10.8399 10.2607 10.8395 10.2619 10.8391 10.263C10.8387 10.2642 10.8384 10.2653 10.838 10.2664C10.8376 10.2676 10.8372 10.2687 10.8369 10.2698C10.8365 10.2709 10.8361 10.272 10.8358 10.2731C10.8354 10.2742 10.8351 10.2753 10.8347 10.2764C10.8343 10.2775 10.834 10.2786 10.8336 10.2797C10.8333 10.2807 10.8329 10.2818 10.8326 10.2829C10.8322 10.2839 10.8319 10.285 10.8315 10.286C10.8312 10.2871 10.8308 10.2881 10.8305 10.2891C10.8302 10.2902 10.8298 10.2912 10.8295 10.2922C10.8292 10.2932 10.8288 10.2942 10.8285 10.2952C10.8282 10.2962 10.8278 10.2972 10.8275 10.2982C10.8272 10.2992 10.8269 10.3002 10.8265 10.3011C10.8262 10.3021 10.8259 10.3031 10.8256 10.304C10.8253 10.305 10.825 10.306 10.8246 10.3069C10.8243 10.3078 10.824 10.3088 10.8237 10.3097C10.8234 10.3106 10.8231 10.3116 10.8228 10.3125C10.8225 10.3134 10.8222 10.3143 10.8219 10.3152C10.8216 10.3161 10.8213 10.317 10.821 10.3179C10.8207 10.3188 10.8204 10.3197 10.8201 10.3205C10.8199 10.3214 10.8196 10.3223 10.8193 10.3232C10.819 10.324 10.8187 10.3249 10.8184 10.3257C10.8182 10.3266 10.8179 10.3274 10.8176 10.3282C10.8173 10.3291 10.8171 10.3299 10.8168 10.3307C10.8165 10.3316 10.8163 10.3324 10.816 10.3332C10.8157 10.334 10.8155 10.3348 10.8152 10.3356C10.8149 10.3364 10.8147 10.3372 10.8144 10.3379C10.8142 10.3387 10.8139 10.3395 10.8136 10.3403C10.8134 10.341 10.8131 10.3418 10.8129 10.3426C10.8126 10.3433 10.8124 10.3441 10.8122 10.3448C10.8119 10.3455 10.8117 10.3463 10.8114 10.347C10.8112 10.3477 10.8109 10.3485 10.8107 10.3492C10.8105 10.3499 10.8102 10.3506 10.81 10.3513C10.8098 10.352 10.8095 10.3527 10.8093 10.3534C10.8091 10.3541 10.8089 10.3548 10.8086 10.3554C10.8084 10.3561 10.8082 10.3568 10.808 10.3574C10.8078 10.3581 10.8075 10.3588 10.8073 10.3594C10.8071 10.3601 10.8069 10.3607 10.8067 10.3614C10.8065 10.362 10.8063 10.3626 10.8061 10.3633C10.8059 10.3639 10.8057 10.3645 10.8055 10.3651C10.8052 10.3657 10.805 10.3663 10.8048 10.3669C10.8047 10.3675 10.8045 10.3681 10.8043 10.3687C10.8041 10.3693 10.8039 10.3699 10.8037 10.3705C10.8035 10.3711 10.8033 10.3716 10.8031 10.3722C10.8029 10.3728 10.8027 10.3733 10.8026 10.3739C10.8024 10.3744 10.8022 10.375 10.802 10.3755C10.8018 10.376 10.8017 10.3766 10.8015 10.3771C10.8013 10.3776 10.8012 10.3782 10.801 10.3787C10.8008 10.3792 10.8006 10.3797 10.8005 10.3802C10.8003 10.3807 10.8001 10.3812 10.8 10.3817C10.7998 10.3822 10.7997 10.3827 10.7995 10.3832C10.7993 10.3836 10.7992 10.3841 10.799 10.3846C10.7989 10.385 10.7987 10.3855 10.7986 10.386C10.7984 10.3864 10.7983 10.3869 10.7981 10.3873C10.798 10.3878 10.7978 10.3882 10.7977 10.3886C10.7976 10.3891 10.7974 10.3895 10.7973 10.3899C10.7971 10.3903 10.797 10.3908 10.7969 10.3912C10.7967 10.3916 10.7966 10.392 10.7965 10.3924C10.7963 10.3928 10.7962 10.3932 10.7961 10.3936C10.7959 10.394 10.7958 10.3943 10.7957 10.3947C10.7956 10.3951 10.7954 10.3955 10.7953 10.3958C10.7952 10.3962 10.7951 10.3966 10.795 10.3969C10.7949 10.3973 10.7947 10.3976 10.7946 10.398C10.7945 10.3983 10.7944 10.3986 10.7943 10.399C10.7942 10.3993 10.7941 10.3996 10.794 10.3999C10.7939 10.4003 10.7938 10.4006 10.7937 10.4009C10.7936 10.4012 10.7935 10.4015 10.7934 10.4018C10.7933 10.4021 10.7932 10.4024 10.7931 10.4027C10.793 10.403 10.7929 10.4033 10.7928 10.4035C10.7927 10.4038 10.7926 10.4041 10.7925 10.4044C10.7924 10.4046 10.7923 10.4049 10.7923 10.4051C10.7922 10.4054 10.7921 10.4056 10.792 10.4059C10.7919 10.4061 10.7918 10.4064 10.7918 10.4066C10.7917 10.4069 10.7916 10.4071 10.7915 10.4073C10.7915 10.4075 10.7914 10.4078 10.7913 10.408C10.7913 10.4082 10.7912 10.4084 10.7911 10.4086C10.791 10.4088 10.791 10.409 10.7909 10.4092C10.7909 10.4094 10.7908 10.4096 10.7907 10.4098C10.7907 10.4099 10.7906 10.4101 10.7906 10.4103C10.7905 10.4105 10.7904 10.4106 10.7904 10.4108C10.7903 10.411 10.7903 10.4111 10.7902 10.4113C10.7902 10.4114 10.7901 10.4116 10.7901 10.4117C10.79 10.4119 10.79 10.412 10.7899 10.4121C10.7899 10.4123 10.7899 10.4124 10.7898 10.4125C10.7898 10.4127 10.7897 10.4128 10.7897 10.4129C10.7897 10.413 10.7896 10.4131 10.7896 10.4132C10.7896 10.4133 10.7895 10.4134 10.7895 10.4135C10.7895 10.4136 10.7894 10.4137 10.7894 10.4138C10.7894 10.4139 10.7893 10.4139 10.7893 10.414C10.7893 10.4141 10.7893 10.4142 10.7893 10.4142C10.7892 10.4143 10.7892 10.4144 10.7892 10.4144C10.7892 10.4145 10.7892 10.4145 10.7891 10.4146C10.7891 10.4146 10.7891 10.4147 10.7891 10.4147C10.7891 10.4147 10.7891 10.4148 10.7891 10.4148C10.7891 10.4148 10.789 10.4149 10.789 10.4149C10.789 10.4149 10.789 10.4149 10.789 10.4149C10.789 10.4149 10.789 10.4149 10.789 10.4149C12.0519 9.7784 12.6884 11.0413 12.6884 11.0413C12.6884 11.0412 12.6884 11.0412 12.6884 11.0412C12.6884 11.0412 12.6884 11.0412 12.6885 11.0412C12.6885 11.0411 12.6885 11.0411 12.6885 11.0411C12.6885 11.041 12.6885 11.041 12.6885 11.041C12.6885 11.0409 12.6886 11.0409 12.6886 11.0408C12.6886 11.0408 12.6886 11.0407 12.6886 11.0406C12.6886 11.0406 12.6887 11.0405 12.6887 11.0405C12.6887 11.0404 12.6887 11.0403 12.6888 11.0402C12.6888 11.0402 12.6888 11.0401 12.6888 11.04C12.6889 11.0399 12.6889 11.0398 12.6889 11.0397C12.689 11.0396 12.689 11.0395 12.689 11.0394C12.6891 11.0393 12.6891 11.0392 12.6891 11.0391C12.6892 11.039 12.6892 11.0389 12.6892 11.0388C12.6893 11.0387 12.6893 11.0385 12.6894 11.0384C12.6894 11.0383 12.6894 11.0381 12.6895 11.038C12.6895 11.0379 12.6896 11.0377 12.6896 11.0376C12.6897 11.0375 12.6897 11.0373 12.6898 11.0372C12.6898 11.037 12.6899 11.0369 12.6899 11.0367C12.69 11.0365 12.69 11.0364 12.6901 11.0362C12.6901 11.036 12.6902 11.0359 12.6903 11.0357C12.6903 11.0355 12.6904 11.0353 12.6904 11.0352C12.6905 11.035 12.6906 11.0348 12.6906 11.0346C12.6907 11.0344 12.6907 11.0342 12.6908 11.034C12.6909 11.0338 12.6909 11.0336 12.691 11.0334C12.6911 11.0332 12.6911 11.033 12.6912 11.0328C12.6913 11.0326 12.6914 11.0324 12.6914 11.0322C12.6915 11.0319 12.6916 11.0317 12.6916 11.0315C12.6917 11.0313 12.6918 11.031 12.6919 11.0308C12.692 11.0306 12.692 11.0303 12.6921 11.0301C12.6922 11.0298 12.6923 11.0296 12.6924 11.0293C12.6924 11.0291 12.6925 11.0288 12.6926 11.0286C12.6927 11.0283 12.6928 11.0281 12.6929 11.0278C12.6929 11.0276 12.693 11.0273 12.6931 11.027C12.6932 11.0268 12.6933 11.0265 12.6934 11.0262C12.6935 11.0259 12.6936 11.0256 12.6937 11.0254C12.6938 11.0251 12.6939 11.0248 12.6939 11.0245C12.694 11.0242 12.6941 11.0239 12.6942 11.0236C12.6943 11.0233 12.6944 11.023 12.6945 11.0227C12.6946 11.0224 12.6947 11.0221 12.6948 11.0218C12.6949 11.0215 12.695 11.0212 12.6951 11.0209C12.6953 11.0206 12.6954 11.0202 12.6955 11.0199C12.6956 11.0196 12.6957 11.0193 12.6958 11.0189C12.6959 11.0186 12.696 11.0183 12.6961 11.0179C12.6962 11.0176 12.6963 11.0173 12.6964 11.0169C12.6966 11.0166 12.6967 11.0162 12.6968 11.0159C12.6969 11.0155 12.697 11.0152 12.6971 11.0148C12.6973 11.0145 12.6974 11.0141 12.6975 11.0138C12.6976 11.0134 12.6977 11.013 12.6979 11.0127C12.698 11.0123 12.6981 11.0119 12.6982 11.0116C12.6983 11.0112 12.6985 11.0108 12.6986 11.0104C12.6987 11.0101 12.6988 11.0097 12.699 11.0093C12.6991 11.0089 12.6992 11.0085 12.6993 11.0081C12.6995 11.0077 12.6996 11.0073 12.6997 11.0069C12.6999 11.0066 12.7 11.0062 12.7001 11.0058C12.7003 11.0053 12.7004 11.0049 12.7005 11.0045C12.7007 11.0041 12.7008 11.0037 12.7009 11.0033C12.7011 11.0029 12.7012 11.0025 12.7013 11.0021C12.7015 11.0016 12.7016 11.0012 12.7018 11.0008C12.7019 11.0004 12.702 10.9999 12.7022 10.9995C12.7023 10.9991 12.7025 10.9987 12.7026 10.9982C12.7028 10.9978 12.7029 10.9974 12.703 10.9969C12.7032 10.9965 12.7033 10.996 12.7035 10.9956C12.7036 10.9951 12.7038 10.9947 12.7039 10.9942C12.7041 10.9938 12.7042 10.9933 12.7044 10.9929C12.7045 10.9924 12.7047 10.992 12.7048 10.9915C12.705 10.9911 12.7051 10.9906 12.7053 10.9901C12.7054 10.9897 12.7056 10.9892 12.7057 10.9887C12.7059 10.9883 12.7061 10.9878 12.7062 10.9873C12.7064 10.9868 12.7065 10.9864 12.7067 10.9859C12.7068 10.9854 12.707 10.9849 12.7072 10.9844C12.7073 10.9839 12.7075 10.9835 12.7076 10.983C12.7078 10.9825 12.708 10.982 12.7081 10.9815C12.7083 10.981 12.7085 10.9805 12.7086 10.98C12.7088 10.9795 12.7089 10.979 12.7091 10.9785C12.7093 10.978 12.7094 10.9775 12.7096 10.977C12.7098 10.9765 12.7099 10.976 12.7101 10.9755C12.7103 10.975 12.7105 10.9744 12.7106 10.9739C12.7108 10.9734 12.711 10.9729 12.7111 10.9724C12.7113 10.9719 12.7115 10.9713 12.7117 10.9708C12.7118 10.9703 12.712 10.9698 12.7122 10.9692C12.7123 10.9687 12.7125 10.9682 12.7127 10.9676C12.7129 10.9671 12.7131 10.9666 12.7132 10.966C12.7134 10.9655 12.7136 10.965 12.7138 10.9644C12.7139 10.9639 12.7141 10.9633 12.7143 10.9628C12.7145 10.9623 12.7147 10.9617 12.7148 10.9612C12.715 10.9606 12.7152 10.9601 12.7154 10.9595C12.7156 10.959 12.7157 10.9584 12.7159 10.9579C12.7161 10.9573 12.7163 10.9567 12.7165 10.9562C12.7167 10.9556 12.7168 10.9551 12.717 10.9545C12.7172 10.9539 12.7174 10.9534 12.7176 10.9528C12.7178 10.9522 12.718 10.9517 12.7182 10.9511C12.7183 10.9505 12.7185 10.95 12.7187 10.9494C12.7189 10.9488 12.7191 10.9482 12.7193 10.9477C12.7195 10.9471 12.7197 10.9465 12.7199 10.9459C12.72 10.9454 12.7202 10.9448 12.7204 10.9442C12.7206 10.9436 12.7208 10.943 12.721 10.9424C12.7212 10.9419 12.7214 10.9413 12.7216 10.9407C12.7218 10.9401 12.722 10.9395 12.7222 10.9389C12.7224 10.9383 12.7226 10.9377 12.7228 10.9371C12.723 10.9365 12.7232 10.9359 12.7233 10.9353C12.7235 10.9347 12.7237 10.9341 12.7239 10.9335C12.7241 10.9329 12.7243 10.9323 12.7245 10.9317C12.7247 10.9311 12.7249 10.9305 12.7251 10.9299C12.7253 10.9293 12.7255 10.9287 12.7257 10.9281C12.7259 10.9275 12.7261 10.9269 12.7263 10.9263C12.7265 10.9257 12.7267 10.9251 12.7269 10.9244C12.7271 10.9238 12.7273 10.9232 12.7276 10.9226C12.7278 10.922 12.728 10.9214 12.7282 10.9207C12.7284 10.9201 12.7286 10.9195 12.7288 10.9189C12.729 10.9183 12.7292 10.9176 12.7294 10.917C12.7296 10.9164 12.7298 10.9158 12.73 10.9151C12.7302 10.9145 12.7304 10.9139 12.7306 10.9133C12.7308 10.9126 12.731 10.912 12.7312 10.9114C12.7315 10.9108 12.7317 10.9101 12.7319 10.9095C12.7321 10.9089 12.7323 10.9082 12.7325 10.9076C12.7327 10.907 12.7329 10.9063 12.7331 10.9057C12.7333 10.9051 12.7335 10.9044 12.7338 10.9038C12.734 10.9031 12.7342 10.9025 12.7344 10.9019C12.7346 10.9012 12.7348 10.9006 12.735 10.8999C12.7352 10.8993 12.7354 10.8987 12.7357 10.898C12.7359 10.8974 12.7361 10.8967 12.7363 10.8961C12.7365 10.8954 12.7367 10.8948 12.7369 10.8942C12.7371 10.8935 12.7374 10.8929 12.7376 10.8922C12.7378 10.8916 12.738 10.8909 12.7382 10.8903C12.7384 10.8896 12.7386 10.889 12.7389 10.8883C12.7391 10.8877 12.7393 10.887 12.7395 10.8864C12.7397 10.8857 12.7399 10.8851 12.7401 10.8844C12.7404 10.8838 12.7406 10.8831 12.7408 10.8825C12.741 10.8818 12.7412 10.8812 12.7414 10.8805C12.7416 10.8798 12.7419 10.8792 12.7421 10.8785C12.7423 10.8779 12.7425 10.8772 12.7427 10.8766C12.7429 10.8759 12.7432 10.8752 12.7434 10.8746C12.7436 10.8739 12.7438 10.8733 12.744 10.8726C12.7442 10.872 12.7445 10.8713 12.7447 10.8706C12.7449 10.87 12.7451 10.8693 12.7453 10.8687C12.7456 10.868 12.7458 10.8673 12.746 10.8667C12.7462 10.866 12.7464 10.8654 12.7466 10.8647C12.7469 10.864 12.7471 10.8634 12.7473 10.8627C12.7475 10.862 12.7477 10.8614 12.748 10.8607C12.7482 10.8601 12.7484 10.8594 12.7486 10.8587C12.7488 10.8581 12.749 10.8574 12.7493 10.8567C12.7495 10.8561 12.7497 10.8554 12.7499 10.8547C12.7501 10.8541 12.7504 10.8534 12.7506 10.8528C12.7508 10.8521 12.751 10.8514 12.7512 10.8508C12.7515 10.8501 12.7517 10.8494 12.7519 10.8488C12.7521 10.8481 12.7523 10.8474 12.7526 10.8468C12.7528 10.8461 12.753 10.8454 12.7532 10.8448C12.7534 10.8441 12.7536 10.8435 12.7539 10.8428C12.7541 10.8421 12.7543 10.8415 12.7545 10.8408C12.7547 10.8401 12.755 10.8395 12.7552 10.8388C12.7554 10.8381 12.7556 10.8375 12.7558 10.8368C12.7561 10.8361 12.7563 10.8355 12.7565 10.8348C12.7567 10.8342 12.7569 10.8335 12.7572 10.8328C12.7574 10.8322 12.7576 10.8315 12.7578 10.8308C12.758 10.8302 12.7582 10.8295 12.7585 10.8288C12.7587 10.8282 12.7589 10.8275 12.7591 10.8269C12.7593 10.8262 12.7596 10.8255 12.7598 10.8249C12.76 10.8242 12.7602 10.8236 12.7604 10.8229C12.7606 10.8222 12.7609 10.8216 12.7611 10.8209C12.7613 10.8202 12.7615 10.8196 12.7617 10.8189C12.762 10.8183 12.7622 10.8176 12.7624 10.817C12.7626 10.8163 12.7628 10.8156 12.763 10.815C12.7633 10.8143 12.7635 10.8137 12.7637 10.813C12.7639 10.8123 12.7641 10.8117 12.7643 10.811C12.7646 10.8104 12.7648 10.8097 12.765 10.8091C12.7652 10.8084 12.7654 10.8078 12.7656 10.8071C12.7658 10.8065 12.7661 10.8058 12.7663 10.8051C12.7665 10.8045 12.7667 10.8038 12.7669 10.8032C12.7671 10.8025 12.7674 10.8019 12.7676 10.8012C12.7678 10.8006 12.768 10.7999 12.7682 10.7993C12.7684 10.7986 12.7686 10.798 12.7689 10.7973C12.7691 10.7967 12.7693 10.7961 12.7695 10.7954C12.7697 10.7948 12.7699 10.7941 12.7701 10.7935C12.7703 10.7928 12.7706 10.7922 12.7708 10.7915C12.771 10.7909 12.7712 10.7903 12.7714 10.7896C12.7716 10.789 12.7718 10.7883 12.772 10.7877C12.7722 10.7871 12.7725 10.7864 12.7727 10.7858C12.7729 10.7851 12.7731 10.7845 12.7733 10.7839C12.7735 10.7832 12.7737 10.7826 12.7739 10.782C12.7741 10.7813 12.7743 10.7807 12.7745 10.7801C12.7748 10.7794 12.775 10.7788 12.7752 10.7782C12.7754 10.7776 12.7756 10.7769 12.7758 10.7763C12.776 10.7757 12.7762 10.775 12.7764 10.7744C12.7766 10.7738 12.7768 10.7732 12.777 10.7725C12.7772 10.7719 12.7774 10.7713 12.7776 10.7707C12.7778 10.7701 12.7781 10.7694 12.7783 10.7688C12.7785 10.7682 12.7787 10.7676 12.7789 10.767C12.7791 10.7664 12.7793 10.7657 12.7795 10.7651C12.7797 10.7645 12.7799 10.7639 12.7801 10.7633C12.7803 10.7627 12.7805 10.7621 12.7807 10.7615C12.7809 10.7609 12.7811 10.7602 12.7813 10.7596C12.7815 10.759 12.7817 10.7584 12.7819 10.7578C12.7821 10.7572 12.7823 10.7566 12.7825 10.756C12.7827 10.7554 12.7829 10.7548 12.7831 10.7542C12.7833 10.7536 12.7835 10.753 12.7837 10.7524C12.7839 10.7518 12.7841 10.7512 12.7842 10.7507C12.7844 10.7501 12.7846 10.7495 12.7848 10.7489C12.785 10.7483 12.7852 10.7477 12.7854 10.7471C12.7856 10.7465 12.7858 10.746 12.786 10.7454C12.7862 10.7448 12.7864 10.7442 12.7866 10.7436C12.7868 10.7431 12.7869 10.7425 12.7871 10.7419C12.7873 10.7413 12.7875 10.7407 12.7877 10.7402C12.7879 10.7396 12.7881 10.739 12.7883 10.7385C12.7885 10.7379 12.7886 10.7373 12.7888 10.7368C12.789 10.7362 12.7892 10.7356 12.7894 10.7351C12.7896 10.7345 12.7898 10.7339 12.7899 10.7334C12.7901 10.7328 12.7903 10.7323 12.7905 10.7317C12.7907 10.7312 12.7909 10.7306 12.791 10.7301C12.7912 10.7295 12.7914 10.729 12.7916 10.7284C12.7918 10.7279 12.7919 10.7273 12.7921 10.7268C12.7923 10.7262 12.7925 10.7257 12.7927 10.7251C12.7928 10.7246 12.793 10.7241 12.7932 10.7235C12.7934 10.723 12.7935 10.7225 12.7937 10.7219C12.7939 10.7214 12.7941 10.7209 12.7942 10.7203C12.7944 10.7198 12.7946 10.7193 12.7948 10.7188C12.7949 10.7182 12.7951 10.7177 12.7953 10.7172C12.7955 10.7167 12.7956 10.7162 12.7958 10.7156C12.796 10.7151 12.7961 10.7146 12.7963 10.7141C12.7965 10.7136 12.7966 10.7131 12.7968 10.7126C12.797 10.7121 12.7971 10.7116 12.7973 10.7111C12.7975 10.7106 12.7976 10.7101 12.7978 10.7096C12.798 10.7091 12.7981 10.7086 12.7983 10.7081C12.7985 10.7076 12.7986 10.7071 12.7988 10.7066C12.7989 10.7061 12.7991 10.7056 12.7993 10.7051C12.7994 10.7047 12.7996 10.7042 12.7997 10.7037C12.7999 10.7032 12.8 10.7027 12.8002 10.7023C12.8004 10.7018 12.8005 10.7013 12.8007 10.7008C12.8008 10.7004 12.801 10.6999 12.8011 10.6994C12.8013 10.699 12.8014 10.6985 12.8016 10.6981C12.8017 10.6976 12.8019 10.6971 12.802 10.6967C12.8022 10.6962 12.8023 10.6958 12.8025 10.6953C12.8026 10.6949 12.8028 10.6944 12.8029 10.694C12.8031 10.6935 12.8032 10.6931 12.8034 10.6927C12.8035 10.6922 12.8037 10.6918 12.8038 10.6913C12.8039 10.6909 12.8041 10.6905 12.8042 10.69C12.8044 10.6896 12.8045 10.6892 12.8047 10.6888C12.8048 10.6883 12.8049 10.6879 12.8051 10.6875C12.8052 10.6871 12.8053 10.6867 12.8055 10.6863C12.8056 10.6858 12.8058 10.6854 12.8059 10.685C12.806 10.6846 12.8062 10.6842 12.8063 10.6838C12.8064 10.6834 12.8066 10.683 12.8067 10.6826C12.8068 10.6822 12.8069 10.6818 12.8071 10.6814C12.8072 10.6811 12.8073 10.6807 12.8075 10.6803C12.8076 10.6799 12.8077 10.6795 12.8078 10.6791C12.808 10.6788 12.8081 10.6784 12.8082 10.678C12.8083 10.6776 12.8084 10.6773 12.8086 10.6769C12.8087 10.6765 12.8088 10.6762 12.8089 10.6758C12.809 10.6755 12.8092 10.6751 12.8093 10.6747C12.8094 10.6744 12.8095 10.674 12.8096 10.6737C12.8097 10.6733 12.8099 10.673 12.81 10.6726C12.8101 10.6723 12.8102 10.672 12.8103 10.6716C12.8104 10.6713 12.8105 10.671 12.8106 10.6706C12.8107 10.6703 12.8108 10.67 12.811 10.6697C12.8111 10.6693 12.8112 10.669 12.8113 10.6687C12.8114 10.6684 12.8115 10.6681 12.8116 10.6678C12.8117 10.6675 12.8118 10.6671 12.8119 10.6668C12.812 10.6665 12.8121 10.6662 12.8122 10.6659C12.8123 10.6656 12.8124 10.6654 12.8125 10.6651C12.8126 10.6648 12.8127 10.6645 12.8128 10.6642C12.8128 10.6639 12.8129 10.6636 12.813 10.6634C12.8131 10.6631 12.8132 10.6628 12.8133 10.6625C12.8134 10.6623 12.8135 10.662 12.8136 10.6617C12.8137 10.6615 12.8137 10.6612 12.8138 10.661C12.8139 10.6607 12.814 10.6605 12.8141 10.6602C12.8142 10.66 12.8142 10.6597 12.8143 10.6595C12.8144 10.6592 12.8145 10.659 12.8145 10.6588C12.8146 10.6585 12.8147 10.6583 12.8148 10.6581C12.8148 10.6579 12.8149 10.6576 12.815 10.6574C12.8151 10.6572 12.8151 10.657 12.8152 10.6568C12.8153 10.6566 12.8153 10.6563 12.8154 10.6561C12.8155 10.6559 12.8155 10.6557 12.8156 10.6555C12.8157 10.6553 12.8157 10.6551 12.8158 10.655C12.8159 10.6548 12.8159 10.6546 12.816 10.6544C12.816 10.6542 12.8161 10.654 12.8162 10.6539C12.8162 10.6537 12.8163 10.6535 12.8163 10.6534C12.8164 10.6532 12.8164 10.653 12.8165 10.6529C12.8165 10.6527 12.8166 10.6526 12.8166 10.6524C12.8167 10.6523 12.8167 10.6521 12.8168 10.652C12.8168 10.6518 12.8169 10.6517 12.8169 10.6516C12.817 10.6514 12.817 10.6513 12.8171 10.6512C12.8171 10.651 12.8171 10.6509 12.8172 10.6508C12.8172 10.6507 12.8173 10.6506 12.8173 10.6505C12.8173 10.6503 12.8174 10.6502 12.8174 10.6501C12.8174 10.65 12.8175 10.6499 12.8175 10.6498C12.8175 10.6497 12.8175 10.6497 12.8176 10.6496C12.8176 10.6495 12.8176 10.6494 12.8177 10.6493C12.8177 10.6493 12.8177 10.6492 12.8177 10.6491C12.8178 10.649 12.8178 10.649 12.8178 10.6489C12.8178 10.6489 12.8178 10.6488 12.8178 10.6488C12.8179 10.6487 12.8179 10.6487 12.8179 10.6486C12.8179 10.6486 12.8179 10.6485 12.8179 10.6485C12.8179 10.6485 12.818 10.6484 12.818 10.6484C12.818 10.6484 12.818 10.6484 12.818 10.6484C12.818 10.6483 12.818 10.6483 12.818 10.6483C12.818 10.6483 12.1814 9.38545 10.9186 10.022C10.9186 10.022 10.9186 10.022 10.9186 10.022C10.9186 10.022 10.9186 10.022 10.9186 10.0221C10.9186 10.0221 10.9186 10.0221 10.9185 10.0221C10.9185 10.0222 10.9185 10.0222 10.9185 10.0222C10.9185 10.0223 10.9185 10.0223 10.9185 10.0224C10.9185 10.0224 10.9184 10.0225 10.9184 10.0225C10.9184 10.0226 10.9184 10.0226 10.9184 10.0227C10.9183 10.0228 10.9183 10.0228 10.9183 10.0229C10.9183 10.023 10.9182 10.0231 10.9182 10.0232C10.9182 10.0232 10.9182 10.0233 10.9181 10.0234C10.9181 10.0235 10.9181 10.0236 10.918 10.0237C10.918 10.0238 10.918 10.0239 10.9179 10.0241C10.9179 10.0242 10.9178 10.0243 10.9178 10.0244C10.9178 10.0245 10.9177 10.0247 10.9177 10.0248C10.9176 10.0249 10.9176 10.0251 10.9175 10.0252C10.9175 10.0254 10.9174 10.0255 10.9174 10.0257C10.9173 10.0258 10.9173 10.026 10.9172 10.0261C10.9172 10.0263 10.9171 10.0265 10.9171 10.0266C10.917 10.0268 10.9169 10.027 10.9169 10.0272C10.9168 10.0274 10.9168 10.0276 10.9167 10.0277C10.9166 10.0279 10.9166 10.0281 10.9165 10.0283C10.9164 10.0286 10.9164 10.0288 10.9163 10.029C10.9162 10.0292 10.9161 10.0294 10.9161 10.0296C10.916 10.0299 10.9159 10.0301 10.9158 10.0303C10.9158 10.0306 10.9157 10.0308 10.9156 10.031C10.9155 10.0313 10.9154 10.0315 10.9154 10.0318C10.9153 10.0321 10.9152 10.0323 10.9151 10.0326C10.915 10.0329 10.9149 10.0331 10.9148 10.0334C10.9147 10.0337 10.9146 10.034 10.9146 10.0343C10.9145 10.0345 10.9144 10.0348 10.9143 10.0351C10.9142 10.0354 10.9141 10.0357 10.914 10.0361C10.9139 10.0364 10.9138 10.0367 10.9136 10.037C10.9135 10.0373 10.9134 10.0376 10.9133 10.038C10.9132 10.0383 10.9131 10.0386 10.913 10.039C10.9129 10.0393 10.9128 10.0397 10.9126 10.04C10.9125 10.0404 10.9124 10.0408 10.9123 10.0411C10.9122 10.0415 10.912 10.0419 10.9119 10.0422C10.9118 10.0426 10.9117 10.043 10.9115 10.0434C10.9114 10.0438 10.9113 10.0442 10.9112 10.0446C10.911 10.045 10.9109 10.0454 10.9108 10.0458C10.9106 10.0462 10.9105 10.0466 10.9103 10.047C10.9102 10.0474 10.9101 10.0479 10.9099 10.0483C10.9098 10.0487 10.9096 10.0492 10.9095 10.0496C10.9093 10.0501 10.9092 10.0505 10.909 10.051C10.9089 10.0514 10.9087 10.0519 10.9086 10.0524C10.9084 10.0528 10.9083 10.0533 10.9081 10.0538C10.908 10.0543 10.9078 10.0548 10.9076 10.0552C10.9075 10.0557 10.9073 10.0562 10.9071 10.0567C10.907 10.0572 10.9068 10.0578 10.9066 10.0583C10.9065 10.0588 10.9063 10.0593 10.9061 10.0598C10.9059 10.0604 10.9058 10.0609 10.9056 10.0614C10.9054 10.062 10.9052 10.0625 10.905 10.0631C10.9049 10.0636 10.9047 10.0642 10.9045 10.0648C10.9043 10.0653 10.9041 10.0659 10.9039 10.0665C10.9037 10.067 10.9035 10.0676 10.9034 10.0682C10.9032 10.0688 10.903 10.0694 10.9028 10.07C10.9026 10.0706 10.9024 10.0712 10.9022 10.0718C10.902 10.0724 10.9018 10.0731 10.9015 10.0737C10.9013 10.0743 10.9011 10.0749 10.9009 10.0756C10.9007 10.0762 10.9005 10.0769 10.9003 10.0775C10.9001 10.0782 10.8999 10.0788 10.8996 10.0795C10.8994 10.0802 10.8992 10.0808 10.899 10.0815C10.8987 10.0822 10.8985 10.0829 10.8983 10.0836C10.8981 10.0842 10.8978 10.0849 10.8976 10.0856C10.8974 10.0864 10.8971 10.0871 10.8969 10.0878C10.8967 10.0885 10.8964 10.0892 10.8962 10.0899C10.8959 10.0907 10.8957 10.0914 10.8955 10.0921C10.8952 10.0929 10.895 10.0936 10.8947 10.0944C10.8945 10.0951 10.8942 10.0959 10.894 10.0967C10.8937 10.0974 10.8935 10.0982 10.8932 10.099C10.8929 10.0998 10.8927 10.1006 10.8924 10.1014C10.8922 10.1022 10.8919 10.103 10.8916 10.1038C10.8914 10.1046 10.8911 10.1054 10.8908 10.1062C10.8906 10.107 10.8903 10.1079 10.89 10.1087C10.8897 10.1095 10.8895 10.1104 10.8892 10.1112C10.8889 10.1121 10.8886 10.1129 10.8883 10.1138C10.888 10.1146 10.8878 10.1155 10.8875 10.1164C10.8872 10.1173 10.8869 10.1182 10.8866 10.119C10.8863 10.1199 10.886 10.1208 10.8857 10.1217C10.8854 10.1226 10.8851 10.1235 10.8848 10.1245C10.8845 10.1254 10.8842 10.1263 10.8839 10.1272C10.8836 10.1282 10.8833 10.1291 10.883 10.13C10.8827 10.131 10.8823 10.1319 10.882 10.1329C10.8817 10.1339 10.8814 10.1348 10.8811 10.1358C10.8807 10.1368 10.8804 10.1378 10.8801 10.1387C10.8798 10.1397 10.8794 10.1407 10.8791 10.1417C10.8788 10.1427 10.8785 10.1437 10.8781 10.1447C10.8778 10.1458 10.8774 10.1468 10.8771 10.1478C10.8768 10.1488 10.8764 10.1499 10.8761 10.1509C10.8757 10.152 10.8754 10.153 10.875 10.1541C10.8747 10.1551 10.8743 10.1562 10.874 10.1573C10.8736 10.1584 10.8733 10.1594 10.8729 10.1605C10.8726 10.1616 10.8722 10.1627 10.8718 10.1638C10.8715 10.1649 10.8711 10.166 10.8707 10.1671C10.8704 10.1683 10.87 10.1694 10.8696 10.1705C10.8692 10.1716 10.8689 10.1728 10.8685 10.1739C10.8681 10.1751 10.8677 10.1762 10.8674 10.1774C10.867 10.1786 10.8666 10.1797 10.8662 10.1809C10.8658 10.1821 10.8654 10.1833 10.865 10.1845C10.8646 10.1856 10.8642 10.1868 10.8638 10.188C10.8634 10.1893 10.863 10.1905 10.8626 10.1917C10.8622 10.1929 10.8618 10.1941 10.8614 10.1954C10.861 10.1966 10.8606 10.1979 10.8602 10.1991C10.8598 10.2004 10.8594 10.2016 10.8589 10.2029C10.8585 10.2042 10.8581 10.2054 10.8577 10.2067C10.8573 10.208 10.8568 10.2093 10.8564 10.2106C10.856 10.2119 10.8555 10.2132 10.8551 10.2145C10.8547 10.2158 10.8542 10.2171 10.8538 10.2185L12.7532 10.8448C12.7536 10.8435 12.7541 10.8421 12.7545 10.8408C12.755 10.8395 12.7554 10.8382 12.7558 10.8369C12.7562 10.8356 12.7567 10.8343 12.7571 10.833C12.7575 10.8317 12.7579 10.8305 12.7583 10.8292C12.7588 10.8279 12.7592 10.8267 12.7596 10.8254C12.76 10.8242 12.7604 10.8229 12.7608 10.8217C12.7612 10.8205 12.7616 10.8192 12.762 10.818C12.7624 10.8168 12.7628 10.8156 12.7632 10.8144C12.7636 10.8132 12.764 10.812 12.7644 10.8108C12.7648 10.8096 12.7652 10.8084 12.7656 10.8072C12.766 10.806 12.7664 10.8049 12.7668 10.8037C12.7671 10.8025 12.7675 10.8014 12.7679 10.8002C12.7683 10.7991 12.7687 10.798 12.769 10.7968C12.7694 10.7957 12.7698 10.7946 12.7701 10.7934C12.7705 10.7923 12.7709 10.7912 12.7712 10.7901C12.7716 10.789 12.772 10.7879 12.7723 10.7868C12.7727 10.7857 12.773 10.7847 12.7734 10.7836C12.7737 10.7825 12.7741 10.7815 12.7744 10.7804C12.7748 10.7793 12.7751 10.7783 12.7755 10.7772C12.7758 10.7762 12.7762 10.7752 12.7765 10.7741C12.7768 10.7731 12.7772 10.7721 12.7775 10.7711C12.7779 10.77 12.7782 10.769 12.7785 10.768C12.7788 10.767 12.7792 10.766 12.7795 10.7651C12.7798 10.7641 12.7801 10.7631 12.7805 10.7621C12.7808 10.7611 12.7811 10.7602 12.7814 10.7592C12.7817 10.7583 12.7821 10.7573 12.7824 10.7564C12.7827 10.7554 12.783 10.7545 12.7833 10.7535C12.7836 10.7526 12.7839 10.7517 12.7842 10.7508C12.7845 10.7499 12.7848 10.7489 12.7851 10.748C12.7854 10.7471 12.7857 10.7462 12.786 10.7454C12.7863 10.7445 12.7866 10.7436 12.7869 10.7427C12.7872 10.7418 12.7874 10.741 12.7877 10.7401C12.788 10.7392 12.7883 10.7384 12.7886 10.7375C12.7889 10.7367 12.7891 10.7358 12.7894 10.735C12.7897 10.7342 12.79 10.7333 12.7902 10.7325C12.7905 10.7317 12.7908 10.7309 12.791 10.7301C12.7913 10.7293 12.7916 10.7285 12.7918 10.7277C12.7921 10.7269 12.7923 10.7261 12.7926 10.7253C12.7929 10.7245 12.7931 10.7238 12.7934 10.723C12.7936 10.7222 12.7939 10.7215 12.7941 10.7207C12.7944 10.7199 12.7946 10.7192 12.7949 10.7185C12.7951 10.7177 12.7954 10.717 12.7956 10.7163C12.7958 10.7155 12.7961 10.7148 12.7963 10.7141C12.7965 10.7134 12.7968 10.7127 12.797 10.712C12.7972 10.7113 12.7975 10.7106 12.7977 10.7099C12.7979 10.7092 12.7981 10.7085 12.7984 10.7078C12.7986 10.7071 12.7988 10.7065 12.799 10.7058C12.7993 10.7051 12.7995 10.7045 12.7997 10.7038C12.7999 10.7032 12.8001 10.7025 12.8003 10.7019C12.8005 10.7013 12.8007 10.7006 12.801 10.7C12.8012 10.6994 12.8014 10.6988 12.8016 10.6981C12.8018 10.6975 12.802 10.6969 12.8022 10.6963C12.8024 10.6957 12.8026 10.6951 12.8028 10.6945C12.8029 10.6939 12.8031 10.6934 12.8033 10.6928C12.8035 10.6922 12.8037 10.6916 12.8039 10.6911C12.8041 10.6905 12.8043 10.6899 12.8044 10.6894C12.8046 10.6888 12.8048 10.6883 12.805 10.6878C12.8052 10.6872 12.8053 10.6867 12.8055 10.6862C12.8057 10.6856 12.8059 10.6851 12.806 10.6846C12.8062 10.6841 12.8064 10.6836 12.8065 10.6831C12.8067 10.6826 12.8069 10.6821 12.807 10.6816C12.8072 10.6811 12.8074 10.6806 12.8075 10.6801C12.8077 10.6796 12.8078 10.6791 12.808 10.6787C12.8081 10.6782 12.8083 10.6777 12.8084 10.6773C12.8086 10.6768 12.8087 10.6764 12.8089 10.6759C12.809 10.6755 12.8092 10.6751 12.8093 10.6746C12.8095 10.6742 12.8096 10.6738 12.8097 10.6733C12.8099 10.6729 12.81 10.6725 12.8102 10.6721C12.8103 10.6717 12.8104 10.6713 12.8106 10.6709C12.8107 10.6705 12.8108 10.6701 12.8109 10.6697C12.8111 10.6693 12.8112 10.6689 12.8113 10.6685C12.8114 10.6682 12.8116 10.6678 12.8117 10.6674C12.8118 10.6671 12.8119 10.6667 12.812 10.6663C12.8122 10.666 12.8123 10.6656 12.8124 10.6653C12.8125 10.665 12.8126 10.6646 12.8127 10.6643C12.8128 10.664 12.8129 10.6636 12.813 10.6633C12.8132 10.663 12.8133 10.6627 12.8134 10.6624C12.8135 10.6621 12.8136 10.6617 12.8137 10.6614C12.8138 10.6611 12.8139 10.6609 12.814 10.6606C12.814 10.6603 12.8141 10.66 12.8142 10.6597C12.8143 10.6594 12.8144 10.6592 12.8145 10.6589C12.8146 10.6586 12.8147 10.6584 12.8148 10.6581C12.8148 10.6579 12.8149 10.6576 12.815 10.6574C12.8151 10.6571 12.8152 10.6569 12.8152 10.6566C12.8153 10.6564 12.8154 10.6562 12.8155 10.6559C12.8156 10.6557 12.8156 10.6555 12.8157 10.6553C12.8158 10.6551 12.8158 10.6549 12.8159 10.6547C12.816 10.6545 12.816 10.6543 12.8161 10.6541C12.8162 10.6539 12.8162 10.6537 12.8163 10.6535C12.8163 10.6533 12.8164 10.6531 12.8165 10.653C12.8165 10.6528 12.8166 10.6526 12.8166 10.6525C12.8167 10.6523 12.8167 10.6521 12.8168 10.652C12.8168 10.6518 12.8169 10.6517 12.8169 10.6515C12.817 10.6514 12.817 10.6512 12.8171 10.6511C12.8171 10.651 12.8172 10.6509 12.8172 10.6507C12.8172 10.6506 12.8173 10.6505 12.8173 10.6504C12.8174 10.6503 12.8174 10.6501 12.8174 10.65C12.8175 10.6499 12.8175 10.6498 12.8175 10.6497C12.8176 10.6496 12.8176 10.6496 12.8176 10.6495C12.8176 10.6494 12.8177 10.6493 12.8177 10.6492C12.8177 10.6492 12.8177 10.6491 12.8178 10.649C12.8178 10.649 12.8178 10.6489 12.8178 10.6488C12.8178 10.6488 12.8179 10.6487 12.8179 10.6487C12.8179 10.6486 12.8179 10.6486 12.8179 10.6485C12.8179 10.6485 12.8179 10.6485 12.818 10.6484C12.818 10.6484 12.818 10.6484 12.818 10.6484C12.818 10.6484 12.818 10.6483 12.818 10.6483C12.818 10.6483 12.818 10.6483 12.818 10.6483C11.5551 11.2849 10.9186 10.022 10.9186 10.022C10.9186 10.022 10.9186 10.022 10.9186 10.022C10.9186 10.0221 10.9186 10.0221 10.9186 10.0221C10.9185 10.0221 10.9185 10.0222 10.9185 10.0222C10.9185 10.0222 10.9185 10.0223 10.9185 10.0223C10.9185 10.0223 10.9185 10.0224 10.9184 10.0224C10.9184 10.0225 10.9184 10.0225 10.9184 10.0226C10.9184 10.0227 10.9183 10.0227 10.9183 10.0228C10.9183 10.0229 10.9183 10.0229 10.9183 10.023C10.9182 10.0231 10.9182 10.0232 10.9182 10.0233C10.9181 10.0233 10.9181 10.0234 10.9181 10.0235C10.9181 10.0236 10.918 10.0237 10.918 10.0238C10.918 10.0239 10.9179 10.024 10.9179 10.0241C10.9178 10.0243 10.9178 10.0244 10.9178 10.0245C10.9177 10.0246 10.9177 10.0247 10.9177 10.0249C10.9176 10.025 10.9176 10.0251 10.9175 10.0252C10.9175 10.0254 10.9174 10.0255 10.9174 10.0257C10.9173 10.0258 10.9173 10.0259 10.9172 10.0261C10.9172 10.0262 10.9171 10.0264 10.9171 10.0266C10.917 10.0267 10.917 10.0269 10.9169 10.027C10.9169 10.0272 10.9168 10.0274 10.9168 10.0276C10.9167 10.0277 10.9166 10.0279 10.9166 10.0281C10.9165 10.0283 10.9165 10.0285 10.9164 10.0286C10.9163 10.0288 10.9163 10.029 10.9162 10.0292C10.9161 10.0294 10.9161 10.0296 10.916 10.0298C10.9159 10.03 10.9159 10.0302 10.9158 10.0305C10.9157 10.0307 10.9157 10.0309 10.9156 10.0311C10.9155 10.0313 10.9154 10.0315 10.9154 10.0318C10.9153 10.032 10.9152 10.0322 10.9151 10.0325C10.9151 10.0327 10.915 10.0329 10.9149 10.0332C10.9148 10.0334 10.9147 10.0337 10.9147 10.0339C10.9146 10.0342 10.9145 10.0344 10.9144 10.0347C10.9143 10.0349 10.9142 10.0352 10.9142 10.0354C10.9141 10.0357 10.914 10.036 10.9139 10.0362C10.9138 10.0365 10.9137 10.0368 10.9136 10.0371C10.9135 10.0373 10.9134 10.0376 10.9134 10.0379C10.9133 10.0382 10.9132 10.0385 10.9131 10.0388C10.913 10.039 10.9129 10.0393 10.9128 10.0396C10.9127 10.0399 10.9126 10.0402 10.9125 10.0405C10.9124 10.0408 10.9123 10.0411 10.9122 10.0414C10.9121 10.0418 10.912 10.0421 10.9119 10.0424C10.9118 10.0427 10.9117 10.043 10.9116 10.0433C10.9114 10.0437 10.9113 10.044 10.9112 10.0443C10.9111 10.0447 10.911 10.045 10.9109 10.0453C10.9108 10.0457 10.9107 10.046 10.9106 10.0463C10.9105 10.0467 10.9103 10.047 10.9102 10.0474C10.9101 10.0477 10.91 10.0481 10.9099 10.0484C10.9098 10.0488 10.9096 10.0491 10.9095 10.0495C10.9094 10.0499 10.9093 10.0502 10.9092 10.0506C10.909 10.051 10.9089 10.0513 10.9088 10.0517C10.9087 10.0521 10.9086 10.0524 10.9084 10.0528C10.9083 10.0532 10.9082 10.0536 10.908 10.054C10.9079 10.0544 10.9078 10.0547 10.9077 10.0551C10.9075 10.0555 10.9074 10.0559 10.9073 10.0563C10.9071 10.0567 10.907 10.0571 10.9069 10.0575C10.9068 10.0579 10.9066 10.0583 10.9065 10.0587C10.9063 10.0591 10.9062 10.0595 10.9061 10.0599C10.9059 10.0604 10.9058 10.0608 10.9057 10.0612C10.9055 10.0616 10.9054 10.062 10.9053 10.0625C10.9051 10.0629 10.905 10.0633 10.9048 10.0637C10.9047 10.0642 10.9045 10.0646 10.9044 10.065C10.9043 10.0655 10.9041 10.0659 10.904 10.0663C10.9038 10.0668 10.9037 10.0672 10.9035 10.0677C10.9034 10.0681 10.9032 10.0686 10.9031 10.069C10.9029 10.0695 10.9028 10.0699 10.9026 10.0704C10.9025 10.0708 10.9023 10.0713 10.9022 10.0717C10.902 10.0722 10.9019 10.0727 10.9017 10.0731C10.9016 10.0736 10.9014 10.0741 10.9013 10.0745C10.9011 10.075 10.901 10.0755 10.9008 10.0759C10.9006 10.0764 10.9005 10.0769 10.9003 10.0774C10.9002 10.0779 10.9 10.0783 10.8999 10.0788C10.8997 10.0793 10.8995 10.0798 10.8994 10.0803C10.8992 10.0808 10.899 10.0813 10.8989 10.0818C10.8987 10.0823 10.8986 10.0827 10.8984 10.0832C10.8982 10.0837 10.8981 10.0842 10.8979 10.0847C10.8977 10.0852 10.8976 10.0858 10.8974 10.0863C10.8972 10.0868 10.8971 10.0873 10.8969 10.0878C10.8967 10.0883 10.8966 10.0888 10.8964 10.0893C10.8962 10.0898 10.896 10.0904 10.8959 10.0909C10.8957 10.0914 10.8955 10.0919 10.8954 10.0924C10.8952 10.093 10.895 10.0935 10.8948 10.094C10.8947 10.0946 10.8945 10.0951 10.8943 10.0956C10.8941 10.0961 10.894 10.0967 10.8938 10.0972C10.8936 10.0978 10.8934 10.0983 10.8933 10.0988C10.8931 10.0994 10.8929 10.0999 10.8927 10.1005C10.8925 10.101 10.8924 10.1015 10.8922 10.1021C10.892 10.1026 10.8918 10.1032 10.8916 10.1037C10.8915 10.1043 10.8913 10.1048 10.8911 10.1054C10.8909 10.106 10.8907 10.1065 10.8905 10.1071C10.8904 10.1076 10.8902 10.1082 10.89 10.1088C10.8898 10.1093 10.8896 10.1099 10.8894 10.1104C10.8892 10.111 10.8891 10.1116 10.8889 10.1122C10.8887 10.1127 10.8885 10.1133 10.8883 10.1139C10.8881 10.1144 10.8879 10.115 10.8877 10.1156C10.8875 10.1162 10.8874 10.1167 10.8872 10.1173C10.887 10.1179 10.8868 10.1185 10.8866 10.1191C10.8864 10.1196 10.8862 10.1202 10.886 10.1208C10.8858 10.1214 10.8856 10.122 10.8854 10.1226C10.8852 10.1232 10.885 10.1238 10.8848 10.1243C10.8846 10.1249 10.8845 10.1255 10.8843 10.1261C10.8841 10.1267 10.8839 10.1273 10.8837 10.1279C10.8835 10.1285 10.8833 10.1291 10.8831 10.1297C10.8829 10.1303 10.8827 10.1309 10.8825 10.1315C10.8823 10.1321 10.8821 10.1327 10.8819 10.1333C10.8817 10.1339 10.8815 10.1345 10.8813 10.1351C10.8811 10.1358 10.8809 10.1364 10.8807 10.137C10.8805 10.1376 10.8803 10.1382 10.8801 10.1388C10.8799 10.1394 10.8797 10.14 10.8795 10.1407C10.8793 10.1413 10.8791 10.1419 10.8789 10.1425C10.8786 10.1431 10.8784 10.1437 10.8782 10.1444C10.878 10.145 10.8778 10.1456 10.8776 10.1462C10.8774 10.1469 10.8772 10.1475 10.877 10.1481C10.8768 10.1487 10.8766 10.1494 10.8764 10.15C10.8762 10.1506 10.876 10.1512 10.8758 10.1519C10.8756 10.1525 10.8754 10.1531 10.8751 10.1538C10.8749 10.1544 10.8747 10.155 10.8745 10.1557C10.8743 10.1563 10.8741 10.1569 10.8739 10.1576C10.8737 10.1582 10.8735 10.1588 10.8733 10.1595C10.8731 10.1601 10.8728 10.1607 10.8726 10.1614C10.8724 10.162 10.8722 10.1627 10.872 10.1633C10.8718 10.1639 10.8716 10.1646 10.8714 10.1652C10.8711 10.1659 10.8709 10.1665 10.8707 10.1672C10.8705 10.1678 10.8703 10.1685 10.8701 10.1691C10.8699 10.1697 10.8697 10.1704 10.8694 10.171C10.8692 10.1717 10.869 10.1723 10.8688 10.173C10.8686 10.1736 10.8684 10.1743 10.8682 10.1749C10.8679 10.1756 10.8677 10.1762 10.8675 10.1769C10.8673 10.1775 10.8671 10.1782 10.8669 10.1788C10.8667 10.1795 10.8664 10.1801 10.8662 10.1808C10.866 10.1814 10.8658 10.1821 10.8656 10.1828C10.8654 10.1834 10.8652 10.1841 10.8649 10.1847C10.8647 10.1854 10.8645 10.186 10.8643 10.1867C10.8641 10.1873 10.8639 10.188 10.8636 10.1887C10.8634 10.1893 10.8632 10.19 10.863 10.1906C10.8628 10.1913 10.8625 10.192 10.8623 10.1926C10.8621 10.1933 10.8619 10.1939 10.8617 10.1946C10.8615 10.1953 10.8612 10.1959 10.861 10.1966C10.8608 10.1972 10.8606 10.1979 10.8604 10.1986C10.8602 10.1992 10.8599 10.1999 10.8597 10.2005C10.8595 10.2012 10.8593 10.2019 10.8591 10.2025C10.8588 10.2032 10.8586 10.2039 10.8584 10.2045C10.8582 10.2052 10.858 10.2059 10.8577 10.2065C10.8575 10.2072 10.8573 10.2078 10.8571 10.2085C10.8569 10.2092 10.8567 10.2098 10.8564 10.2105C10.8562 10.2112 10.856 10.2118 10.8558 10.2125C10.8556 10.2132 10.8553 10.2138 10.8551 10.2145C10.8549 10.2151 10.8547 10.2158 10.8545 10.2165C10.8542 10.2171 10.854 10.2178 10.8538 10.2185C10.8536 10.2191 10.8534 10.2198 10.8531 10.2205C10.8529 10.2211 10.8527 10.2218 10.8525 10.2225C10.8523 10.2231 10.8521 10.2238 10.8518 10.2245C10.8516 10.2251 10.8514 10.2258 10.8512 10.2264C10.851 10.2271 10.8507 10.2278 10.8505 10.2284C10.8503 10.2291 10.8501 10.2298 10.8499 10.2304C10.8496 10.2311 10.8494 10.2318 10.8492 10.2324C10.849 10.2331 10.8488 10.2337 10.8486 10.2344C10.8483 10.2351 10.8481 10.2357 10.8479 10.2364C10.8477 10.2371 10.8475 10.2377 10.8472 10.2384C10.847 10.239 10.8468 10.2397 10.8466 10.2404C10.8464 10.241 10.8462 10.2417 10.8459 10.2423C10.8457 10.243 10.8455 10.2437 10.8453 10.2443C10.8451 10.245 10.8448 10.2456 10.8446 10.2463C10.8444 10.247 10.8442 10.2476 10.844 10.2483C10.8438 10.2489 10.8435 10.2496 10.8433 10.2503C10.8431 10.2509 10.8429 10.2516 10.8427 10.2522C10.8425 10.2529 10.8422 10.2535 10.842 10.2542C10.8418 10.2548 10.8416 10.2555 10.8414 10.2561C10.8412 10.2568 10.841 10.2575 10.8407 10.2581C10.8405 10.2588 10.8403 10.2594 10.8401 10.2601C10.8399 10.2607 10.8397 10.2614 10.8394 10.262C10.8392 10.2627 10.839 10.2633 10.8388 10.264C10.8386 10.2646 10.8384 10.2653 10.8382 10.2659C10.838 10.2666 10.8377 10.2672 10.8375 10.2678C10.8373 10.2685 10.8371 10.2691 10.8369 10.2698C10.8367 10.2704 10.8365 10.2711 10.8363 10.2717C10.836 10.2724 10.8358 10.273 10.8356 10.2736C10.8354 10.2743 10.8352 10.2749 10.835 10.2756C10.8348 10.2762 10.8346 10.2768 10.8344 10.2775C10.8341 10.2781 10.8339 10.2787 10.8337 10.2794C10.8335 10.28 10.8333 10.2806 10.8331 10.2813C10.8329 10.2819 10.8327 10.2825 10.8325 10.2832C10.8323 10.2838 10.8321 10.2844 10.8318 10.2851C10.8316 10.2857 10.8314 10.2863 10.8312 10.287C10.831 10.2876 10.8308 10.2882 10.8306 10.2888C10.8304 10.2895 10.8302 10.2901 10.83 10.2907C10.8298 10.2913 10.8296 10.292 10.8294 10.2926C10.8292 10.2932 10.829 10.2938 10.8288 10.2944C10.8286 10.2951 10.8284 10.2957 10.8281 10.2963C10.8279 10.2969 10.8277 10.2975 10.8275 10.2981C10.8273 10.2987 10.8271 10.2994 10.8269 10.3C10.8267 10.3006 10.8265 10.3012 10.8263 10.3018C10.8261 10.3024 10.8259 10.303 10.8257 10.3036C10.8255 10.3042 10.8253 10.3048 10.8251 10.3054C10.8249 10.306 10.8247 10.3066 10.8245 10.3072C10.8243 10.3078 10.8241 10.3084 10.8239 10.309C10.8237 10.3096 10.8236 10.3102 10.8234 10.3108C10.8232 10.3114 10.823 10.312 10.8228 10.3126C10.8226 10.3132 10.8224 10.3138 10.8222 10.3144C10.822 10.315 10.8218 10.3155 10.8216 10.3161C10.8214 10.3167 10.8212 10.3173 10.821 10.3179C10.8208 10.3185 10.8206 10.319 10.8205 10.3196C10.8203 10.3202 10.8201 10.3208 10.8199 10.3214C10.8197 10.3219 10.8195 10.3225 10.8193 10.3231C10.8191 10.3237 10.8189 10.3242 10.8187 10.3248C10.8186 10.3254 10.8184 10.3259 10.8182 10.3265C10.818 10.3271 10.8178 10.3276 10.8176 10.3282C10.8174 10.3287 10.8173 10.3293 10.8171 10.3299C10.8169 10.3304 10.8167 10.331 10.8165 10.3315C10.8163 10.3321 10.8162 10.3326 10.816 10.3332C10.8158 10.3338 10.8156 10.3343 10.8154 10.3348C10.8153 10.3354 10.8151 10.3359 10.8149 10.3365C10.8147 10.337 10.8145 10.3376 10.8144 10.3381C10.8142 10.3387 10.814 10.3392 10.8138 10.3397C10.8136 10.3403 10.8135 10.3408 10.8133 10.3413C10.8131 10.3419 10.8129 10.3424 10.8128 10.3429C10.8126 10.3434 10.8124 10.344 10.8123 10.3445C10.8121 10.345 10.8119 10.3455 10.8117 10.3461C10.8116 10.3466 10.8114 10.3471 10.8112 10.3476C10.8111 10.3481 10.8109 10.3486 10.8107 10.3492C10.8105 10.3497 10.8104 10.3502 10.8102 10.3507C10.81 10.3512 10.8099 10.3517 10.8097 10.3522C10.8095 10.3527 10.8094 10.3532 10.8092 10.3537C10.8091 10.3542 10.8089 10.3547 10.8087 10.3552C10.8086 10.3557 10.8084 10.3562 10.8082 10.3567C10.8081 10.3571 10.8079 10.3576 10.8078 10.3581C10.8076 10.3586 10.8074 10.3591 10.8073 10.3596C10.8071 10.36 10.807 10.3605 10.8068 10.361C10.8067 10.3615 10.8065 10.3619 10.8063 10.3624C10.8062 10.3629 10.806 10.3634 10.8059 10.3638C10.8057 10.3643 10.8056 10.3647 10.8054 10.3652C10.8053 10.3657 10.8051 10.3661 10.805 10.3666C10.8048 10.367 10.8047 10.3675 10.8045 10.3679C10.8044 10.3684 10.8042 10.3688 10.8041 10.3693C10.8039 10.3697 10.8038 10.3702 10.8036 10.3706C10.8035 10.371 10.8034 10.3715 10.8032 10.3719C10.8031 10.3723 10.8029 10.3728 10.8028 10.3732C10.8026 10.3736 10.8025 10.3741 10.8024 10.3745C10.8022 10.3749 10.8021 10.3753 10.8019 10.3758C10.8018 10.3762 10.8017 10.3766 10.8015 10.377C10.8014 10.3774 10.8013 10.3778 10.8011 10.3782C10.801 10.3786 10.8009 10.379 10.8007 10.3794C10.8006 10.3798 10.8005 10.3802 10.8003 10.3806C10.8002 10.381 10.8001 10.3814 10.7999 10.3818C10.7998 10.3822 10.7997 10.3826 10.7996 10.383C10.7994 10.3834 10.7993 10.3837 10.7992 10.3841C10.7991 10.3845 10.7989 10.3849 10.7988 10.3852C10.7987 10.3856 10.7986 10.386 10.7984 10.3864C10.7983 10.3867 10.7982 10.3871 10.7981 10.3874C10.798 10.3878 10.7979 10.3882 10.7977 10.3885C10.7976 10.3889 10.7975 10.3892 10.7974 10.3896C10.7973 10.3899 10.7972 10.3903 10.797 10.3906C10.7969 10.3909 10.7968 10.3913 10.7967 10.3916C10.7966 10.392 10.7965 10.3923 10.7964 10.3926C10.7963 10.3929 10.7962 10.3933 10.7961 10.3936C10.796 10.3939 10.7958 10.3942 10.7957 10.3946C10.7956 10.3949 10.7955 10.3952 10.7954 10.3955C10.7953 10.3958 10.7952 10.3961 10.7951 10.3964C10.795 10.3967 10.7949 10.397 10.7948 10.3973C10.7947 10.3976 10.7946 10.3979 10.7945 10.3982C10.7944 10.3985 10.7944 10.3988 10.7943 10.3991C10.7942 10.3993 10.7941 10.3996 10.794 10.3999C10.7939 10.4002 10.7938 10.4004 10.7937 10.4007C10.7936 10.401 10.7935 10.4012 10.7935 10.4015C10.7934 10.4018 10.7933 10.402 10.7932 10.4023C10.7931 10.4025 10.793 10.4028 10.7929 10.403C10.7929 10.4033 10.7928 10.4035 10.7927 10.4038C10.7926 10.404 10.7925 10.4043 10.7925 10.4045C10.7924 10.4047 10.7923 10.4049 10.7922 10.4052C10.7922 10.4054 10.7921 10.4056 10.792 10.4058C10.7919 10.4061 10.7919 10.4063 10.7918 10.4065C10.7917 10.4067 10.7917 10.4069 10.7916 10.4071C10.7915 10.4073 10.7915 10.4075 10.7914 10.4077C10.7913 10.4079 10.7913 10.4081 10.7912 10.4083C10.7912 10.4085 10.7911 10.4087 10.791 10.4089C10.791 10.409 10.7909 10.4092 10.7909 10.4094C10.7908 10.4096 10.7907 10.4097 10.7907 10.4099C10.7906 10.4101 10.7906 10.4102 10.7905 10.4104C10.7905 10.4105 10.7904 10.4107 10.7904 10.4108C10.7903 10.411 10.7903 10.4111 10.7902 10.4113C10.7902 10.4114 10.7901 10.4116 10.7901 10.4117C10.79 10.4118 10.79 10.412 10.79 10.4121C10.7899 10.4122 10.7899 10.4123 10.7898 10.4125C10.7898 10.4126 10.7898 10.4127 10.7897 10.4128C10.7897 10.4129 10.7897 10.413 10.7896 10.4131C10.7896 10.4132 10.7896 10.4133 10.7895 10.4134C10.7895 10.4135 10.7895 10.4136 10.7894 10.4137C10.7894 10.4138 10.7894 10.4138 10.7894 10.4139C10.7893 10.414 10.7893 10.4141 10.7893 10.4141C10.7893 10.4142 10.7892 10.4143 10.7892 10.4143C10.7892 10.4144 10.7892 10.4144 10.7892 10.4145C10.7892 10.4146 10.7891 10.4146 10.7891 10.4146C10.7891 10.4147 10.7891 10.4147 10.7891 10.4148C10.7891 10.4148 10.7891 10.4148 10.7891 10.4148C10.789 10.4149 10.789 10.4149 10.789 10.4149C10.789 10.4149 10.789 10.4149 10.789 10.4149C10.789 10.4149 11.4256 11.6778 12.6884 11.0413C12.6884 11.0413 12.6884 11.0413 12.6884 11.0412C12.6884 11.0412 12.6884 11.0412 12.6884 11.0412C12.6885 11.0412 12.6885 11.0412 12.6885 11.0411C12.6885 11.0411 12.6885 11.0411 12.6885 11.041C12.6885 11.041 12.6885 11.0409 12.6885 11.0409C12.6886 11.0408 12.6886 11.0408 12.6886 11.0407C12.6886 11.0407 12.6886 11.0406 12.6887 11.0405C12.6887 11.0405 12.6887 11.0404 12.6887 11.0403C12.6888 11.0403 12.6888 11.0402 12.6888 11.0401C12.6888 11.04 12.6889 11.0399 12.6889 11.0398C12.6889 11.0397 12.689 11.0396 12.689 11.0395C12.689 11.0394 12.6891 11.0393 12.6891 11.0392C12.6891 11.0391 12.6892 11.039 12.6892 11.0388C12.6893 11.0387 12.6893 11.0386 12.6893 11.0385C12.6894 11.0383 12.6894 11.0382 12.6895 11.038C12.6895 11.0379 12.6896 11.0377 12.6896 11.0376C12.6897 11.0374 12.6897 11.0373 12.6898 11.0371C12.6898 11.037 12.6899 11.0368 12.69 11.0366C12.69 11.0364 12.6901 11.0363 12.6901 11.0361C12.6902 11.0359 12.6903 11.0357 12.6903 11.0355C12.6904 11.0353 12.6905 11.0351 12.6905 11.0349C12.6906 11.0347 12.6907 11.0345 12.6907 11.0343C12.6908 11.0341 12.6909 11.0338 12.6909 11.0336C12.691 11.0334 12.6911 11.0332 12.6912 11.0329C12.6912 11.0327 12.6913 11.0325 12.6914 11.0322C12.6915 11.032 12.6916 11.0317 12.6917 11.0315C12.6917 11.0312 12.6918 11.0309 12.6919 11.0307C12.692 11.0304 12.6921 11.0301 12.6922 11.0299C12.6923 11.0296 12.6924 11.0293 12.6925 11.029C12.6926 11.0287 12.6927 11.0284 12.6928 11.0281C12.6929 11.0278 12.693 11.0275 12.6931 11.0272C12.6932 11.0269 12.6933 11.0266 12.6934 11.0263C12.6935 11.0259 12.6936 11.0256 12.6937 11.0253C12.6938 11.0249 12.6939 11.0246 12.694 11.0243C12.6941 11.0239 12.6943 11.0236 12.6944 11.0232C12.6945 11.0229 12.6946 11.0225 12.6947 11.0221C12.6948 11.0218 12.695 11.0214 12.6951 11.021C12.6952 11.0206 12.6953 11.0203 12.6955 11.0199C12.6956 11.0195 12.6957 11.0191 12.6959 11.0187C12.696 11.0183 12.6961 11.0179 12.6963 11.0175C12.6964 11.0171 12.6965 11.0167 12.6967 11.0162C12.6968 11.0158 12.697 11.0154 12.6971 11.015C12.6972 11.0145 12.6974 11.0141 12.6975 11.0136C12.6977 11.0132 12.6978 11.0127 12.698 11.0123C12.6981 11.0118 12.6983 11.0114 12.6984 11.0109C12.6986 11.0104 12.6987 11.0099 12.6989 11.0095C12.6991 11.009 12.6992 11.0085 12.6994 11.008C12.6996 11.0075 12.6997 11.007 12.6999 11.0065C12.7 11.006 12.7002 11.0055 12.7004 11.005C12.7006 11.0045 12.7007 11.0039 12.7009 11.0034C12.7011 11.0029 12.7013 11.0024 12.7014 11.0018C12.7016 11.0013 12.7018 11.0007 12.702 11.0002C12.7022 10.9996 12.7023 10.9991 12.7025 10.9985C12.7027 10.9979 12.7029 10.9974 12.7031 10.9968C12.7033 10.9962 12.7035 10.9956 12.7037 10.995C12.7039 10.9944 12.7041 10.9939 12.7043 10.9933C12.7045 10.9927 12.7047 10.992 12.7049 10.9914C12.7051 10.9908 12.7053 10.9902 12.7055 10.9896C12.7057 10.9889 12.7059 10.9883 12.7061 10.9877C12.7063 10.987 12.7065 10.9864 12.7067 10.9857C12.7069 10.9851 12.7072 10.9844 12.7074 10.9838C12.7076 10.9831 12.7078 10.9824 12.708 10.9817C12.7083 10.9811 12.7085 10.9804 12.7087 10.9797C12.709 10.979 12.7092 10.9783 12.7094 10.9776C12.7096 10.9769 12.7099 10.9762 12.7101 10.9755C12.7103 10.9748 12.7106 10.974 12.7108 10.9733C12.7111 10.9726 12.7113 10.9718 12.7116 10.9711C12.7118 10.9704 12.712 10.9696 12.7123 10.9689C12.7125 10.9681 12.7128 10.9673 12.713 10.9666C12.7133 10.9658 12.7136 10.965 12.7138 10.9643C12.7141 10.9635 12.7143 10.9627 12.7146 10.9619C12.7149 10.9611 12.7151 10.9603 12.7154 10.9595C12.7157 10.9587 12.7159 10.9579 12.7162 10.957C12.7165 10.9562 12.7167 10.9554 12.717 10.9546C12.7173 10.9537 12.7176 10.9529 12.7178 10.952C12.7181 10.9512 12.7184 10.9503 12.7187 10.9495C12.719 10.9486 12.7193 10.9477 12.7196 10.9469C12.7198 10.946 12.7201 10.9451 12.7204 10.9442C12.7207 10.9433 12.721 10.9424 12.7213 10.9415C12.7216 10.9406 12.7219 10.9397 12.7222 10.9388C12.7225 10.9379 12.7228 10.937 12.7231 10.936C12.7234 10.9351 12.7237 10.9342 12.7241 10.9332C12.7244 10.9323 12.7247 10.9313 12.725 10.9304C12.7253 10.9294 12.7256 10.9284 12.7259 10.9275C12.7263 10.9265 12.7266 10.9255 12.7269 10.9245C12.7272 10.9235 12.7276 10.9225 12.7279 10.9215C12.7282 10.9205 12.7286 10.9195 12.7289 10.9185C12.7292 10.9175 12.7296 10.9165 12.7299 10.9154C12.7303 10.9144 12.7306 10.9134 12.7309 10.9123C12.7313 10.9113 12.7316 10.9102 12.732 10.9092C12.7323 10.9081 12.7327 10.907 12.733 10.906C12.7334 10.9049 12.7337 10.9038 12.7341 10.9027C12.7345 10.9016 12.7348 10.9006 12.7352 10.8994C12.7355 10.8983 12.7359 10.8972 12.7363 10.8961C12.7367 10.895 12.737 10.8939 12.7374 10.8927C12.7378 10.8916 12.7381 10.8905 12.7385 10.8893C12.7389 10.8882 12.7393 10.887 12.7397 10.8859C12.74 10.8847 12.7404 10.8835 12.7408 10.8824C12.7412 10.8812 12.7416 10.88 12.742 10.8788C12.7424 10.8776 12.7428 10.8764 12.7432 10.8752C12.7436 10.874 12.744 10.8728 12.7444 10.8716C12.7448 10.8703 12.7452 10.8691 12.7456 10.8679C12.746 10.8666 12.7464 10.8654 12.7468 10.8641C12.7472 10.8629 12.7477 10.8616 12.7481 10.8604C12.7485 10.8591 12.7489 10.8578 12.7493 10.8565C12.7498 10.8553 12.7502 10.854 12.7506 10.8527C12.751 10.8514 12.7515 10.8501 12.7519 10.8487C12.7523 10.8474 12.7528 10.8461 12.7532 10.8448L10.8538 10.2185Z" fill="black" mask="url(#path-1-outside-1_221_62)"/>
</svg>
