<svg width="17" height="15" viewBox="0 0 17 15" fill="none" xmlns="http://www.w3.org/2000/svg">
<path d="M1.32603 3.41637L1.11047 3.1791V3.49966V10.317C1.11047 10.7636 1.45428 11.0841 1.82808 11.0841H7.32015C7.66164 11.0841 7.93845 11.3609 7.93845 11.7024C7.93845 12.0439 7.66164 12.3207 7.32015 12.3207H1.82808C0.728243 12.3207 -0.126132 11.4027 -0.126132 10.317V2.69738C-0.126132 2.25505 0.0143877 1.84288 0.254545 1.50894C0.605931 1.02034 1.17653 0.693692 1.82808 0.693692H12.5153C13.1669 0.693692 13.7375 1.02034 14.0889 1.50894C14.3291 1.84287 14.4696 2.25505 14.4696 2.69738V6.60613C14.4696 6.94762 14.1927 7.22443 13.8513 7.22443C13.5098 7.22443 13.233 6.94762 13.233 6.60613V3.49966V3.1791L13.0174 3.41637L8.72802 8.13802C7.89369 9.05639 6.4497 9.05639 5.61539 8.13802L1.32603 3.41637ZM6.53069 7.30645C6.87433 7.68474 7.46911 7.68474 7.81275 7.30646L12.5085 2.13746L12.6967 1.9303H12.4169H1.92657H1.64669L1.83488 2.13746L6.53069 7.30645ZM14.286 11.0841H14.5851L14.3736 10.8726L13.4141 9.91308C13.1726 9.67164 13.1726 9.28012 13.4141 9.03868C13.6555 8.79723 14.047 8.79723 14.2885 9.03868L16.515 11.2652C16.7564 11.5066 16.7564 11.8981 16.515 12.1396L14.2885 14.3661C14.047 14.6076 13.6555 14.6076 13.4141 14.3661C13.1726 14.1247 13.1726 13.7331 13.4141 13.4917L14.3736 12.5322L14.5851 12.3207H14.286H10.8826C10.5411 12.3207 10.2643 12.0439 10.2643 11.7024C10.2643 11.3609 10.5411 11.0841 10.8826 11.0841H14.286Z" fill="#263238" stroke="white" stroke-width="0.247736"/>
</svg>
