<svg width="360" height="117" viewBox="0 0 360 117" fill="none" xmlns="http://www.w3.org/2000/svg">
<g filter="url(#filter0_d_340_2456)">
<g clip-path="url(#clip0_340_2456)">
<rect x="20" y="6.58008" width="320" height="90" rx="10" fill="#F4F3FF"/>
<circle cx="302" cy="52" r="61" fill="#E8E6FF"/>
<path d="M288.234 73.8527L283.418 82.568L283.814 61.4068C283.905 60.0625 284.366 58.768 285.149 57.6622C285.481 57.1658 285.869 56.7086 286.308 56.2997C286.874 55.8288 287.631 55.2326 288.149 55.032C288.792 54.7812 288.812 53.9036 288.214 53.7503C287.616 53.5971 285.826 54.2435 284.268 55.8149C282.71 57.3863 283.061 53.9899 283.169 52.7501C283.276 51.5102 283.421 47.6653 283.058 47.3421C282.528 46.8656 281.897 47.3421 281.82 48.5903C281.744 49.8385 281.253 53.5358 280.582 53.4661C279.911 53.3965 280.559 47.0941 280.559 47.0941C280.559 47.0941 280.916 45.7623 280.154 45.6564C278.777 45.4642 278.61 52.2012 278.61 52.8448C278.61 53.2906 277.888 53.2405 277.913 52.7612C277.939 52.282 278.69 46.4812 277.29 46.275C276.216 46.1162 277.1 51.8167 276.267 52.9618C275.434 54.107 276.046 48.5597 275.012 48.4482C274.63 48.4064 274.335 48.4287 274.446 51.644C274.508 53.3742 275.296 55.9598 275.154 59.2977L275.12 60.1614C274.307 66.4052 270.644 99.1625 283.254 98.2737C283.254 98.2737 292.821 96.967 298.138 79.8431L288.234 73.8527Z" fill="#FFBE9D"/>
<path d="M277.443 57.8624C277.443 57.8931 277.655 57.9182 277.97 58.0798C278.393 58.2948 278.724 58.6529 278.902 59.0884L279.001 59.3363L279.111 59.0939C279.27 58.748 279.492 58.4336 279.766 58.1661C280.293 57.6384 280.971 57.28 281.709 57.138C282.276 57.0238 282.644 57.0879 282.65 57.0433C282.34 56.9309 282.004 56.9058 281.681 56.9708C280.886 57.0722 280.149 57.4345 279.59 57.999C279.299 58.2886 279.066 58.6299 278.904 59.0048H279.114C279.012 58.768 278.864 58.5533 278.678 58.3731C278.492 58.1928 278.271 58.0505 278.029 57.9544C277.848 57.863 277.643 57.8308 277.443 57.8624Z" fill="#EB996E"/>
<path d="M345.75 77.9232L351.107 87.8477L356 97.1034H344.937L338.081 83.2086" fill="#FFBE9D"/>
<path d="M303.79 97.1034C304.844 93.5733 304.153 93.016 303.02 89.511L300.583 81.9883L295.252 89.7339L283.917 80.7735L287.676 72.4344C294.699 56.7816 306.091 57.8933 306.091 57.8933L320.607 55.1684C320.607 55.1684 329.894 54.3325 335.905 59.6987C337.866 61.4485 346.77 77.2128 346.77 77.2128L335.829 84.7522L333.146 80.2525L332.404 86.3682C331.82 89.7116 331.857 93.9661 333.146 97.1034" fill="#455A64"/>
<path d="M302.526 63.2204C302.526 63.2594 300.138 63.7776 297.178 64.3767C294.217 64.9757 291.795 65.4298 291.795 65.3908C291.795 65.3518 294.18 64.8336 297.144 64.2346C300.107 63.6355 302.518 63.1758 302.526 63.2204Z" fill="#FAFAFA"/>
<path d="M334.446 58.7125C334.446 58.7543 332.103 59.214 329.194 59.7406C326.284 60.2672 323.922 60.6656 323.913 60.6238C323.905 60.582 326.259 60.1251 329.168 59.5985C332.078 59.0719 334.441 58.6735 334.446 58.7125Z" fill="#FAFAFA"/>
<path d="M338.919 63.8085C338.919 63.8475 335.273 64.6443 330.757 65.6111C326.241 66.578 322.575 67.3107 322.567 67.2829C322.558 67.255 326.21 66.447 330.726 65.4802C335.242 64.5134 338.899 63.7778 338.919 63.8085Z" fill="#FAFAFA"/>
<path d="M343.393 71.6628L343.24 71.6934L342.792 71.7714L341.061 72.05L334.696 73.0754L313.68 76.3909C305.465 77.6698 298.034 78.8093 292.645 79.6062C289.954 80.0074 287.772 80.3195 286.262 80.5256C285.509 80.6259 284.922 80.7012 284.523 80.743C284.324 80.7856 284.119 80.7969 283.917 80.7764C284.119 80.7732 284.321 80.7527 284.52 80.7151L286.254 80.4699L292.631 79.5059L313.658 76.246L334.67 72.9723L341.044 71.9915L342.778 71.7324L343.231 71.6683L343.393 71.6628Z" fill="#FAFAFA"/>
<path d="M332.703 83.8604C332.703 83.8994 325.955 84.7993 317.623 85.8665C309.291 86.9336 302.532 87.7666 302.526 87.7276C302.52 87.6886 309.272 86.7915 317.606 85.7216C325.941 84.6517 332.686 83.8214 332.703 83.8604Z" fill="#FAFAFA"/>
<path d="M331.414 94.2921C331.414 94.3339 325.374 94.3283 317.929 94.2921C310.484 94.2559 304.441 94.1807 304.441 94.1389C304.441 94.0971 310.478 94.1027 317.929 94.1389C325.38 94.1751 331.414 94.2531 331.414 94.2921Z" fill="#FAFAFA"/>
<path d="M306.677 69.6677C306.613 69.6882 306.548 69.7022 306.481 69.7095L305.915 69.8015L303.847 70.1247C302.099 70.4033 299.688 70.7961 297.047 71.2837C294.407 71.7713 291.999 72.2589 290.268 72.6239L288.208 73.0557L287.642 73.17C287.577 73.1873 287.511 73.1976 287.443 73.2006C287.505 73.1749 287.568 73.1553 287.633 73.1421L288.208 73C288.69 72.883 289.387 72.7214 290.248 72.5236C291.973 72.1307 294.365 71.6292 297.022 71.1305C299.679 70.6317 302.093 70.264 303.844 70.016C304.722 69.8906 305.43 69.7959 305.923 69.7374L306.49 69.6733C306.552 69.6653 306.614 69.6635 306.677 69.6677Z" fill="#FAFAFA"/>
<path d="M319.139 24.7071C318.791 28.8362 324.417 31.7673 323.916 35.8797C323.777 37.022 323.174 38.2647 323.788 39.2454C324.525 40.424 326.318 40.176 327.627 40.6859C329.239 41.3128 330.063 43.2213 329.82 44.907C329.576 46.5926 328.466 48.0498 327.16 49.1726C325.098 50.9454 322.521 52.0344 319.794 52.2848C318.53 52.3963 317.21 52.3071 316.083 51.7276C314.955 51.1481 314.063 50.0308 314.057 48.7826" fill="#263238"/>
<path d="M319.695 57.5364C318.947 54.0119 318.224 50.2923 318.224 50.2923C318.224 50.2923 322.675 48.576 322.355 42.4603C322.052 36.626 318.298 23.7928 318.298 23.7928C311.088 22.514 303.606 25.9243 299.997 32.1514L306.55 60.6653C307.309 63.9753 310.799 65.9591 314.405 65.1427C318.04 64.2902 320.406 60.8938 319.695 57.5364Z" fill="#FFBE9D"/>
<path d="M318.785 34.3278C318.829 34.5253 318.793 34.7317 318.685 34.9033C318.576 35.0749 318.404 35.1983 318.205 35.2473C318.108 35.2756 318.007 35.2846 317.907 35.2738C317.807 35.2629 317.71 35.2325 317.622 35.1841C317.534 35.1358 317.457 35.0707 317.395 34.9925C317.333 34.9143 317.287 34.8247 317.261 34.7291C317.216 34.5331 317.25 34.3277 317.356 34.1557C317.461 33.9838 317.631 33.8588 317.828 33.8068C317.926 33.7768 318.028 33.7665 318.13 33.7766C318.232 33.7868 318.331 33.8171 318.42 33.8658C318.51 33.9145 318.588 33.9806 318.651 34.06C318.714 34.1394 318.759 34.2305 318.785 34.3278Z" fill="#263238"/>
<path d="M319.654 33.5615C319.58 33.6813 318.903 33.3776 318.073 33.5615C317.243 33.7454 316.722 34.272 316.611 34.1912C316.558 34.1549 316.611 33.9571 316.841 33.7119C317.144 33.3933 317.54 33.1743 317.974 33.085C318.405 32.9934 318.855 33.0392 319.257 33.216C319.558 33.3469 319.682 33.5085 319.654 33.5615Z" fill="#263238"/>
<path d="M310.307 36.2417C310.352 36.4376 310.318 36.6431 310.212 36.815C310.106 36.9869 309.937 37.112 309.74 37.1639C309.643 37.1918 309.542 37.2004 309.442 37.1892C309.341 37.178 309.245 37.1472 309.157 37.0987C309.069 37.0502 308.992 36.9848 308.93 36.9066C308.868 36.8283 308.823 36.7387 308.797 36.6429C308.752 36.4473 308.786 36.2422 308.891 36.0708C308.997 35.8993 309.166 35.7748 309.363 35.7235C309.46 35.6951 309.561 35.6861 309.661 35.697C309.761 35.7078 309.858 35.7383 309.946 35.7866C310.034 35.8349 310.111 35.9001 310.173 35.9782C310.235 36.0564 310.28 36.146 310.307 36.2417Z" fill="#263238"/>
<path d="M311.155 35.4673C311.082 35.5843 310.405 35.2806 309.575 35.4673C308.744 35.654 308.226 36.1778 308.113 36.097C308.059 36.0636 308.113 35.863 308.342 35.6178C308.647 35.3007 309.042 35.082 309.475 34.9909C309.907 34.9003 310.358 34.9462 310.762 35.1218C311.073 35.2528 311.201 35.4116 311.155 35.4673Z" fill="#263238"/>
<path d="M315.57 40.747C315.556 40.6996 316.054 40.5046 316.868 40.2259C317.074 40.1591 317.267 40.0783 317.273 39.9278C317.241 39.7082 317.142 39.5032 316.989 39.3399L316.02 37.8827C314.661 35.8015 313.629 34.074 313.717 34.0211C313.805 33.9681 314.972 35.612 316.329 37.6905L317.276 39.1616C317.461 39.3869 317.561 39.6686 317.559 39.9585C317.544 40.0382 317.511 40.1136 317.461 40.1788C317.412 40.244 317.349 40.2973 317.276 40.3346C317.165 40.3907 317.048 40.4328 316.927 40.46C316.105 40.6801 315.584 40.7915 315.57 40.747Z" fill="#263238"/>
<path d="M318.239 50.2927C315.419 50.9214 312.477 50.77 309.74 49.8552C309.74 49.8552 312.573 53.5135 318.474 51.7053L318.239 50.2927Z" fill="#EB996E"/>
<path d="M315.942 43.1065C315.786 42.9023 315.58 42.7406 315.343 42.6366C315.105 42.5325 314.845 42.4897 314.587 42.5121C314.399 42.5225 314.215 42.5705 314.047 42.6533C313.879 42.736 313.73 42.8517 313.609 42.9933C313.491 43.1285 313.418 43.2963 313.4 43.4737C313.383 43.6512 313.421 43.8296 313.511 43.9847C313.642 44.1354 313.815 44.2448 314.009 44.2991C314.203 44.3534 314.409 44.3502 314.602 44.2899C315.005 44.1638 315.38 43.9607 315.704 43.6922C315.799 43.6311 315.883 43.5538 315.95 43.4639C315.983 43.4184 316.001 43.3641 316.003 43.3082C316.004 43.2522 315.988 43.1972 315.957 43.1503" fill="#FF725E"/>
<path d="M313.04 42.2414C313.161 42.1718 313.581 42.9786 314.58 43.2027C315.58 43.4267 316.406 42.8974 316.468 42.9937C316.506 43.0383 316.355 43.2483 315.989 43.443C315.511 43.691 314.96 43.7647 314.433 43.6512C313.927 43.544 313.484 43.2467 313.198 42.8227C313.001 42.5084 312.982 42.2654 313.04 42.2414Z" fill="#263238"/>
<path d="M303.614 38.2004C302.939 38.199 302.277 38.3813 301.702 38.727C301.129 39.079 300.721 39.6401 300.568 40.2873C300.449 40.9448 300.589 41.6223 300.959 42.1819C301.33 42.7361 301.821 43.2017 302.399 43.5444C302.794 43.8186 303.251 43.9963 303.73 44.0626C303.97 44.0942 304.214 44.0667 304.441 43.9826C304.667 43.8984 304.869 43.7603 305.028 43.5806" fill="#FFBE9D"/>
<path d="M304.073 42.1122C304.152 42.1122 303.954 42.5608 303.333 42.5273C302.998 42.4861 302.692 42.3158 302.483 42.0537C302.237 41.7645 302.051 41.4302 301.937 41.0701C301.805 40.6889 301.816 40.2738 301.968 39.8999C302.031 39.7406 302.13 39.5977 302.259 39.4822C302.387 39.3667 302.54 39.2818 302.707 39.234C303.311 39.0947 303.586 39.4681 303.52 39.4932C303.455 39.5182 303.2 39.3873 302.826 39.5628C302.452 39.7383 302.197 40.3039 302.418 40.9253C302.639 41.5466 303.013 42.1038 303.399 42.179C303.784 42.2543 304.033 42.0676 304.073 42.1122Z" fill="#EB996E"/>
<path d="M316.538 22.4863C316.976 23.333 317.123 24.2962 316.957 25.2319C316.792 26.1675 316.323 27.0254 315.62 27.677C314.181 28.9503 312.096 29.1314 310.238 29.6636C308.379 30.1957 306.387 31.5415 306.472 33.4444C306.523 34.5979 307.356 35.7068 307.056 36.8213C306.708 38.128 305.011 38.6853 304.532 39.9502C303.764 41.9841 306.574 43.8146 306.45 45.9795C306.376 47.264 305.271 48.3116 305.149 49.6016C304.974 51.4237 306.793 53.3602 305.781 54.8953C305.005 56.0767 303.198 55.9067 301.872 55.3941C300.546 54.8814 299.095 54.1514 297.767 54.6641C296.968 54.9706 296.404 55.6727 295.693 56.1463C295.044 56.5798 294.278 56.8141 293.493 56.8195C292.708 56.8249 291.94 56.6012 291.284 56.1767C290.629 55.7522 290.116 55.146 289.811 54.4349C289.506 53.7237 289.422 52.9395 289.571 52.1816C289.786 51.0671 290.472 50.1115 291.024 49.1168C291.577 48.1221 292.016 46.9603 291.684 45.8764C291.426 45.0406 290.763 44.4109 290.237 43.7143C289.71 43.0178 289.299 42.1011 289.639 41.3015C290.234 39.8945 292.514 40.0171 293.341 38.7298C294.475 36.9606 291.846 34.7094 292.52 32.7256C293.285 30.4799 297.336 30.8811 298.107 28.6355C298.39 27.8191 298.107 26.9192 298.183 26.061C298.384 24.1107 300.478 22.843 302.452 22.5058C304.427 22.1687 306.489 22.4194 308.427 21.9179C309.487 21.6393 310.478 21.1462 311.521 20.8035C312.563 20.4608 313.719 20.2908 314.75 20.6669C315.782 21.0431 316.606 22.1046 316.399 23.1745" fill="#263238"/>
<path d="M315.646 26.6709C316.22 27.6467 317.013 28.4804 317.964 29.1083C318.916 29.7361 320.001 30.1413 321.137 30.2929C321.1 28.7995 321.021 27.295 320.61 25.8601C320.199 24.4252 319.429 23.0349 318.239 22.1238C317.049 21.2127 315.366 20.8338 313.955 21.3771" fill="#263238"/>
<path d="M322.941 55.3106C323.454 55.3775 326.321 71.9164 315.315 73.7525C304.898 75.4938 301.677 58.5008 301.677 58.5008C301.677 58.5008 308.694 53.4383 322.941 55.3106Z" fill="#FFBE9D"/>
<path d="M316.635 32.6673C316.7 32.7871 317.267 32.6088 317.972 32.5308C318.678 32.4528 319.267 32.4918 319.301 32.3608C319.335 32.2299 318.735 31.9624 317.916 32.0571C317.097 32.1518 316.57 32.5726 316.635 32.6673Z" fill="#263238"/>
<path d="M308.224 33.9485C308.249 33.9263 308.246 33.8789 308.224 33.8037V33.929C308.631 33.7257 309.06 33.5705 309.504 33.4665C310.286 33.2994 310.949 33.4833 311.003 33.3579C311.026 33.2994 310.884 33.1684 310.595 33.0793C310.213 32.9513 309.802 32.9282 309.408 33.0124C309.147 33.0516 308.897 33.1427 308.673 33.2802C308.449 33.4177 308.255 33.5986 308.105 33.812L308.054 33.9123L308.096 33.9346C308.153 33.9653 308.201 33.9653 308.224 33.9485Z" fill="#263238"/>
<path d="M303.47 33.4667C302.828 33.4745 302.186 33.4344 301.549 33.3469C300.909 33.3083 300.272 33.2198 299.646 33.0823C300.288 33.0746 300.93 33.1146 301.566 33.2021C302.207 33.2429 302.843 33.3314 303.47 33.4667Z" fill="#FF725E"/>
<path d="M302.535 34.5227C302.058 34.6249 301.567 34.6513 301.082 34.6007C300.594 34.5995 300.11 34.5214 299.648 34.3695C299.648 34.3304 300.297 34.414 301.09 34.4558C301.883 34.4976 302.532 34.4781 302.535 34.5227Z" fill="#FF725E"/>
<path d="M316.633 25.8604C316.621 25.9201 316.602 25.9782 316.576 26.0332C316.507 26.1942 316.411 26.3429 316.293 26.4734C315.82 26.9275 315.196 27.1986 314.536 27.2368C314.089 27.286 313.636 27.2785 313.191 27.2145C312.712 27.156 312.205 27.0696 311.672 27.0306C311.119 26.9688 310.559 27.0287 310.032 27.2061C309.484 27.4389 309.01 27.8134 308.661 28.29C308.273 28.7636 307.947 29.2707 307.564 29.7193C307.376 29.941 307.166 30.1443 306.938 30.3267C306.714 30.4969 306.468 30.6374 306.207 30.7446C305.723 30.9216 305.222 31.0495 304.711 31.1263C304.274 31.1922 303.843 31.2938 303.422 31.43C302.813 31.618 302.292 32.0131 301.952 32.5445C301.847 32.7499 301.783 32.973 301.762 33.202C301.754 33.1419 301.754 33.081 301.762 33.0209C301.78 32.8467 301.829 32.677 301.907 32.5194C302.235 31.9532 302.763 31.5257 303.391 31.3186C303.816 31.1742 304.252 31.0652 304.694 30.9926C305.195 30.9137 305.686 30.7839 306.159 30.6053C306.67 30.387 307.117 30.0459 307.459 29.6134C307.833 29.176 308.156 28.6661 308.55 28.1841C308.919 27.693 309.415 27.3082 309.986 27.0696C310.533 26.8878 311.113 26.8278 311.686 26.8941C312.771 26.9888 313.72 27.2424 314.519 27.1337C315.163 27.1122 315.778 26.8674 316.256 26.4427C316.412 26.269 316.539 26.0726 316.633 25.8604Z" fill="#455A64"/>
<path d="M292.99 56.3999C293.075 56.3822 293.16 56.3589 293.242 56.3303C293.47 56.2272 293.65 56.0431 293.746 55.8148C293.904 55.4541 293.912 55.0473 293.769 54.6808C293.633 54.2462 293.37 53.7837 293.168 53.232C292.651 51.9463 292.511 50.5438 292.763 49.1837C292.936 48.3833 293.29 47.6317 293.8 46.9854C294.074 46.6462 294.394 46.3462 294.752 46.0938C295.124 45.8441 295.526 45.6392 295.948 45.4836C296.36 45.3388 296.744 45.1237 297.081 44.8483C297.23 44.7082 297.347 44.5375 297.422 44.3484C297.498 44.1592 297.53 43.9561 297.517 43.7534C297.469 42.9426 297.018 42.1987 297.033 41.3962C297.04 41.0065 297.143 40.6242 297.333 40.2818C297.509 39.9673 297.726 39.6769 297.979 39.4181C298.435 38.9662 298.922 38.5446 299.435 38.1559C300.342 37.4203 300.905 36.6207 301.055 35.991C301.133 35.6648 301.133 35.3254 301.055 34.9991C301.067 35.0191 301.074 35.0408 301.078 35.0632C301.078 35.105 301.109 35.1691 301.126 35.2527C301.168 35.5027 301.159 35.7582 301.101 36.005C301.004 36.3941 300.83 36.7605 300.588 37.0832C300.273 37.5093 299.905 37.8957 299.494 38.2339C298.99 38.6254 298.511 39.0479 298.061 39.4989C297.818 39.7501 297.608 40.031 297.438 40.3347C297.261 40.6571 297.164 41.016 297.154 41.3823C297.169 41.7698 297.242 42.153 297.373 42.5191C297.515 42.9117 297.61 43.3194 297.656 43.7339C297.671 43.9572 297.636 44.181 297.553 44.3895C297.47 44.598 297.342 44.786 297.177 44.9403C296.828 45.2282 296.43 45.4528 296.001 45.6034C295.59 45.7647 295.199 45.9733 294.837 46.2247C294.49 46.4692 294.179 46.7599 293.913 47.0884C293.415 47.7165 293.068 48.4469 292.896 49.2255C292.645 50.5616 292.772 51.9401 293.265 53.2097C293.457 53.767 293.715 54.2211 293.848 54.6725C293.913 54.8819 293.943 55.1001 293.939 55.3189C293.93 55.5046 293.883 55.6867 293.8 55.8538C293.693 56.0895 293.497 56.2752 293.253 56.3721C293.169 56.4017 293.079 56.4112 292.99 56.3999Z" fill="#455A64"/>
<path d="M328.983 75.5517H324.017V81.4483H328.983V75.5517Z" fill="#F5F5F5"/>
<path d="M322.674 75.5517C322.302 75.5517 322 75.8534 322 76.2257V80.7742C322 81.1465 322.302 81.4482 322.674 81.4482H324.017V75.5517H322.674Z" fill="#FF4B55"/>
<path d="M330.326 75.5517H328.983V81.4482H330.326C330.698 81.4482 331 81.1464 331 80.7742V76.2257C331 75.8534 330.698 75.5517 330.326 75.5517Z" fill="#FF4B55"/>
<path d="M327.442 79.1813L328.362 78.6551L328.151 78.5495C328.092 78.5198 328.058 78.4558 328.067 78.3902L328.136 77.8747L327.746 77.9881C327.66 78.0132 327.57 77.9602 327.551 77.8727L327.513 77.7039L327.147 78.1323C327.097 78.1917 327 78.1463 327.013 78.0693L327.17 77.1604L326.93 77.2259C326.86 77.245 326.787 77.2132 326.752 77.1492L326.5 76.6769V76.6762L326.5 76.6765L326.5 76.6762V76.6769L326.248 77.1492C326.214 77.2132 326.14 77.245 326.07 77.2259L325.831 77.1604L325.987 78.0693C326 78.1463 325.904 78.1917 325.853 78.1323L325.487 77.7039L325.45 77.8727C325.43 77.9603 325.341 78.0132 325.255 77.9882L324.865 77.8747L324.934 78.3902C324.942 78.4558 324.909 78.5198 324.849 78.5495L324.638 78.6551L325.559 79.1813C325.654 79.2358 325.696 79.3514 325.657 79.4543L325.579 79.6648L326.368 79.5974C326.411 79.5937 326.449 79.6289 326.447 79.6727L326.422 80.5172H326.578L326.553 79.6726C326.551 79.6288 326.589 79.5937 326.632 79.5974L327.422 79.6648L327.343 79.4543C327.304 79.3514 327.346 79.2357 327.442 79.1813Z" fill="#FF4B55"/>
<g clip-path="url(#clip1_340_2456)">
<path d="M50.2136 39.8106C49.9998 39.2961 49.7377 38.7091 49.6412 38.5062L49.4688 38.1222H47.6481H45.8274L45.9377 37.912C45.9929 37.7961 46.1033 37.5207 46.186 37.2961L46.3239 36.8903H47.6343C48.3515 36.8903 48.9377 36.8758 48.9377 36.8613C48.9377 36.8323 48.7239 36.3178 48.4205 35.6222C47.6136 33.7743 47.655 33.912 47.7998 33.499C47.8688 33.3106 47.9998 33.0135 48.0895 32.8395C48.1791 32.6656 48.2481 32.4772 48.2481 32.4193C48.2481 32.2671 48.4067 32.3468 48.5101 32.5497C48.6412 32.8251 49.4895 34.7236 49.4895 34.7526C49.4895 34.7816 49.7446 35.3395 50.6274 37.2888C50.8205 37.7308 51.0757 38.2888 51.1791 38.5424C51.2826 38.7888 51.3929 38.9917 51.4136 38.9917C51.5101 38.9917 52.5377 37.854 52.7722 37.4772C53.4205 36.4627 53.7033 35.4627 53.7033 34.2091C53.7033 33.2453 53.5653 32.5135 53.2481 31.7888C52.517 30.1077 51.2757 28.9555 49.6067 28.412C48.3377 27.9917 47.3515 27.9627 46.1446 28.3106C45.3239 28.5497 45.1929 28.6004 44.6274 28.9482C44.0688 29.2961 44.0826 29.2816 43.4619 29.8758C42.7722 30.5424 42.3101 31.2961 41.9515 32.354C41.7377 32.9917 41.7308 33.0497 41.7308 34.1729C41.7308 35.3178 41.7308 35.3395 41.9722 36.0207C42.2067 36.7019 42.4274 37.1729 42.6964 37.5714C42.9446 37.9482 43.4412 38.4845 43.5308 38.4845C43.5791 38.4845 43.7584 38.2308 43.9377 37.9265C44.1101 37.6149 44.317 37.2816 44.386 37.1801C44.455 37.0787 44.8274 36.4917 45.2067 35.8758C45.5929 35.2598 45.9377 34.7019 45.9722 34.6439C46.0136 34.5859 46.117 34.412 46.1998 34.2671C46.2826 34.1222 46.586 33.6294 46.8688 33.1801C47.1584 32.7308 47.5308 32.1294 47.6964 31.8395C48.0964 31.1729 48.2412 31.1439 47.9584 31.8033C47.8412 32.0714 47.6688 32.47 47.5791 32.6874C47.4895 32.9048 47.3515 33.2164 47.2826 33.3758C47.2136 33.5352 47.0205 33.9772 46.8688 34.354C46.3653 35.5497 45.6964 37.1294 45.5584 37.4337C45.4826 37.5932 45.1998 38.2453 44.9308 38.883C44.0895 40.8903 44.1515 40.8033 43.786 40.4917C43.6826 40.4048 43.4619 40.2381 43.3101 40.1366C43.1515 40.0279 42.7722 39.6874 42.4757 39.3758C41.6619 38.5352 41.186 37.8033 40.8274 36.8178C40.4964 35.9193 40.4826 35.8613 40.386 34.8903C40.2136 33.1511 40.6826 31.3323 41.6688 29.912L41.9722 29.47V27.6656V25.8613L42.1308 25.8975C42.2136 25.9193 42.655 26.0207 43.1101 26.1294C43.5653 26.2308 44.386 26.4265 44.9377 26.5642C46.8067 27.0207 46.5377 26.8685 44.1101 26.0932C43.7101 25.97 43.3101 25.8395 43.2136 25.8033C43.117 25.7671 42.8136 25.6729 42.5308 25.5859C42.255 25.499 42.0481 25.4048 42.0826 25.3758C42.117 25.3395 42.7377 25.2236 43.455 25.1222C44.1791 25.0135 44.8619 24.8975 44.9722 24.8613C45.0895 24.8251 45.6136 24.7308 46.1515 24.6511C47.1102 24.5062 47.1239 24.5062 47.3929 24.6439C47.9101 24.9193 48.3998 24.5642 48.2826 23.999C48.2274 23.7164 48.0136 23.5569 47.6895 23.5569C47.4757 23.5569 47.3929 23.6004 47.2274 23.8178C46.9998 24.1004 47.055 24.0859 44.6619 24.4627C44.0343 24.5569 43.2274 24.6946 42.8688 24.7526C42.5101 24.8178 41.9033 24.9193 41.5239 24.9772C41.1239 25.0424 40.6826 25.1656 40.4757 25.2671C39.986 25.5135 39.3929 26.1584 39.0895 26.7743L38.8343 27.2888L38.8136 29.6874L38.7929 32.0787L39.0067 32.3613L39.2274 32.6511L39.055 32.7961C38.9653 32.8758 38.8343 32.9772 38.7722 33.0135C38.6619 33.0787 38.6619 33.1149 38.7584 33.5207C38.9308 34.2019 38.8619 35.0932 38.6205 35.3033C38.517 35.3903 37.3584 35.412 37.0136 35.3323C36.8481 35.2961 36.7998 35.2453 36.7998 35.1149C36.7998 35.0207 36.8274 34.9193 36.8688 34.8975C37.0136 34.8033 37.4895 33.8468 37.5998 33.4337L37.717 32.9917L37.5033 32.6656L37.2964 32.3395L37.4412 32.1946C37.5239 32.1149 37.6895 31.999 37.8136 31.9337L38.0343 31.8178L38.0619 29.5932C38.0826 27.3903 38.0895 27.354 38.2619 26.883C38.5653 26.0859 39.1377 25.3468 39.7446 24.97C40.0205 24.7961 40.0274 24.7308 39.786 24.6729C39.3377 24.5714 38.2481 24.1801 38.2964 24.1366C38.3515 24.0932 39.1929 23.8106 40.8688 23.2743C41.3791 23.1077 42.186 22.8468 42.6619 22.6874C43.1377 22.5352 43.9446 22.2743 44.455 22.1077C44.9653 21.941 45.5722 21.7381 45.7998 21.6584C46.0274 21.5787 46.5515 21.4193 46.9653 21.2961L47.717 21.0787L48.1722 21.2091C48.4205 21.2743 48.9101 21.4337 49.2481 21.5497C49.5929 21.6656 50.117 21.8395 50.4205 21.9337C50.7239 22.0207 51.1584 22.1584 51.386 22.2381C51.6136 22.3178 52.1722 22.499 52.6274 22.6439C53.6826 22.9845 54.9446 23.3903 56.0619 23.7671C56.5515 23.9337 56.9929 24.0642 57.0481 24.0642C57.1033 24.0642 57.1446 24.0932 57.1446 24.1294C57.1446 24.1874 56.6895 24.354 54.9722 24.912C53.3515 25.4337 52.6619 25.6584 51.6964 25.9772C51.1446 26.1584 50.5239 26.354 50.317 26.412C50.1101 26.47 49.7239 26.6004 49.455 26.7019C48.8688 26.9265 49.1584 26.8975 50.1998 26.6294C50.5653 26.5279 51.3377 26.354 51.9033 26.2381C52.4688 26.1149 53.0136 25.9845 53.1101 25.9482C53.5033 25.7888 53.4895 25.7236 53.4895 27.6874V29.5062L53.7929 29.97C56.055 33.441 55.2136 37.9772 51.8757 40.3033C51.3446 40.6729 51.2205 40.7308 50.9377 40.7308H50.6136L50.2136 39.8106Z" fill="#2476FF"/>
<path d="M97.9722 32.1439V28.4845H98.524C99.0619 28.4845 99.0757 28.4917 99.0757 28.6584C99.0757 29.0424 99.1377 29.0714 99.4412 28.8395C99.9102 28.4845 100.565 28.3106 101.31 28.354C102.021 28.3975 102.407 28.5352 102.883 28.912C103.565 29.441 103.883 30.0859 103.952 31.0569C104.027 32.0932 103.545 33.0932 102.696 33.6656C102.193 33.999 101.855 34.0859 101.034 34.0859C100.427 34.0859 100.303 34.0642 99.9653 33.8975C99.7584 33.7888 99.524 33.6511 99.4412 33.5859L99.2826 33.47V34.6366V35.8033H98.6274H97.9722V32.1439ZM101.8 32.7961C102.441 32.3758 102.703 31.8395 102.648 31.0642C102.607 30.5424 102.489 30.2743 102.152 29.9192C101.903 29.6584 101.358 29.4265 100.979 29.4265C100.565 29.4265 100.021 29.6439 99.7446 29.9192C98.8688 30.8106 99.1033 32.2816 100.214 32.8468C100.579 33.0279 101.489 32.999 101.8 32.7961Z" fill="#2476FF"/>
<path d="M68.6274 34.0932C67.6963 33.9555 66.8963 33.3323 66.4756 32.4193C66.3032 32.0352 66.2825 31.9265 66.2825 31.2019C66.2825 30.4337 66.2894 30.383 66.5239 29.9048C66.7791 29.383 67.2549 28.8685 67.6894 28.6294C68.5791 28.1584 70.1929 28.2816 70.7791 28.8613L70.9377 29.0135V27.7309V26.4482L71.5791 26.47L72.2136 26.4917L72.2343 30.0787C72.2412 32.0497 72.2343 33.7381 72.2136 33.8323C72.1791 33.9772 72.1377 33.9917 71.6687 33.9917H71.1584L71.1101 33.7019C71.0825 33.5424 71.048 33.412 71.0274 33.412C71.0067 33.412 70.8274 33.5207 70.6343 33.6511C70.4412 33.7888 70.1722 33.9337 70.0412 33.9845C69.7791 34.0787 68.9515 34.1439 68.6274 34.0932ZM70.0067 32.8395C70.7722 32.4555 71.1239 31.6656 70.9308 30.7526C70.586 29.1439 68.1929 28.9917 67.6274 30.5424C67.5929 30.6511 67.5584 30.9772 67.5584 31.2671C67.5584 31.7164 67.586 31.8323 67.7584 32.1222C67.9653 32.47 68.2756 32.7381 68.6205 32.883C68.9584 33.0207 69.6894 32.9917 70.0067 32.8395Z" fill="#2476FF"/>
<path d="M93.8688 34.0642C93.6412 34.028 93.3171 33.941 93.1447 33.8758C92.6826 33.6946 91.9309 33.2743 91.7929 33.1149C91.655 32.9555 91.6964 32.8758 92.2343 32.2526L92.586 31.854L92.9102 32.0932C93.2757 32.3685 94.0136 32.6656 94.4826 32.7309C94.9102 32.7961 95.3791 32.6511 95.5929 32.383C95.7998 32.1222 95.8067 31.97 95.6205 31.7164C95.4274 31.4555 95.324 31.412 94.3653 31.1294C92.8826 30.7019 92.4757 30.47 92.1171 29.8323C91.9791 29.5859 91.9447 29.4338 91.9447 28.9555C91.9378 28.4555 91.9654 28.3178 92.1378 27.9627C92.5447 27.1222 93.2964 26.7309 94.4964 26.7381C95.4688 26.7454 96.1654 26.9627 96.9998 27.5352C97.0757 27.5859 97.0343 27.6874 96.8136 28.0207C96.655 28.2598 96.4688 28.528 96.3998 28.6222L96.2688 28.7961L96.0343 28.6511C95.9033 28.5714 95.5929 28.4193 95.3378 28.3106C94.4619 27.9483 93.5585 28.1222 93.5033 28.6584C93.4481 29.1439 93.7929 29.3903 94.8688 29.6511C96.1516 29.9555 97.0274 30.5425 97.2067 31.2164C97.3033 31.5714 97.3033 32.2091 97.2067 32.5787C97.055 33.1511 96.455 33.7381 95.7722 33.9772C95.4481 34.0932 94.3653 34.1439 93.8688 34.0642Z" fill="#2476FF"/>
<path d="M107.427 34.0569C107.007 33.9845 106.51 33.7163 106.11 33.354C105.669 32.9627 105.655 32.883 105.979 32.6584L106.255 32.4627L106.552 32.7453C107.007 33.1801 107.427 33.3613 108.048 33.3685C108.51 33.3758 108.614 33.3468 108.993 33.1439C109.227 33.0134 109.51 32.8033 109.621 32.6729L109.821 32.441L110.103 32.6366C110.255 32.7453 110.386 32.8613 110.386 32.8903C110.386 33.0062 109.786 33.5497 109.421 33.7598C109.207 33.8903 108.848 34.0134 108.593 34.0569C108.083 34.1439 107.945 34.1439 107.427 34.0569Z" fill="#2476FF"/>
<path d="M58.386 33.9265C58.386 33.854 58.5446 33.441 58.7722 32.9338C58.8618 32.7309 58.9377 32.5424 58.9377 32.5135C58.9377 32.4845 59.0136 32.2888 59.1032 32.0859C59.1998 31.8758 59.386 31.4338 59.5239 31.0932C59.6618 30.7526 59.8481 30.2961 59.9377 30.0787C60.0274 29.8613 60.3515 29.0859 60.6618 28.354C60.9653 27.6222 61.2136 26.999 61.2136 26.9627C61.2136 26.8251 61.5377 26.6729 61.8412 26.6729C62.5032 26.6729 62.586 26.7236 62.8067 27.2236C62.917 27.47 63.0067 27.6946 63.0067 27.7091C63.0067 27.7309 63.117 27.999 63.2481 28.2961C63.3791 28.6004 63.4894 28.8613 63.4894 28.883C63.4894 28.9048 63.586 29.1367 63.7032 29.4048C63.9929 30.0932 64.1998 30.5787 64.5515 31.4555C64.717 31.8758 64.9998 32.5497 65.1653 32.9555C65.6481 34.1077 65.6825 33.9917 64.8825 33.9917H64.1998L64.0136 33.5424C63.9101 33.2888 63.7791 32.97 63.7101 32.8323L63.5929 32.5787L61.9515 32.5569L60.3101 32.5424L60.2067 32.8106C60.1515 32.9627 60.0205 33.2888 59.917 33.5352L59.7308 33.9845L59.0618 33.9917C58.6894 33.9917 58.386 33.9627 58.386 33.9265ZM63.0825 31.2598C62.9722 31.0424 62.6618 30.3106 62.6618 30.2598C62.6618 30.2381 62.586 30.0424 62.4963 29.8395C62.3998 29.6294 62.2618 29.2743 62.1791 29.0497C62.0963 28.8178 62.0067 28.6149 61.9791 28.5932C61.9446 28.5787 61.8618 28.7309 61.7791 28.941C61.7032 29.1439 61.5308 29.5932 61.386 29.9338C61.2481 30.2743 61.0618 30.7381 60.9722 30.97L60.8067 31.383H61.9791C63.0687 31.383 63.1446 31.3758 63.0825 31.2598Z" fill="#2476FF"/>
<path d="M74.0205 33.941C73.9584 33.883 73.9584 28.8685 74.0136 28.6439C74.055 28.4917 74.0894 28.4772 74.5515 28.499C75.0274 28.5207 75.0412 28.5279 75.0619 28.7236C75.0894 28.9555 75.1653 28.97 75.3722 28.7743C75.5929 28.5569 76.3308 28.3395 76.8619 28.3395C77.5032 28.3395 77.9929 28.5062 78.3377 28.8468L78.6274 29.1221L78.8343 28.941C79.3584 28.4917 80.0136 28.3033 80.8619 28.354C81.6205 28.3975 82.0963 28.6584 82.455 29.2019C82.8274 29.7671 82.8687 30.0642 82.8687 32.1511V33.9917H82.2481H81.6274L81.6205 32.383C81.6205 31.4917 81.5929 30.6077 81.5653 30.4192C81.4619 29.7671 81.0963 29.4555 80.455 29.47C79.7929 29.4845 79.317 29.854 79.1515 30.4845C79.1101 30.6511 79.0756 31.441 79.0756 32.383V33.9917H78.4619H77.8481L77.8205 32.2019C77.7998 30.4772 77.7929 30.3903 77.6343 30.0497C77.5032 29.7671 77.4067 29.6729 77.1515 29.5497C76.8756 29.4192 76.7929 29.412 76.4274 29.4845C75.8136 29.6077 75.4688 29.9265 75.3515 30.4845C75.317 30.6366 75.2825 31.4917 75.2825 32.383V33.9917H74.6756C74.3377 33.9917 74.0412 33.97 74.0205 33.941Z" fill="#2476FF"/>
<path d="M84.455 31.2381V28.4845H85.1101H85.7653V31.2381V33.9917H85.1101H84.455V31.2381Z" fill="#2476FF"/>
<path d="M89.1515 33.941C88.9446 33.8975 88.5377 33.6294 88.3377 33.3975C88.0136 33.028 87.9446 32.6801 87.9033 31.0932L87.8688 29.6077L87.4205 29.5714L86.9722 29.5352V29.0642V28.5932L87.386 28.4772C87.8619 28.3468 87.924 28.2598 88.1033 27.441L88.2136 26.9265L88.7171 26.9048L89.2136 26.883V27.6874V28.4845H90.0757H90.9377V29.028V29.5714H90.0688H89.2067L89.2274 31.0207L89.2481 32.47L89.4688 32.6946C89.6757 32.9193 89.7102 32.9265 90.3791 32.9627L91.0757 32.999V33.4917V33.9917L90.1998 33.9845C89.7102 33.9772 89.2412 33.9555 89.1515 33.941Z" fill="#2476FF"/>
<path d="M113.724 33.8178C113.324 33.6221 113.124 33.4265 112.917 33.0135C112.779 32.7453 112.765 32.5859 112.745 31.1511L112.717 29.5714H112.276H111.834V29.0714V28.5642L112.207 28.4845C112.414 28.441 112.614 28.3685 112.648 28.3178C112.689 28.2671 112.772 28.0207 112.834 27.7598C113.048 26.8613 113.027 26.883 113.552 26.9048L114.007 26.9265V27.7091V28.4845H114.855H115.696V29.0279V29.5714H114.869H114.041V30.9627C114.041 32.2816 114.048 32.3613 114.2 32.5932C114.4 32.9048 114.434 32.912 115.234 32.9627L115.903 32.999V33.4917V33.9917H114.993C114.172 33.9917 114.041 33.97 113.724 33.8178Z" fill="#2476FF"/>
<path d="M105.289 32.0279C104.938 30.9265 105.365 29.6221 106.317 28.883C106.669 28.6149 107.352 28.3395 107.669 28.3395C107.82 28.3395 107.834 28.3685 107.834 28.6946V29.0424L107.545 29.0932C106.993 29.1874 106.407 29.6801 106.103 30.3033C105.945 30.6439 105.903 30.8178 105.903 31.2019C105.903 31.4845 105.945 31.7671 106.007 31.883C106.083 32.0497 106.089 32.1077 106.02 32.1656C105.931 32.2453 105.517 32.47 105.462 32.47C105.448 32.47 105.372 32.2743 105.289 32.0279Z" fill="#2476FF"/>
<path d="M110.324 32.3106C110.055 32.1801 110.034 32.1511 110.076 31.9772C110.103 31.8685 110.138 31.5569 110.158 31.2743C110.186 30.8468 110.158 30.7019 110.02 30.3685C109.745 29.7309 109.11 29.1946 108.51 29.0932L108.248 29.0424V28.6801V28.3178L108.551 28.3613C109.172 28.4555 109.62 28.6946 110.089 29.1874C110.6 29.7164 110.758 30.0497 110.876 30.7816C110.945 31.2164 110.938 31.3758 110.841 31.8468C110.772 32.1439 110.703 32.412 110.676 32.4265C110.648 32.441 110.489 32.3903 110.324 32.3106Z" fill="#2476FF"/>
<path d="M47.8964 30.854C47.8343 30.6584 47.7584 30.5932 47.5722 30.5425C47.4343 30.5062 47.3171 30.4483 47.3102 30.4048C47.2964 30.3685 47.4343 30.2164 47.6067 30.0787C48.9102 29.0497 49.1722 28.8468 49.2205 28.8468C49.255 28.8468 49.2826 29.3106 49.2826 29.8685V30.8975L49.0688 30.8468C48.9515 30.8251 48.786 30.8033 48.7102 30.8033C48.586 30.8033 48.5791 30.7743 48.6136 30.354L48.6619 29.8975L48.4205 30.3323C48.2895 30.5714 48.1791 30.8033 48.1791 30.8468C48.1791 30.8903 48.1377 30.97 48.0826 31.0135C47.9998 31.0859 47.9653 31.0569 47.8964 30.854Z" fill="#2476FF"/>
<path d="M84.8481 27.5714C84.5722 27.4845 84.4963 27.4193 84.4136 27.2019C84.2067 26.6874 84.4412 26.3106 85.0067 26.2526C85.4481 26.2091 85.7032 26.3251 85.8688 26.6439C85.986 26.8758 85.986 26.912 85.8825 27.1439C85.8067 27.3033 85.6687 27.441 85.4756 27.5424C85.317 27.6222 85.186 27.6874 85.186 27.6801C85.1791 27.6801 85.0274 27.6294 84.8481 27.5714Z" fill="#2476FF"/>
</g>
<path d="M48.2358 48.3668L45.8118 56.7308H44.5878L42.6438 49.9988L40.6278 56.7308L39.4158 56.7428L37.0758 48.3668H38.2398L40.0638 55.4588L42.0798 48.3668H43.3038L45.2238 55.4348L47.0598 48.3668H48.2358ZM55.5808 53.1908C55.5808 53.3988 55.5688 53.6188 55.5448 53.8508H50.2888C50.3288 54.4988 50.5488 55.0068 50.9488 55.3748C51.3568 55.7348 51.8488 55.9148 52.4248 55.9148C52.8968 55.9148 53.2888 55.8068 53.6008 55.5908C53.9208 55.3668 54.1448 55.0708 54.2728 54.7028H55.4488C55.2728 55.3348 54.9208 55.8508 54.3928 56.2508C53.8648 56.6428 53.2088 56.8388 52.4248 56.8388C51.8008 56.8388 51.2408 56.6988 50.7448 56.4188C50.2568 56.1388 49.8728 55.7428 49.5928 55.2308C49.3128 54.7108 49.1728 54.1108 49.1728 53.4308C49.1728 52.7508 49.3088 52.1548 49.5808 51.6428C49.8528 51.1308 50.2328 50.7388 50.7208 50.4668C51.2168 50.1868 51.7848 50.0468 52.4248 50.0468C53.0488 50.0468 53.6008 50.1828 54.0808 50.4548C54.5608 50.7268 54.9288 51.1028 55.1848 51.5828C55.4488 52.0548 55.5808 52.5908 55.5808 53.1908ZM54.4528 52.9628C54.4528 52.5468 54.3608 52.1908 54.1768 51.8948C53.9928 51.5908 53.7408 51.3628 53.4208 51.2108C53.1088 51.0508 52.7608 50.9708 52.3768 50.9708C51.8248 50.9708 51.3528 51.1468 50.9608 51.4988C50.5768 51.8508 50.3568 52.3388 50.3008 52.9628H54.4528ZM58.2642 47.8508V56.7308H57.1722V47.8508H58.2642ZM59.8674 53.4308C59.8674 52.7508 60.0034 52.1588 60.2754 51.6548C60.5474 51.1428 60.9234 50.7468 61.4034 50.4668C61.8914 50.1868 62.4474 50.0468 63.0714 50.0468C63.8794 50.0468 64.5434 50.2428 65.0634 50.6348C65.5914 51.0268 65.9394 51.5708 66.1074 52.2668H64.9314C64.8194 51.8668 64.5994 51.5508 64.2714 51.3188C63.9514 51.0868 63.5514 50.9708 63.0714 50.9708C62.4474 50.9708 61.9434 51.1868 61.5594 51.6188C61.1754 52.0428 60.9834 52.6468 60.9834 53.4308C60.9834 54.2228 61.1754 54.8348 61.5594 55.2668C61.9434 55.6988 62.4474 55.9148 63.0714 55.9148C63.5514 55.9148 63.9514 55.8028 64.2714 55.5788C64.5914 55.3548 64.8114 55.0348 64.9314 54.6188H66.1074C65.9314 55.2908 65.5794 55.8308 65.0514 56.2388C64.5234 56.6388 63.8634 56.8388 63.0714 56.8388C62.4474 56.8388 61.8914 56.6988 61.4034 56.4188C60.9234 56.1388 60.5474 55.7428 60.2754 55.2308C60.0034 54.7188 59.8674 54.1188 59.8674 53.4308ZM70.5824 56.8388C69.9664 56.8388 69.4064 56.6988 68.9024 56.4188C68.4064 56.1388 68.0144 55.7428 67.7264 55.2308C67.4464 54.7108 67.3064 54.1108 67.3064 53.4308C67.3064 52.7588 67.4504 52.1668 67.7384 51.6548C68.0344 51.1348 68.4344 50.7388 68.9384 50.4668C69.4424 50.1868 70.0064 50.0468 70.6304 50.0468C71.2544 50.0468 71.8184 50.1868 72.3224 50.4668C72.8264 50.7388 73.2224 51.1308 73.5104 51.6428C73.8064 52.1548 73.9544 52.7508 73.9544 53.4308C73.9544 54.1108 73.8024 54.7108 73.4984 55.2308C73.2024 55.7428 72.7984 56.1388 72.2864 56.4188C71.7744 56.6988 71.2064 56.8388 70.5824 56.8388ZM70.5824 55.8788C70.9744 55.8788 71.3424 55.7868 71.6864 55.6028C72.0304 55.4188 72.3064 55.1428 72.5144 54.7748C72.7304 54.4068 72.8384 53.9588 72.8384 53.4308C72.8384 52.9028 72.7344 52.4548 72.5264 52.0868C72.3184 51.7188 72.0464 51.4468 71.7104 51.2708C71.3744 51.0868 71.0104 50.9948 70.6184 50.9948C70.2184 50.9948 69.8504 51.0868 69.5144 51.2708C69.1864 51.4468 68.9224 51.7188 68.7224 52.0868C68.5224 52.4548 68.4224 52.9028 68.4224 53.4308C68.4224 53.9668 68.5184 54.4188 68.7104 54.7868C68.9104 55.1548 69.1744 55.4308 69.5024 55.6148C69.8304 55.7908 70.1904 55.8788 70.5824 55.8788ZM83.4482 50.0348C83.9602 50.0348 84.4162 50.1428 84.8162 50.3588C85.2162 50.5668 85.5322 50.8828 85.7642 51.3068C85.9962 51.7308 86.1122 52.2468 86.1122 52.8548V56.7308H85.0322V53.0108C85.0322 52.3548 84.8682 51.8548 84.5402 51.5108C84.2202 51.1588 83.7842 50.9828 83.2322 50.9828C82.6642 50.9828 82.2122 51.1668 81.8762 51.5348C81.5402 51.8948 81.3722 52.4188 81.3722 53.1068V56.7308H80.2922V53.0108C80.2922 52.3548 80.1282 51.8548 79.8002 51.5108C79.4802 51.1588 79.0442 50.9828 78.4922 50.9828C77.9242 50.9828 77.4722 51.1668 77.1362 51.5348C76.8002 51.8948 76.6322 52.4188 76.6322 53.1068V56.7308H75.5402V50.1548H76.6322V51.1028C76.8482 50.7588 77.1362 50.4948 77.4962 50.3108C77.8642 50.1268 78.2682 50.0348 78.7082 50.0348C79.2602 50.0348 79.7482 50.1588 80.1722 50.4068C80.5962 50.6548 80.9122 51.0188 81.1202 51.4988C81.3042 51.0348 81.6082 50.6748 82.0322 50.4188C82.4562 50.1628 82.9282 50.0348 83.4482 50.0348ZM94.0535 53.1908C94.0535 53.3988 94.0415 53.6188 94.0175 53.8508H88.7615C88.8015 54.4988 89.0215 55.0068 89.4215 55.3748C89.8295 55.7348 90.3215 55.9148 90.8975 55.9148C91.3695 55.9148 91.7615 55.8068 92.0735 55.5908C92.3935 55.3668 92.6175 55.0708 92.7455 54.7028H93.9215C93.7455 55.3348 93.3935 55.8508 92.8655 56.2508C92.3375 56.6428 91.6815 56.8388 90.8975 56.8388C90.2735 56.8388 89.7135 56.6988 89.2175 56.4188C88.7295 56.1388 88.3455 55.7428 88.0655 55.2308C87.7855 54.7108 87.6455 54.1108 87.6455 53.4308C87.6455 52.7508 87.7815 52.1548 88.0535 51.6428C88.3255 51.1308 88.7055 50.7388 89.1935 50.4668C89.6895 50.1868 90.2575 50.0468 90.8975 50.0468C91.5215 50.0468 92.0735 50.1828 92.5535 50.4548C93.0335 50.7268 93.4015 51.1028 93.6575 51.5828C93.9215 52.0548 94.0535 52.5908 94.0535 53.1908ZM92.9255 52.9628C92.9255 52.5468 92.8335 52.1908 92.6495 51.8948C92.4655 51.5908 92.2135 51.3628 91.8935 51.2108C91.5815 51.0508 91.2335 50.9708 90.8495 50.9708C90.2975 50.9708 89.8255 51.1468 89.4335 51.4988C89.0495 51.8508 88.8295 52.3388 88.7735 52.9628H92.9255ZM100.326 51.0548V54.9308C100.326 55.2508 100.394 55.4788 100.53 55.6148C100.666 55.7428 100.902 55.8068 101.238 55.8068H102.042V56.7308H101.058C100.45 56.7308 99.9941 56.5908 99.6901 56.3108C99.3861 56.0308 99.2341 55.5708 99.2341 54.9308V51.0548H98.3821V50.1548H99.2341V48.4988H100.326V50.1548H102.042V51.0548H100.326ZM106.383 56.8388C105.767 56.8388 105.207 56.6988 104.703 56.4188C104.207 56.1388 103.815 55.7428 103.527 55.2308C103.247 54.7108 103.107 54.1108 103.107 53.4308C103.107 52.7588 103.251 52.1668 103.539 51.6548C103.835 51.1348 104.235 50.7388 104.739 50.4668C105.243 50.1868 105.807 50.0468 106.431 50.0468C107.055 50.0468 107.619 50.1868 108.123 50.4668C108.627 50.7388 109.023 51.1308 109.311 51.6428C109.607 52.1548 109.755 52.7508 109.755 53.4308C109.755 54.1108 109.603 54.7108 109.299 55.2308C109.003 55.7428 108.599 56.1388 108.087 56.4188C107.575 56.6988 107.007 56.8388 106.383 56.8388ZM106.383 55.8788C106.775 55.8788 107.143 55.7868 107.487 55.6028C107.831 55.4188 108.107 55.1428 108.315 54.7748C108.531 54.4068 108.639 53.9588 108.639 53.4308C108.639 52.9028 108.535 52.4548 108.327 52.0868C108.119 51.7188 107.847 51.4468 107.511 51.2708C107.175 51.0868 106.811 50.9948 106.419 50.9948C106.019 50.9948 105.651 51.0868 105.315 51.2708C104.987 51.4468 104.723 51.7188 104.523 52.0868C104.323 52.4548 104.223 52.9028 104.223 53.4308C104.223 53.9668 104.319 54.4188 104.511 54.7868C104.711 55.1548 104.975 55.4308 105.303 55.6148C105.631 55.7908 105.991 55.8788 106.383 55.8788ZM119.634 54.8708H115.986L115.314 56.7308H114.162L117.186 48.4148H118.446L121.458 56.7308H120.306L119.634 54.8708ZM119.322 53.9828L117.81 49.7588L116.298 53.9828H119.322ZM122.518 53.4188C122.518 52.7468 122.654 52.1588 122.926 51.6548C123.198 51.1428 123.57 50.7468 124.042 50.4668C124.522 50.1868 125.058 50.0468 125.65 50.0468C126.162 50.0468 126.638 50.1668 127.078 50.4068C127.518 50.6388 127.854 50.9468 128.086 51.3308V47.8508H129.19V56.7308H128.086V55.4948C127.87 55.8868 127.55 56.2108 127.126 56.4668C126.702 56.7148 126.206 56.8388 125.638 56.8388C125.054 56.8388 124.522 56.6948 124.042 56.4068C123.57 56.1188 123.198 55.7148 122.926 55.1948C122.654 54.6748 122.518 54.0828 122.518 53.4188ZM128.086 53.4308C128.086 52.9348 127.986 52.5028 127.786 52.1348C127.586 51.7668 127.314 51.4868 126.97 51.2948C126.634 51.0948 126.262 50.9948 125.854 50.9948C125.446 50.9948 125.074 51.0908 124.738 51.2828C124.402 51.4748 124.134 51.7548 123.934 52.1228C123.734 52.4908 123.634 52.9228 123.634 53.4188C123.634 53.9228 123.734 54.3628 123.934 54.7388C124.134 55.1068 124.402 55.3908 124.738 55.5908C125.074 55.7828 125.446 55.8788 125.854 55.8788C126.262 55.8788 126.634 55.7828 126.97 55.5908C127.314 55.3908 127.586 55.1068 127.786 54.7388C127.986 54.3628 128.086 53.9268 128.086 53.4308ZM139.094 50.0348C139.606 50.0348 140.062 50.1428 140.462 50.3588C140.862 50.5668 141.178 50.8828 141.41 51.3068C141.642 51.7308 141.758 52.2468 141.758 52.8548V56.7308H140.678V53.0108C140.678 52.3548 140.514 51.8548 140.186 51.5108C139.866 51.1588 139.43 50.9828 138.878 50.9828C138.31 50.9828 137.858 51.1668 137.522 51.5348C137.186 51.8948 137.018 52.4188 137.018 53.1068V56.7308H135.938V53.0108C135.938 52.3548 135.774 51.8548 135.446 51.5108C135.126 51.1588 134.69 50.9828 134.138 50.9828C133.57 50.9828 133.118 51.1668 132.782 51.5348C132.446 51.8948 132.278 52.4188 132.278 53.1068V56.7308H131.186V50.1548H132.278V51.1028C132.494 50.7588 132.782 50.4948 133.142 50.3108C133.51 50.1268 133.914 50.0348 134.354 50.0348C134.906 50.0348 135.394 50.1588 135.818 50.4068C136.242 50.6548 136.558 51.0188 136.766 51.4988C136.95 51.0348 137.254 50.6748 137.678 50.4188C138.102 50.1628 138.574 50.0348 139.094 50.0348ZM144.263 49.0868C144.055 49.0868 143.879 49.0148 143.735 48.8708C143.591 48.7268 143.519 48.5508 143.519 48.3428C143.519 48.1348 143.591 47.9588 143.735 47.8148C143.879 47.6708 144.055 47.5988 144.263 47.5988C144.463 47.5988 144.631 47.6708 144.767 47.8148C144.911 47.9588 144.983 48.1348 144.983 48.3428C144.983 48.5508 144.911 48.7268 144.767 48.8708C144.631 49.0148 144.463 49.0868 144.263 49.0868ZM144.791 50.1548V56.7308H143.699V50.1548H144.791ZM148.134 51.0548V54.9308C148.134 55.2508 148.202 55.4788 148.338 55.6148C148.474 55.7428 148.71 55.8068 149.046 55.8068H149.85V56.7308H148.866C148.258 56.7308 147.802 56.5908 147.498 56.3108C147.194 56.0308 147.042 55.5708 147.042 54.9308V51.0548H146.19V50.1548H147.042V48.4988H148.134V50.1548H149.85V51.0548H148.134ZM153.975 56.8148C153.423 56.8148 152.927 56.7188 152.487 56.5268C152.055 56.3268 151.715 56.0548 151.467 55.7108C151.219 55.3588 151.091 54.9548 151.083 54.4988H152.247C152.287 54.8908 152.447 55.2228 152.727 55.4948C153.015 55.7588 153.431 55.8908 153.975 55.8908C154.495 55.8908 154.903 55.7628 155.199 55.5068C155.503 55.2428 155.655 54.9068 155.655 54.4988C155.655 54.1788 155.567 53.9188 155.391 53.7188C155.215 53.5188 154.995 53.3668 154.731 53.2628C154.467 53.1588 154.111 53.0468 153.663 52.9268C153.111 52.7828 152.667 52.6388 152.331 52.4948C152.003 52.3508 151.719 52.1268 151.479 51.8228C151.247 51.5108 151.131 51.0948 151.131 50.5748C151.131 50.1188 151.247 49.7148 151.479 49.3628C151.711 49.0108 152.035 48.7388 152.451 48.5468C152.875 48.3548 153.359 48.2588 153.903 48.2588C154.687 48.2588 155.327 48.4548 155.823 48.8468C156.327 49.2388 156.611 49.7588 156.675 50.4068H155.475C155.435 50.0868 155.267 49.8068 154.971 49.5668C154.675 49.3188 154.283 49.1948 153.795 49.1948C153.339 49.1948 152.967 49.3148 152.679 49.5548C152.391 49.7868 152.247 50.1148 152.247 50.5388C152.247 50.8428 152.331 51.0908 152.499 51.2828C152.675 51.4748 152.887 51.6228 153.135 51.7268C153.391 51.8228 153.747 51.9348 154.203 52.0628C154.755 52.2148 155.199 52.3668 155.535 52.5188C155.871 52.6628 156.159 52.8908 156.399 53.2028C156.639 53.5068 156.759 53.9228 156.759 54.4508C156.759 54.8588 156.651 55.2428 156.435 55.6028C156.219 55.9628 155.899 56.2548 155.475 56.4788C155.051 56.7028 154.551 56.8148 153.975 56.8148ZM159.608 51.3668C159.824 50.9908 160.144 50.6788 160.568 50.4308C161 50.1748 161.5 50.0468 162.068 50.0468C162.652 50.0468 163.18 50.1868 163.652 50.4668C164.132 50.7468 164.508 51.1428 164.78 51.6548C165.052 52.1588 165.188 52.7468 165.188 53.4188C165.188 54.0828 165.052 54.6748 164.78 55.1948C164.508 55.7148 164.132 56.1188 163.652 56.4068C163.18 56.6948 162.652 56.8388 162.068 56.8388C161.508 56.8388 161.012 56.7148 160.58 56.4668C160.156 56.2108 159.832 55.8948 159.608 55.5188V59.8508H158.516V50.1548H159.608V51.3668ZM164.072 53.4188C164.072 52.9228 163.972 52.4908 163.772 52.1228C163.572 51.7548 163.3 51.4748 162.956 51.2828C162.62 51.0908 162.248 50.9948 161.84 50.9948C161.44 50.9948 161.068 51.0948 160.724 51.2948C160.388 51.4868 160.116 51.7708 159.908 52.1468C159.708 52.5148 159.608 52.9428 159.608 53.4308C159.608 53.9268 159.708 54.3628 159.908 54.7388C160.116 55.1068 160.388 55.3908 160.724 55.5908C161.068 55.7828 161.44 55.8788 161.84 55.8788C162.248 55.8788 162.62 55.7828 162.956 55.5908C163.3 55.3908 163.572 55.1068 163.772 54.7388C163.972 54.3628 164.072 53.9228 164.072 53.4188ZM169.643 56.8388C169.027 56.8388 168.467 56.6988 167.963 56.4188C167.467 56.1388 167.075 55.7428 166.787 55.2308C166.507 54.7108 166.367 54.1108 166.367 53.4308C166.367 52.7588 166.511 52.1668 166.799 51.6548C167.095 51.1348 167.495 50.7388 167.999 50.4668C168.503 50.1868 169.067 50.0468 169.691 50.0468C170.315 50.0468 170.879 50.1868 171.383 50.4668C171.887 50.7388 172.283 51.1308 172.571 51.6428C172.867 52.1548 173.015 52.7508 173.015 53.4308C173.015 54.1108 172.863 54.7108 172.559 55.2308C172.263 55.7428 171.859 56.1388 171.347 56.4188C170.835 56.6988 170.267 56.8388 169.643 56.8388ZM169.643 55.8788C170.035 55.8788 170.403 55.7868 170.747 55.6028C171.091 55.4188 171.367 55.1428 171.575 54.7748C171.791 54.4068 171.899 53.9588 171.899 53.4308C171.899 52.9028 171.795 52.4548 171.587 52.0868C171.379 51.7188 171.107 51.4468 170.771 51.2708C170.435 51.0868 170.071 50.9948 169.679 50.9948C169.279 50.9948 168.911 51.0868 168.575 51.2708C168.247 51.4468 167.983 51.7188 167.783 52.0868C167.583 52.4548 167.483 52.9028 167.483 53.4308C167.483 53.9668 167.579 54.4188 167.771 54.7868C167.971 55.1548 168.235 55.4308 168.563 55.6148C168.891 55.7908 169.251 55.8788 169.643 55.8788ZM175.933 51.0548V54.9308C175.933 55.2508 176.001 55.4788 176.137 55.6148C176.273 55.7428 176.509 55.8068 176.845 55.8068H177.649V56.7308H176.665C176.057 56.7308 175.601 56.5908 175.297 56.3108C174.993 56.0308 174.841 55.5708 174.841 54.9308V51.0548H173.989V50.1548H174.841V48.4988H175.933V50.1548H177.649V51.0548H175.933ZM182.063 52.5428C182.063 51.7268 182.247 50.9948 182.615 50.3468C182.983 49.6908 183.483 49.1788 184.115 48.8108C184.755 48.4428 185.463 48.2588 186.239 48.2588C187.151 48.2588 187.947 48.4788 188.627 48.9188C189.307 49.3588 189.803 49.9828 190.115 50.7908H188.807C188.575 50.2868 188.239 49.8988 187.799 49.6268C187.367 49.3548 186.847 49.2188 186.239 49.2188C185.655 49.2188 185.131 49.3548 184.667 49.6268C184.203 49.8988 183.839 50.2868 183.575 50.7908C183.311 51.2868 183.179 51.8708 183.179 52.5428C183.179 53.2068 183.311 53.7908 183.575 54.2948C183.839 54.7908 184.203 55.1748 184.667 55.4468C185.131 55.7188 185.655 55.8548 186.239 55.8548C186.847 55.8548 187.367 55.7228 187.799 55.4588C188.239 55.1868 188.575 54.7988 188.807 54.2948H190.115C189.803 55.0948 189.307 55.7148 188.627 56.1548C187.947 56.5868 187.151 56.8028 186.239 56.8028C185.463 56.8028 184.755 56.6228 184.115 56.2628C183.483 55.8948 182.983 55.3868 182.615 54.7388C182.247 54.0908 182.063 53.3588 182.063 52.5428ZM194.759 56.8388C194.143 56.8388 193.583 56.6988 193.079 56.4188C192.583 56.1388 192.191 55.7428 191.903 55.2308C191.623 54.7108 191.483 54.1108 191.483 53.4308C191.483 52.7588 191.627 52.1668 191.915 51.6548C192.211 51.1348 192.611 50.7388 193.115 50.4668C193.619 50.1868 194.183 50.0468 194.807 50.0468C195.431 50.0468 195.995 50.1868 196.499 50.4668C197.003 50.7388 197.399 51.1308 197.687 51.6428C197.983 52.1548 198.131 52.7508 198.131 53.4308C198.131 54.1108 197.979 54.7108 197.675 55.2308C197.379 55.7428 196.975 56.1388 196.463 56.4188C195.951 56.6988 195.383 56.8388 194.759 56.8388ZM194.759 55.8788C195.151 55.8788 195.519 55.7868 195.863 55.6028C196.207 55.4188 196.483 55.1428 196.691 54.7748C196.907 54.4068 197.015 53.9588 197.015 53.4308C197.015 52.9028 196.911 52.4548 196.703 52.0868C196.495 51.7188 196.223 51.4468 195.887 51.2708C195.551 51.0868 195.187 50.9948 194.795 50.9948C194.395 50.9948 194.027 51.0868 193.691 51.2708C193.363 51.4468 193.099 51.7188 192.899 52.0868C192.699 52.4548 192.599 52.9028 192.599 53.4308C192.599 53.9668 192.695 54.4188 192.887 54.7868C193.087 55.1548 193.351 55.4308 193.679 55.6148C194.007 55.7908 194.367 55.8788 194.759 55.8788ZM207.625 50.0348C208.137 50.0348 208.593 50.1428 208.993 50.3588C209.393 50.5668 209.709 50.8828 209.941 51.3068C210.173 51.7308 210.289 52.2468 210.289 52.8548V56.7308H209.209V53.0108C209.209 52.3548 209.045 51.8548 208.717 51.5108C208.397 51.1588 207.961 50.9828 207.409 50.9828C206.841 50.9828 206.389 51.1668 206.053 51.5348C205.717 51.8948 205.549 52.4188 205.549 53.1068V56.7308H204.469V53.0108C204.469 52.3548 204.305 51.8548 203.977 51.5108C203.657 51.1588 203.221 50.9828 202.669 50.9828C202.101 50.9828 201.649 51.1668 201.313 51.5348C200.977 51.8948 200.809 52.4188 200.809 53.1068V56.7308H199.717V50.1548H200.809V51.1028C201.025 50.7588 201.313 50.4948 201.673 50.3108C202.041 50.1268 202.445 50.0348 202.885 50.0348C203.437 50.0348 203.925 50.1588 204.349 50.4068C204.773 50.6548 205.089 51.0188 205.297 51.4988C205.481 51.0348 205.785 50.6748 206.209 50.4188C206.633 50.1628 207.105 50.0348 207.625 50.0348ZM220.138 50.0348C220.65 50.0348 221.106 50.1428 221.506 50.3588C221.906 50.5668 222.222 50.8828 222.454 51.3068C222.686 51.7308 222.802 52.2468 222.802 52.8548V56.7308H221.722V53.0108C221.722 52.3548 221.558 51.8548 221.23 51.5108C220.91 51.1588 220.474 50.9828 219.922 50.9828C219.354 50.9828 218.902 51.1668 218.566 51.5348C218.23 51.8948 218.062 52.4188 218.062 53.1068V56.7308H216.982V53.0108C216.982 52.3548 216.818 51.8548 216.49 51.5108C216.17 51.1588 215.734 50.9828 215.182 50.9828C214.614 50.9828 214.162 51.1668 213.826 51.5348C213.49 51.8948 213.322 52.4188 213.322 53.1068V56.7308H212.23V50.1548H213.322V51.1028C213.538 50.7588 213.826 50.4948 214.186 50.3108C214.554 50.1268 214.958 50.0348 215.398 50.0348C215.95 50.0348 216.438 50.1588 216.862 50.4068C217.286 50.6548 217.602 51.0188 217.81 51.4988C217.994 51.0348 218.298 50.6748 218.722 50.4188C219.146 50.1628 219.618 50.0348 220.138 50.0348ZM230.575 50.1548V56.7308H229.483V55.7588C229.275 56.0948 228.983 56.3588 228.607 56.5508C228.239 56.7348 227.831 56.8268 227.383 56.8268C226.871 56.8268 226.411 56.7228 226.003 56.5148C225.595 56.2988 225.271 55.9788 225.031 55.5548C224.799 55.1308 224.683 54.6148 224.683 54.0068V50.1548H225.763V53.8628C225.763 54.5108 225.927 55.0108 226.255 55.3628C226.583 55.7068 227.031 55.8788 227.599 55.8788C228.183 55.8788 228.643 55.6988 228.979 55.3388C229.315 54.9788 229.483 54.4548 229.483 53.7668V50.1548H230.575ZM235.773 50.0348C236.573 50.0348 237.221 50.2788 237.717 50.7668C238.213 51.2468 238.461 51.9428 238.461 52.8548V56.7308H237.381V53.0108C237.381 52.3548 237.217 51.8548 236.889 51.5108C236.561 51.1588 236.113 50.9828 235.545 50.9828C234.969 50.9828 234.509 51.1628 234.165 51.5228C233.829 51.8828 233.661 52.4068 233.661 53.0948V56.7308H232.569V50.1548H233.661V51.0908C233.877 50.7548 234.169 50.4948 234.537 50.3108C234.913 50.1268 235.325 50.0348 235.773 50.0348ZM240.959 49.0868C240.751 49.0868 240.575 49.0148 240.431 48.8708C240.287 48.7268 240.215 48.5508 240.215 48.3428C240.215 48.1348 240.287 47.9588 240.431 47.8148C240.575 47.6708 240.751 47.5988 240.959 47.5988C241.159 47.5988 241.327 47.6708 241.463 47.8148C241.607 47.9588 241.679 48.1348 241.679 48.3428C241.679 48.5508 241.607 48.7268 241.463 48.8708C241.327 49.0148 241.159 49.0868 240.959 49.0868ZM241.487 50.1548V56.7308H240.395V50.1548H241.487ZM244.83 51.0548V54.9308C244.83 55.2508 244.898 55.4788 245.034 55.6148C245.17 55.7428 245.406 55.8068 245.742 55.8068H246.546V56.7308H245.562C244.954 56.7308 244.498 56.5908 244.194 56.3108C243.89 56.0308 243.738 55.5708 243.738 54.9308V51.0548H242.886V50.1548H243.738V48.4988H244.83V50.1548H246.546V51.0548H244.83ZM253.683 50.1548L249.723 59.8268H248.595L249.891 56.6588L247.239 50.1548H248.451L250.515 55.4828L252.555 50.1548H253.683ZM256.347 48.3668L256.215 54.3668H255.303L255.171 48.3668H256.347ZM255.807 56.8028C255.599 56.8028 255.423 56.7308 255.279 56.5868C255.135 56.4428 255.063 56.2668 255.063 56.0588C255.063 55.8508 255.135 55.6748 255.279 55.5308C255.423 55.3868 255.599 55.3148 255.807 55.3148C256.007 55.3148 256.175 55.3868 256.311 55.5308C256.455 55.6748 256.527 55.8508 256.527 56.0588C256.527 56.2668 256.455 56.4428 256.311 56.5868C256.175 56.7308 256.007 56.8028 255.807 56.8028ZM39.2838 66.3548V71.5388C39.2838 72.1068 39.4318 72.5428 39.7278 72.8468C40.0238 73.1428 40.4398 73.2908 40.9758 73.2908C41.5198 73.2908 41.9398 73.1428 42.2358 72.8468C42.5318 72.5428 42.6798 72.1068 42.6798 71.5388V66.3548H44.3718V71.5268C44.3718 72.2388 44.2158 72.8428 43.9038 73.3388C43.5998 73.8268 43.1878 74.1948 42.6678 74.4428C42.1558 74.6908 41.5838 74.8148 40.9518 74.8148C40.3278 74.8148 39.7598 74.6908 39.2478 74.4428C38.7438 74.1948 38.3438 73.8268 38.0478 73.3388C37.7518 72.8428 37.6038 72.2388 37.6038 71.5268V66.3548H39.2838ZM49.829 67.9868C50.621 67.9868 51.261 68.2388 51.749 68.7428C52.237 69.2388 52.481 69.9348 52.481 70.8308V74.7308H50.801V71.0588C50.801 70.5308 50.669 70.1268 50.405 69.8468C50.141 69.5588 49.781 69.4148 49.325 69.4148C48.861 69.4148 48.493 69.5588 48.221 69.8468C47.957 70.1268 47.825 70.5308 47.825 71.0588V74.7308H46.145V68.0828H47.825V68.9108C48.049 68.6228 48.333 68.3988 48.677 68.2388C49.029 68.0708 49.413 67.9868 49.829 67.9868ZM55.9086 65.8508V74.7308H54.2286V65.8508H55.9086ZM60.6704 74.8388C60.0304 74.8388 59.4544 74.6988 58.9424 74.4188C58.4304 74.1308 58.0264 73.7268 57.7304 73.2068C57.4424 72.6868 57.2984 72.0868 57.2984 71.4068C57.2984 70.7268 57.4464 70.1268 57.7424 69.6068C58.0464 69.0868 58.4584 68.6868 58.9784 68.4068C59.4984 68.1188 60.0784 67.9748 60.7184 67.9748C61.3584 67.9748 61.9384 68.1188 62.4584 68.4068C62.9784 68.6868 63.3864 69.0868 63.6824 69.6068C63.9864 70.1268 64.1384 70.7268 64.1384 71.4068C64.1384 72.0868 63.9824 72.6868 63.6704 73.2068C63.3664 73.7268 62.9504 74.1308 62.4224 74.4188C61.9024 74.6988 61.3184 74.8388 60.6704 74.8388ZM60.6704 73.3748C60.9744 73.3748 61.2584 73.3028 61.5224 73.1588C61.7944 73.0068 62.0104 72.7828 62.1704 72.4868C62.3304 72.1908 62.4104 71.8308 62.4104 71.4068C62.4104 70.7748 62.2424 70.2908 61.9064 69.9548C61.5784 69.6108 61.1744 69.4388 60.6944 69.4388C60.2144 69.4388 59.8104 69.6108 59.4824 69.9548C59.1624 70.2908 59.0024 70.7748 59.0024 71.4068C59.0024 72.0388 59.1584 72.5268 59.4704 72.8708C59.7904 73.2068 60.1904 73.3748 60.6704 73.3748ZM65.0888 71.4068C65.0888 70.7188 65.2288 70.1188 65.5088 69.6068C65.7888 69.0868 66.1768 68.6868 66.6728 68.4068C67.1688 68.1188 67.7368 67.9748 68.3768 67.9748C69.2008 67.9748 69.8808 68.1828 70.4168 68.5988C70.9608 69.0068 71.3248 69.5828 71.5088 70.3268H69.6968C69.6008 70.0388 69.4368 69.8148 69.2048 69.6548C68.9808 69.4868 68.7008 69.4028 68.3648 69.4028C67.8848 69.4028 67.5048 69.5788 67.2248 69.9308C66.9448 70.2748 66.8048 70.7668 66.8048 71.4068C66.8048 72.0388 66.9448 72.5308 67.2248 72.8828C67.5048 73.2268 67.8848 73.3988 68.3648 73.3988C69.0448 73.3988 69.4888 73.0948 69.6968 72.4868H71.5088C71.3248 73.2068 70.9608 73.7788 70.4168 74.2028C69.8728 74.6268 69.1928 74.8388 68.3768 74.8388C67.7368 74.8388 67.1688 74.6988 66.6728 74.4188C66.1768 74.1308 65.7888 73.7308 65.5088 73.2188C65.2288 72.6988 65.0888 72.0948 65.0888 71.4068ZM76.8255 74.7308L74.5695 71.8988V74.7308H72.8895V65.8508H74.5695V70.9028L76.8015 68.0828H78.9855L76.0575 71.4188L79.0095 74.7308H76.8255ZM89.4167 68.0828L85.3007 77.8748H83.5127L84.9527 74.5628L82.2887 68.0828H84.1727L85.8887 72.7268L87.6287 68.0828H89.4167ZM93.4243 74.8388C92.7843 74.8388 92.2083 74.6988 91.6963 74.4188C91.1843 74.1308 90.7803 73.7268 90.4843 73.2068C90.1963 72.6868 90.0523 72.0868 90.0523 71.4068C90.0523 70.7268 90.2003 70.1268 90.4963 69.6068C90.8003 69.0868 91.2123 68.6868 91.7323 68.4068C92.2523 68.1188 92.8323 67.9748 93.4723 67.9748C94.1123 67.9748 94.6923 68.1188 95.2123 68.4068C95.7323 68.6868 96.1403 69.0868 96.4363 69.6068C96.7403 70.1268 96.8923 70.7268 96.8923 71.4068C96.8923 72.0868 96.7363 72.6868 96.4243 73.2068C96.1203 73.7268 95.7043 74.1308 95.1763 74.4188C94.6563 74.6988 94.0723 74.8388 93.4243 74.8388ZM93.4243 73.3748C93.7283 73.3748 94.0123 73.3028 94.2763 73.1588C94.5483 73.0068 94.7643 72.7828 94.9243 72.4868C95.0843 72.1908 95.1643 71.8308 95.1643 71.4068C95.1643 70.7748 94.9963 70.2908 94.6603 69.9548C94.3323 69.6108 93.9283 69.4388 93.4483 69.4388C92.9683 69.4388 92.5643 69.6108 92.2363 69.9548C91.9163 70.2908 91.7563 70.7748 91.7563 71.4068C91.7563 72.0388 91.9123 72.5268 92.2243 72.8708C92.5443 73.2068 92.9443 73.3748 93.4243 73.3748ZM104.551 68.0828V74.7308H102.859V73.8908C102.643 74.1788 102.359 74.4068 102.007 74.5748C101.663 74.7348 101.287 74.8148 100.879 74.8148C100.359 74.8148 99.8987 74.7068 99.4987 74.4908C99.0987 74.2668 98.7827 73.9428 98.5507 73.5188C98.3267 73.0868 98.2147 72.5748 98.2147 71.9828V68.0828H99.8947V71.7428C99.8947 72.2708 100.027 72.6788 100.291 72.9668C100.555 73.2468 100.915 73.3868 101.371 73.3868C101.835 73.3868 102.199 73.2468 102.463 72.9668C102.727 72.6788 102.859 72.2708 102.859 71.7428V68.0828H104.551ZM108.038 69.1148C108.254 68.7628 108.534 68.4868 108.878 68.2868C109.23 68.0868 109.63 67.9868 110.078 67.9868V69.7508H109.634C109.106 69.7508 108.706 69.8748 108.434 70.1228C108.17 70.3708 108.038 70.8028 108.038 71.4188V74.7308H106.358V68.0828H108.038V69.1148ZM113.961 70.5308C113.961 69.7068 114.145 68.9708 114.513 68.3228C114.889 67.6668 115.397 67.1588 116.037 66.7988C116.685 66.4308 117.409 66.2468 118.209 66.2468C119.145 66.2468 119.965 66.4868 120.669 66.9668C121.373 67.4468 121.865 68.1108 122.145 68.9588H120.213C120.021 68.5588 119.749 68.2588 119.397 68.0588C119.053 67.8588 118.653 67.7588 118.197 67.7588C117.709 67.7588 117.273 67.8748 116.889 68.1068C116.513 68.3308 116.217 68.6508 116.001 69.0668C115.793 69.4828 115.689 69.9708 115.689 70.5308C115.689 71.0828 115.793 71.5708 116.001 71.9948C116.217 72.4108 116.513 72.7348 116.889 72.9668C117.273 73.1908 117.709 73.3028 118.197 73.3028C118.653 73.3028 119.053 73.2028 119.397 73.0028C119.749 72.7948 120.021 72.4908 120.213 72.0908H122.145C121.865 72.9468 121.373 73.6148 120.669 74.0948C119.973 74.5668 119.153 74.8028 118.209 74.8028C117.409 74.8028 116.685 74.6228 116.037 74.2628C115.397 73.8948 114.889 73.3868 114.513 72.7388C114.145 72.0908 113.961 71.3548 113.961 70.5308ZM123.298 71.3828C123.298 70.7108 123.43 70.1148 123.694 69.5948C123.966 69.0748 124.33 68.6748 124.786 68.3948C125.25 68.1148 125.766 67.9748 126.334 67.9748C126.83 67.9748 127.262 68.0748 127.63 68.2748C128.006 68.4748 128.306 68.7268 128.53 69.0308V68.0828H130.222V74.7308H128.53V73.7588C128.314 74.0708 128.014 74.3308 127.63 74.5388C127.254 74.7388 126.818 74.8388 126.322 74.8388C125.762 74.8388 125.25 74.6948 124.786 74.4068C124.33 74.1188 123.966 73.7148 123.694 73.1948C123.43 72.6668 123.298 72.0628 123.298 71.3828ZM128.53 71.4068C128.53 70.9988 128.45 70.6508 128.29 70.3628C128.13 70.0668 127.914 69.8428 127.642 69.6908C127.37 69.5308 127.078 69.4508 126.766 69.4508C126.454 69.4508 126.166 69.5268 125.902 69.6788C125.638 69.8308 125.422 70.0548 125.254 70.3508C125.094 70.6388 125.014 70.9828 125.014 71.3828C125.014 71.7828 125.094 72.1348 125.254 72.4388C125.422 72.7348 125.638 72.9628 125.902 73.1228C126.174 73.2828 126.462 73.3628 126.766 73.3628C127.078 73.3628 127.37 73.2868 127.642 73.1348C127.914 72.9748 128.13 72.7508 128.29 72.4628C128.45 72.1668 128.53 71.8148 128.53 71.4068ZM135.697 67.9868C136.489 67.9868 137.129 68.2388 137.617 68.7428C138.105 69.2388 138.349 69.9348 138.349 70.8308V74.7308H136.669V71.0588C136.669 70.5308 136.537 70.1268 136.273 69.8468C136.009 69.5588 135.649 69.4148 135.193 69.4148C134.729 69.4148 134.361 69.5588 134.089 69.8468C133.825 70.1268 133.693 70.5308 133.693 71.0588V74.7308H132.013V68.0828H133.693V68.9108C133.917 68.6228 134.201 68.3988 134.545 68.2388C134.897 68.0708 135.281 67.9868 135.697 67.9868ZM139.665 71.3828C139.665 70.7108 139.797 70.1148 140.061 69.5948C140.333 69.0748 140.697 68.6748 141.153 68.3948C141.617 68.1148 142.133 67.9748 142.701 67.9748C143.197 67.9748 143.629 68.0748 143.997 68.2748C144.373 68.4748 144.673 68.7268 144.897 69.0308V68.0828H146.589V74.7308H144.897V73.7588C144.681 74.0708 144.381 74.3308 143.997 74.5388C143.621 74.7388 143.185 74.8388 142.689 74.8388C142.129 74.8388 141.617 74.6948 141.153 74.4068C140.697 74.1188 140.333 73.7148 140.061 73.1948C139.797 72.6668 139.665 72.0628 139.665 71.3828ZM144.897 71.4068C144.897 70.9988 144.817 70.6508 144.657 70.3628C144.497 70.0668 144.281 69.8428 144.009 69.6908C143.737 69.5308 143.445 69.4508 143.133 69.4508C142.821 69.4508 142.533 69.5268 142.269 69.6788C142.005 69.8308 141.789 70.0548 141.621 70.3508C141.461 70.6388 141.381 70.9828 141.381 71.3828C141.381 71.7828 141.461 72.1348 141.621 72.4388C141.789 72.7348 142.005 72.9628 142.269 73.1228C142.541 73.2828 142.829 73.3628 143.133 73.3628C143.445 73.3628 143.737 73.2868 144.009 73.1348C144.281 72.9748 144.497 72.7508 144.657 72.4628C144.817 72.1668 144.897 71.8148 144.897 71.4068ZM147.947 71.3828C147.947 70.7108 148.079 70.1148 148.343 69.5948C148.615 69.0748 148.983 68.6748 149.447 68.3948C149.911 68.1148 150.427 67.9748 150.995 67.9748C151.427 67.9748 151.839 68.0708 152.231 68.2628C152.623 68.4468 152.935 68.6948 153.167 69.0068V65.8508H154.871V74.7308H153.167V73.7468C152.959 74.0748 152.667 74.3388 152.291 74.5388C151.915 74.7388 151.479 74.8388 150.983 74.8388C150.423 74.8388 149.911 74.6948 149.447 74.4068C148.983 74.1188 148.615 73.7148 148.343 73.1948C148.079 72.6668 147.947 72.0628 147.947 71.3828ZM153.179 71.4068C153.179 70.9988 153.099 70.6508 152.939 70.3628C152.779 70.0668 152.563 69.8428 152.291 69.6908C152.019 69.5308 151.727 69.4508 151.415 69.4508C151.103 69.4508 150.815 69.5268 150.551 69.6788C150.287 69.8308 150.071 70.0548 149.903 70.3508C149.743 70.6388 149.663 70.9828 149.663 71.3828C149.663 71.7828 149.743 72.1348 149.903 72.4388C150.071 72.7348 150.287 72.9628 150.551 73.1228C150.823 73.2828 151.111 73.3628 151.415 73.3628C151.727 73.3628 152.019 73.2868 152.291 73.1348C152.563 72.9748 152.779 72.7508 152.939 72.4628C153.099 72.1668 153.179 71.8148 153.179 71.4068ZM157.514 67.2908C157.218 67.2908 156.97 67.1988 156.77 67.0148C156.578 66.8228 156.482 66.5868 156.482 66.3068C156.482 66.0268 156.578 65.7948 156.77 65.6108C156.97 65.4188 157.218 65.3228 157.514 65.3228C157.81 65.3228 158.054 65.4188 158.246 65.6108C158.446 65.7948 158.546 66.0268 158.546 66.3068C158.546 66.5868 158.446 66.8228 158.246 67.0148C158.054 67.1988 157.81 67.2908 157.514 67.2908ZM158.342 68.0828V74.7308H156.662V68.0828H158.342ZM159.72 71.3828C159.72 70.7108 159.852 70.1148 160.116 69.5948C160.388 69.0748 160.752 68.6748 161.208 68.3948C161.672 68.1148 162.188 67.9748 162.756 67.9748C163.252 67.9748 163.684 68.0748 164.052 68.2748C164.428 68.4748 164.728 68.7268 164.952 69.0308V68.0828H166.644V74.7308H164.952V73.7588C164.736 74.0708 164.436 74.3308 164.052 74.5388C163.676 74.7388 163.24 74.8388 162.744 74.8388C162.184 74.8388 161.672 74.6948 161.208 74.4068C160.752 74.1188 160.388 73.7148 160.116 73.1948C159.852 72.6668 159.72 72.0628 159.72 71.3828ZM164.952 71.4068C164.952 70.9988 164.872 70.6508 164.712 70.3628C164.552 70.0668 164.336 69.8428 164.064 69.6908C163.792 69.5308 163.5 69.4508 163.188 69.4508C162.876 69.4508 162.588 69.5268 162.324 69.6788C162.06 69.8308 161.844 70.0548 161.676 70.3508C161.516 70.6388 161.436 70.9828 161.436 71.3828C161.436 71.7828 161.516 72.1348 161.676 72.4388C161.844 72.7348 162.06 72.9628 162.324 73.1228C162.596 73.2828 162.884 73.3628 163.188 73.3628C163.5 73.3628 163.792 73.2868 164.064 73.1348C164.336 72.9748 164.552 72.7508 164.712 72.4628C164.872 72.1668 164.952 71.8148 164.952 71.4068ZM172.119 67.9868C172.911 67.9868 173.551 68.2388 174.039 68.7428C174.527 69.2388 174.771 69.9348 174.771 70.8308V74.7308H173.091V71.0588C173.091 70.5308 172.959 70.1268 172.695 69.8468C172.431 69.5588 172.071 69.4148 171.615 69.4148C171.151 69.4148 170.783 69.5588 170.511 69.8468C170.247 70.1268 170.115 70.5308 170.115 71.0588V74.7308H168.435V68.0828H170.115V68.9108C170.339 68.6228 170.623 68.3988 170.967 68.2388C171.319 68.0708 171.703 67.9868 172.119 67.9868ZM179.096 71.3828C179.096 70.7108 179.228 70.1148 179.492 69.5948C179.764 69.0748 180.132 68.6748 180.596 68.3948C181.06 68.1148 181.576 67.9748 182.144 67.9748C182.576 67.9748 182.988 68.0708 183.38 68.2628C183.772 68.4468 184.084 68.6948 184.316 69.0068V65.8508H186.02V74.7308H184.316V73.7468C184.108 74.0748 183.816 74.3388 183.44 74.5388C183.064 74.7388 182.628 74.8388 182.132 74.8388C181.572 74.8388 181.06 74.6948 180.596 74.4068C180.132 74.1188 179.764 73.7148 179.492 73.1948C179.228 72.6668 179.096 72.0628 179.096 71.3828ZM184.328 71.4068C184.328 70.9988 184.248 70.6508 184.088 70.3628C183.928 70.0668 183.712 69.8428 183.44 69.6908C183.168 69.5308 182.876 69.4508 182.564 69.4508C182.252 69.4508 181.964 69.5268 181.7 69.6788C181.436 69.8308 181.22 70.0548 181.052 70.3508C180.892 70.6388 180.812 70.9828 180.812 71.3828C180.812 71.7828 180.892 72.1348 181.052 72.4388C181.22 72.7348 181.436 72.9628 181.7 73.1228C181.972 73.2828 182.26 73.3628 182.564 73.3628C182.876 73.3628 183.168 73.2868 183.44 73.1348C183.712 72.9748 183.928 72.7508 184.088 72.4628C184.248 72.1668 184.328 71.8148 184.328 71.4068ZM189.491 69.1148C189.707 68.7628 189.987 68.4868 190.331 68.2868C190.683 68.0868 191.083 67.9868 191.531 67.9868V69.7508H191.087C190.559 69.7508 190.159 69.8748 189.887 70.1228C189.623 70.3708 189.491 70.8028 189.491 71.4188V74.7308H187.811V68.0828H189.491V69.1148ZM198.992 71.2628C198.992 71.5028 198.976 71.7188 198.944 71.9108H194.084C194.124 72.3908 194.292 72.7668 194.588 73.0388C194.884 73.3108 195.248 73.4468 195.68 73.4468C196.304 73.4468 196.748 73.1788 197.012 72.6428H198.824C198.632 73.2828 198.264 73.8108 197.72 74.2268C197.176 74.6348 196.508 74.8388 195.716 74.8388C195.076 74.8388 194.5 74.6988 193.988 74.4188C193.484 74.1308 193.088 73.7268 192.8 73.2068C192.52 72.6868 192.38 72.0868 192.38 71.4068C192.38 70.7188 192.52 70.1148 192.8 69.5948C193.08 69.0748 193.472 68.6748 193.976 68.3948C194.48 68.1148 195.06 67.9748 195.716 67.9748C196.348 67.9748 196.912 68.1108 197.408 68.3828C197.912 68.6548 198.3 69.0428 198.572 69.5468C198.852 70.0428 198.992 70.6148 198.992 71.2628ZM197.252 70.7828C197.244 70.3508 197.088 70.0068 196.784 69.7508C196.48 69.4868 196.108 69.3548 195.668 69.3548C195.252 69.3548 194.9 69.4828 194.612 69.7388C194.332 69.9868 194.16 70.3348 194.096 70.7828H197.252ZM199.936 71.3828C199.936 70.7108 200.068 70.1148 200.332 69.5948C200.604 69.0748 200.968 68.6748 201.424 68.3948C201.888 68.1148 202.404 67.9748 202.972 67.9748C203.468 67.9748 203.9 68.0748 204.268 68.2748C204.644 68.4748 204.944 68.7268 205.168 69.0308V68.0828H206.86V74.7308H205.168V73.7588C204.952 74.0708 204.652 74.3308 204.268 74.5388C203.892 74.7388 203.456 74.8388 202.96 74.8388C202.4 74.8388 201.888 74.6948 201.424 74.4068C200.968 74.1188 200.604 73.7148 200.332 73.1948C200.068 72.6668 199.936 72.0628 199.936 71.3828ZM205.168 71.4068C205.168 70.9988 205.088 70.6508 204.928 70.3628C204.768 70.0668 204.552 69.8428 204.28 69.6908C204.008 69.5308 203.716 69.4508 203.404 69.4508C203.092 69.4508 202.804 69.5268 202.54 69.6788C202.276 69.8308 202.06 70.0548 201.892 70.3508C201.732 70.6388 201.652 70.9828 201.652 71.3828C201.652 71.7828 201.732 72.1348 201.892 72.4388C202.06 72.7348 202.276 72.9628 202.54 73.1228C202.812 73.2828 203.1 73.3628 203.404 73.3628C203.716 73.3628 204.008 73.2868 204.28 73.1348C204.552 72.9748 204.768 72.7508 204.928 72.4628C205.088 72.1668 205.168 71.8148 205.168 71.4068ZM216.907 67.9868C217.723 67.9868 218.379 68.2388 218.875 68.7428C219.379 69.2388 219.631 69.9348 219.631 70.8308V74.7308H217.951V71.0588C217.951 70.5388 217.819 70.1428 217.555 69.8708C217.291 69.5908 216.931 69.4508 216.475 69.4508C216.019 69.4508 215.655 69.5908 215.383 69.8708C215.119 70.1428 214.987 70.5388 214.987 71.0588V74.7308H213.307V71.0588C213.307 70.5388 213.175 70.1428 212.911 69.8708C212.647 69.5908 212.287 69.4508 211.831 69.4508C211.367 69.4508 210.999 69.5908 210.727 69.8708C210.463 70.1428 210.331 70.5388 210.331 71.0588V74.7308H208.651V68.0828H210.331V68.8868C210.547 68.6068 210.823 68.3868 211.159 68.2268C211.503 68.0668 211.879 67.9868 212.287 67.9868C212.807 67.9868 213.271 68.0988 213.679 68.3228C214.087 68.5388 214.403 68.8508 214.627 69.2588C214.843 68.8748 215.155 68.5668 215.563 68.3348C215.979 68.1028 216.427 67.9868 216.907 67.9868ZM233.601 68.0828L231.657 74.7308H229.845L228.633 70.0868L227.421 74.7308H225.597L223.641 68.0828H225.345L226.521 73.1468L227.793 68.0828H229.569L230.817 73.1348L231.993 68.0828H233.601ZM235.512 67.2908C235.216 67.2908 234.968 67.1988 234.768 67.0148C234.576 66.8228 234.48 66.5868 234.48 66.3068C234.48 66.0268 234.576 65.7948 234.768 65.6108C234.968 65.4188 235.216 65.3228 235.512 65.3228C235.808 65.3228 236.052 65.4188 236.244 65.6108C236.444 65.7948 236.544 66.0268 236.544 66.3068C236.544 66.5868 236.444 66.8228 236.244 67.0148C236.052 67.1988 235.808 67.2908 235.512 67.2908ZM236.34 68.0828V74.7308H234.66V68.0828H236.34ZM240.106 69.4628V72.6788C240.106 72.9028 240.158 73.0668 240.262 73.1708C240.374 73.2668 240.558 73.3148 240.814 73.3148H241.594V74.7308H240.538C239.122 74.7308 238.414 74.0428 238.414 72.6668V69.4628H237.622V68.0828H238.414V66.4388H240.106V68.0828H241.594V69.4628H240.106ZM246.696 67.9868C247.2 67.9868 247.648 68.0988 248.04 68.3228C248.432 68.5388 248.736 68.8628 248.952 69.2948C249.176 69.7188 249.288 70.2308 249.288 70.8308V74.7308H247.608V71.0588C247.608 70.5308 247.476 70.1268 247.212 69.8468C246.948 69.5588 246.588 69.4148 246.132 69.4148C245.668 69.4148 245.3 69.5588 245.028 69.8468C244.764 70.1268 244.632 70.5308 244.632 71.0588V74.7308H242.952V65.8508H244.632V68.9108C244.848 68.6228 245.136 68.3988 245.496 68.2388C245.856 68.0708 246.256 67.9868 246.696 67.9868ZM260.321 68.0828V74.7308H258.629V73.8908C258.413 74.1788 258.129 74.4068 257.777 74.5748C257.433 74.7348 257.057 74.8148 256.649 74.8148C256.129 74.8148 255.669 74.7068 255.269 74.4908C254.869 74.2668 254.553 73.9428 254.321 73.5188C254.097 73.0868 253.985 72.5748 253.985 71.9828V68.0828H255.665V71.7428C255.665 72.2708 255.797 72.6788 256.061 72.9668C256.325 73.2468 256.685 73.3868 257.141 73.3868C257.605 73.3868 257.969 73.2468 258.233 72.9668C258.497 72.6788 258.629 72.2708 258.629 71.7428V68.0828H260.321ZM264.673 74.8388C264.129 74.8388 263.641 74.7428 263.209 74.5508C262.777 74.3508 262.433 74.0828 262.177 73.7468C261.929 73.4108 261.793 73.0388 261.769 72.6308H263.461C263.493 72.8868 263.617 73.0988 263.833 73.2668C264.057 73.4348 264.333 73.5188 264.661 73.5188C264.981 73.5188 265.229 73.4548 265.405 73.3268C265.589 73.1988 265.681 73.0348 265.681 72.8348C265.681 72.6188 265.569 72.4588 265.345 72.3548C265.129 72.2428 264.781 72.1228 264.301 71.9948C263.805 71.8748 263.397 71.7508 263.077 71.6228C262.765 71.4948 262.493 71.2988 262.261 71.0348C262.037 70.7708 261.925 70.4148 261.925 69.9668C261.925 69.5988 262.029 69.2628 262.237 68.9588C262.453 68.6548 262.757 68.4148 263.149 68.2388C263.549 68.0628 264.017 67.9748 264.553 67.9748C265.345 67.9748 265.977 68.1748 266.449 68.5748C266.921 68.9668 267.181 69.4988 267.229 70.1708H265.621C265.597 69.9068 265.485 69.6988 265.285 69.5468C265.093 69.3868 264.833 69.3068 264.505 69.3068C264.201 69.3068 263.965 69.3628 263.797 69.4748C263.637 69.5868 263.557 69.7428 263.557 69.9428C263.557 70.1668 263.669 70.3388 263.893 70.4588C264.117 70.5708 264.465 70.6868 264.937 70.8068C265.417 70.9268 265.813 71.0508 266.125 71.1788C266.437 71.3068 266.705 71.5068 266.929 71.7788C267.161 72.0428 267.281 72.3948 267.289 72.8348C267.289 73.2188 267.181 73.5628 266.965 73.8668C266.757 74.1708 266.453 74.4108 266.053 74.5868C265.661 74.7548 265.201 74.8388 264.673 74.8388ZM269.562 74.8148C269.258 74.8148 269.006 74.7228 268.806 74.5388C268.614 74.3468 268.518 74.1108 268.518 73.8308C268.518 73.5508 268.614 73.3188 268.806 73.1348C269.006 72.9428 269.258 72.8468 269.562 72.8468C269.858 72.8468 270.102 72.9428 270.294 73.1348C270.486 73.3188 270.582 73.5508 270.582 73.8308C270.582 74.1108 270.486 74.3468 270.294 74.5388C270.102 74.7228 269.858 74.8148 269.562 74.8148Z" fill="black"/>
<g clip-path="url(#clip2_340_2456)">
<path d="M133.665 30.6102L134.832 36.3539L152.489 21.1055L133.632 30.5985L133.665 30.6102Z" fill="#33333F"/>
<path d="M152.489 21.1055L127.217 28.2933L133.665 30.6102L152.489 21.1055Z" fill="#ADCCFF"/>
<path d="M135.651 31.3239L134.832 36.3541L152.489 21.1056L135.651 31.3239Z" fill="#2F434D"/>
<path d="M135.651 31.3237L145.303 34.7911L152.489 21.1055L135.651 31.3237Z" fill="#ADCCFF"/>
</g>
</g>
<rect x="20.5" y="7.08008" width="319" height="89" rx="9.5" stroke="#D3E2FF"/>
</g>
<defs>
<filter id="filter0_d_340_2456" x="10" y="0.580078" width="340" height="110" filterUnits="userSpaceOnUse" color-interpolation-filters="sRGB">
<feFlood flood-opacity="0" result="BackgroundImageFix"/>
<feColorMatrix in="SourceAlpha" type="matrix" values="0 0 0 0 0 0 0 0 0 0 0 0 0 0 0 0 0 0 127 0" result="hardAlpha"/>
<feOffset dy="4"/>
<feGaussianBlur stdDeviation="5"/>
<feComposite in2="hardAlpha" operator="out"/>
<feColorMatrix type="matrix" values="0 0 0 0 0.688032 0 0 0 0 0.782973 0 0 0 0 0.963591 0 0 0 0.2 0"/>
<feBlend mode="normal" in2="BackgroundImageFix" result="effect1_dropShadow_340_2456"/>
<feBlend mode="normal" in="SourceGraphic" in2="effect1_dropShadow_340_2456" result="shape"/>
</filter>
<clipPath id="clip0_340_2456">
<rect x="20" y="6.58008" width="320" height="90" rx="10" fill="white"/>
</clipPath>
<clipPath id="clip1_340_2456">
<rect width="80" height="20" fill="white" transform="translate(36.7998 20.7308)"/>
</clipPath>
<clipPath id="clip2_340_2456">
<rect width="26.4213" height="12.5176" fill="white" transform="matrix(0.989839 -0.142384 0.128041 0.991793 126.81 24.8058)"/>
</clipPath>
</defs>
</svg>
