<svg width="15" height="14" viewBox="0 0 15 14" fill="none" xmlns="http://www.w3.org/2000/svg">
<g clip-path="url(#clip0_32_4556)">
<path d="M12.127 2.34628C10.9501 1.16941 9.3244 0.441406 7.52846 0.441406C3.93702 0.441406 1.02502 3.35297 1.02502 6.94484C1.02502 8.14009 1.34746 9.25965 1.90965 10.2222L1.89302 10.1915L0.970337 13.5612L4.4174 12.6568C5.31471 13.1552 6.38527 13.4483 7.52452 13.4483H7.52715C11.1186 13.447 14.0293 10.535 14.0293 6.94353C14.0293 5.14847 13.3021 3.52359 12.1266 2.34672L12.127 2.34628ZM7.52715 12.3497H7.52496C6.5104 12.3497 5.56059 12.0697 4.7499 11.5828L4.7744 11.5963L4.57709 11.4795L2.53177 12.0163L3.07734 10.0218L2.94871 9.81747C2.43027 9.00284 2.12227 8.01016 2.12227 6.94528C2.12227 3.96066 4.54209 1.54084 7.52671 1.54084C10.5113 1.54084 12.9311 3.96066 12.9311 6.94528C12.9311 9.92991 10.5122 12.3497 7.52715 12.3497ZM10.4916 8.3024C10.3293 8.22103 9.53046 7.82859 9.38171 7.7739C9.23252 7.71966 9.12402 7.69297 9.01552 7.85572C8.9079 8.01803 8.5964 8.38378 8.50146 8.49228C8.40696 8.60122 8.31159 8.61434 8.14927 8.53341C7.64615 8.32953 7.2139 8.05784 6.83809 7.72316L6.84246 7.72709C6.4929 7.40334 6.19321 7.03278 5.95127 6.62416L5.93902 6.60141C5.84452 6.43909 5.92896 6.35116 6.0099 6.27022C6.08296 6.19759 6.17265 6.08034 6.25359 5.98584C6.31746 5.90753 6.37215 5.81784 6.41371 5.72159L6.41634 5.71416C6.43515 5.67609 6.44609 5.63191 6.44609 5.58466C6.44609 5.52734 6.4299 5.47397 6.4019 5.42847L6.40277 5.42978C6.36165 5.34841 6.03702 4.54866 5.90184 4.22316C5.76971 3.90641 5.6354 3.94972 5.53609 3.94447C5.44159 3.94009 5.33309 3.93922 5.22459 3.93922C5.05177 3.94359 4.89821 4.02147 4.79234 4.14178L4.7919 4.14266C4.44102 4.47559 4.22315 4.94503 4.22315 5.46522C4.22315 5.47659 4.22315 5.48841 4.22359 5.49978V5.49803C4.2809 6.13984 4.52152 6.71603 4.89165 7.18547L4.8864 7.17891C5.58815 8.21972 6.52352 9.05228 7.62121 9.61316L7.66234 9.63197C7.90209 9.74047 8.20921 9.85641 8.52334 9.95572L8.58852 9.97366C8.7819 10.0349 9.00459 10.0703 9.23559 10.0703C9.36815 10.0703 9.49852 10.0585 9.62452 10.0362L9.61096 10.038C10.0786 9.9404 10.4667 9.65822 10.7034 9.27278L10.7073 9.26534C10.7795 9.10522 10.8215 8.91841 10.8215 8.72197C10.8215 8.64103 10.8145 8.56184 10.801 8.48484L10.8023 8.49316C10.762 8.42534 10.6535 8.38509 10.4908 8.30328L10.4916 8.3024Z" fill="#263238"/>
</g>
<defs>
<clipPath id="clip0_32_4556">
<rect width="14" height="14" fill="white" transform="translate(0.5)"/>
</clipPath>
</defs>
</svg>
