<svg width="12" height="15" viewBox="0 0 12 15" fill="none" xmlns="http://www.w3.org/2000/svg">
<g clip-path="url(#clip0_39_3382)">
<path d="M11.5136 10.3785C11.4606 10.1051 11.3465 9.84386 11.1787 9.61146C11.0109 9.37905 10.7929 9.18051 10.5385 9.02841C10.3098 8.89463 10.0821 8.74756 9.84726 8.59986C9.4048 8.2958 8.85627 8.15485 8.31138 8.2052C7.76649 8.25555 7.26541 8.49349 6.90836 8.87142L5.89248 9.98713C5.35756 9.55624 4.86001 9.08755 4.4045 8.58544C3.94475 8.08661 3.52819 7.55563 3.15874 6.99749L4.5338 6.27458C5.00184 6.01804 5.34466 5.60702 5.49369 5.12375C5.64271 4.64048 5.58696 4.12059 5.33758 3.66805C5.21759 3.45679 5.09935 3.22561 4.9979 2.96912C4.87758 2.71251 4.70081 2.48097 4.47886 2.28925C4.25691 2.09753 3.99463 1.94983 3.70875 1.85557C3.42287 1.7613 3.11965 1.72254 2.81841 1.74175C2.51716 1.76095 2.22451 1.83771 1.95908 1.96712L1.19981 2.31561C0.895498 2.44623 0.646988 2.66477 0.491628 2.9384C0.336269 3.21202 0.282454 3.52593 0.338273 3.83296C0.525055 4.95247 0.923591 6.03606 1.51575 7.03444C2.00654 7.88583 2.59911 8.6852 3.28226 9.41747C3.94949 10.162 4.70455 10.8364 5.53322 11.428C6.50204 12.1367 7.59611 12.6854 8.76564 13.0492C8.88431 13.0857 9.00687 13.1099 9.13101 13.1213C9.40663 13.1382 9.68125 13.0894 9.92832 12.9797C10.1754 12.87 10.3865 12.7031 10.5413 12.4952L11.0449 11.9035C11.2328 11.6938 11.3713 11.4503 11.4519 11.188C11.5325 10.9257 11.5535 10.6502 11.5136 10.3785Z" fill="#9EBBFD"/>
</g>
<defs>
<clipPath id="clip0_39_3382">
<rect width="12" height="13.3333" fill="white" transform="translate(0 0.896179)"/>
</clipPath>
</defs>
</svg>
