<svg width="9" height="11" viewBox="0 0 9 11" fill="none" xmlns="http://www.w3.org/2000/svg">
<g clip-path="url(#clip0_39_3312)">
<path d="M8.44401 7.39209C8.40547 7.19332 8.32258 7.00346 8.20058 6.83453C8.07858 6.6656 7.92013 6.52129 7.73526 6.41073C7.56896 6.31349 7.4035 6.20659 7.23278 6.09923C6.91118 5.87822 6.51246 5.77576 6.1164 5.81236C5.72033 5.84896 5.35611 6.02191 5.09658 6.29662L4.35817 7.10759C3.96935 6.7944 3.60769 6.45371 3.2766 6.08875C2.94241 5.72616 2.63963 5.3402 2.37109 4.93451L3.37058 4.40905C3.71079 4.22257 3.95997 3.92381 4.0683 3.57254C4.17662 3.22126 4.13609 2.84337 3.95483 2.51443C3.86761 2.36087 3.78167 2.19283 3.70792 2.0064C3.62047 1.81988 3.49198 1.65158 3.33065 1.51222C3.16932 1.37286 2.97868 1.2655 2.77088 1.19699C2.56308 1.12847 2.34267 1.10029 2.12371 1.11425C1.90475 1.12821 1.69202 1.18401 1.49909 1.27807L0.947195 1.53138C0.726001 1.62632 0.545365 1.78518 0.432439 1.98406C0.319513 2.18295 0.280396 2.41113 0.32097 2.6343C0.456736 3.44804 0.74642 4.23567 1.17684 4.96136C1.53359 5.58022 1.96431 6.16126 2.46087 6.69352C2.94586 7.23469 3.49469 7.7249 4.09703 8.1549C4.80124 8.67005 5.59649 9.06891 6.44659 9.33332C6.53285 9.35987 6.62193 9.37745 6.71217 9.38574C6.9125 9.398 7.11212 9.36254 7.29171 9.28281C7.47129 9.20308 7.62477 9.08177 7.73729 8.93063L8.10335 8.50054C8.23989 8.34813 8.34056 8.17114 8.39915 7.98048C8.45774 7.78983 8.47301 7.58958 8.44401 7.39209Z" fill="#025B95"/>
</g>
<defs>
<clipPath id="clip0_39_3312">
<rect width="8.72247" height="9.69163" fill="white" transform="translate(0.0748901 0.499641)"/>
</clipPath>
</defs>
</svg>
