<svg width="14" height="11" viewBox="0 0 14 11" fill="none" xmlns="http://www.w3.org/2000/svg">
<path fill-rule="evenodd" clip-rule="evenodd" d="M0.188153 1.81757C4.19276e-08 2.18765 0 2.67187 0 3.6403V7.79072C0 8.75915 4.19276e-08 9.24337 0.188153 9.61345C0.354097 9.93876 0.618763 10.2032 0.944221 10.3688C1.3143 10.5577 1.79852 10.5577 2.76695 10.5577H11.0678C12.0362 10.5577 12.5204 10.5577 12.8905 10.3688C13.2157 10.2031 13.4801 9.93865 13.6459 9.61345C13.8347 9.24337 13.8347 8.75915 13.8347 7.79072V3.6403C13.8347 2.67187 13.8347 2.18765 13.6459 1.81757C13.4802 1.49211 13.2158 1.22745 12.8905 1.0615C12.5204 0.873352 12.0362 0.873352 11.0678 0.873352H2.76695C1.79852 0.873352 1.3143 0.873352 0.944221 1.0615C0.618658 1.22733 0.353979 1.49201 0.188153 1.81757ZM1.83103 2.25683H12.0037C12.078 2.25674 12.1503 2.28055 12.21 2.32475C12.2697 2.36895 12.3135 2.43118 12.3351 2.50225C12.3567 2.57331 12.3548 2.64943 12.3297 2.71935C12.3047 2.78926 12.2578 2.84926 12.196 2.89046L7.30198 6.16376C7.18816 6.23989 7.05431 6.28053 6.91737 6.28053C6.78044 6.28053 6.64658 6.23989 6.53276 6.16376L1.63873 2.89046C1.57694 2.84926 1.53005 2.78926 1.505 2.71935C1.47995 2.64943 1.47807 2.57331 1.49964 2.50225C1.52121 2.43118 1.56508 2.36895 1.62476 2.32475C1.68444 2.28055 1.75676 2.25674 1.83103 2.25683Z" fill="#9EBBFD"/>
</svg>
