<svg width="50" height="33" viewBox="0 0 50 33" fill="none" xmlns="http://www.w3.org/2000/svg">
<path fill-rule="evenodd" clip-rule="evenodd" d="M49.7537 29.8353C49.7523 30.6742 49.4184 31.4784 48.8251 32.0716C48.2318 32.6648 47.4276 32.9987 46.5887 33H3.66521C2.82611 32.9991 2.02163 32.6654 1.42825 32.0721C0.83487 31.4788 0.501043 30.6744 0.5 29.8353V3.16488C0.501013 2.24413 1.59009 1.98861 2.34862 2.51054L24.3393 17.642C24.5703 17.8019 24.8446 17.8876 25.1255 17.8878C25.4065 17.888 25.6808 17.8027 25.9121 17.6432L47.926 2.51525C48.6766 1.99944 49.7528 2.25481 49.7537 3.16554V29.8353ZM46.5887 0H25.1269H3.66521C3.6457 0 3.63793 0.0276411 3.654 0.0387001L23.994 14.0357C24.6763 14.5053 25.5776 14.5057 26.2603 14.0366L46.6046 0.0584276C46.6299 0.0410505 46.6194 0 46.5887 0Z" fill="#FF9370"/>
<path fill-rule="evenodd" clip-rule="evenodd" d="M46.5887 0H25.1269H3.66521C3.6457 0 3.63793 0.0276411 3.654 0.0387001L23.994 14.0357C24.6763 14.5053 25.5776 14.5057 26.2603 14.0366L46.6046 0.0584276C46.6299 0.0410505 46.6194 0 46.5887 0Z" fill="#FF9370"/>
</svg>
