<svg width="27" height="27" viewBox="0 0 27 27" fill="none" xmlns="http://www.w3.org/2000/svg">
<rect x="0.594376" y="0.44458" width="26.03" height="26.03" rx="13.015" fill="#061A31"/>
<path fill-rule="evenodd" clip-rule="evenodd" d="M10.4276 5.85978C9.17462 5.91632 8.0886 6.22266 7.21166 7.0959C6.33166 7.97372 6.02913 9.06404 5.97245 10.304C5.93722 11.0779 5.73121 16.9247 6.3286 18.458C6.73145 19.4925 7.52489 20.2878 8.56879 20.692C9.05589 20.8815 9.61194 21.0097 10.4276 21.0472C17.2478 21.3558 19.776 21.1878 20.8421 18.458C21.0313 17.9721 21.1615 17.4166 21.1975 16.6029C21.5092 9.76525 21.1469 8.28313 19.9583 7.0959C19.0155 6.15543 17.9065 5.51523 10.4276 5.85978ZM10.4904 19.672C9.74366 19.6384 9.33851 19.5139 9.06815 19.4093C8.38805 19.1449 7.87721 18.6362 7.61451 17.9601C7.15957 16.795 7.31046 11.2614 7.35105 10.366C7.39087 9.48895 7.56856 8.68738 8.18739 8.06855C8.95328 7.30456 9.94279 6.93013 16.6803 7.2342C17.5595 7.27393 18.3629 7.45125 18.9833 8.06855C19.7492 8.83253 20.1291 9.82966 19.8196 16.5413C19.7859 17.2862 19.6611 17.6904 19.5562 17.9601C18.8631 19.7363 17.2685 19.9829 10.4904 19.672ZM16.7546 9.37494C16.7546 9.88071 17.1659 10.292 17.6736 10.292C18.1814 10.292 18.5935 9.88071 18.5935 9.37494C18.5935 8.86918 18.1814 8.45829 17.6736 8.45829C17.1659 8.45829 16.7546 8.86918 16.7546 9.37494ZM9.65253 13.4531C9.65253 15.6198 11.4133 17.3764 13.5853 17.3764C15.7574 17.3764 17.5182 15.6198 17.5182 13.4531C17.5182 11.2864 15.7574 9.53091 13.5853 9.53091C11.4133 9.53091 9.65253 11.2864 9.65253 13.4531ZM11.0326 13.4531C11.0326 12.0474 12.1754 10.9068 13.5853 10.9068C14.9953 10.9068 16.138 12.0474 16.138 13.4531C16.138 14.8596 14.9953 16.0005 13.5853 16.0005C12.1754 16.0005 11.0326 14.8596 11.0326 13.4531Z" fill="#FFF6F2"/>
</svg>
