<svg width="27" height="27" viewBox="0 0 27 27" fill="none" xmlns="http://www.w3.org/2000/svg">
<rect x="0.000457764" y="0.44458" width="26.03" height="26.03" rx="13.015" fill="#061A31"/>
<path fill-rule="evenodd" clip-rule="evenodd" d="M9.57632 19.4833V11.3602H6.87664V19.4833H9.57632V19.4833ZM8.22676 10.2515C9.1679 10.2515 9.75415 9.6272 9.75415 8.8477C9.73636 8.05088 9.1679 7.44421 8.24441 7.44421C7.32077 7.44424 6.71704 8.0509 6.71704 8.84773C6.71704 9.62722 7.30298 10.2515 8.20899 10.2515L8.22676 10.2515ZM11.0705 19.4833C11.0705 19.4833 11.1059 12.1223 11.0705 11.3602H13.7706V12.5382H13.7527C14.1077 11.9839 14.7473 11.1694 16.2037 11.1694C17.9804 11.1694 19.3122 12.3304 19.3122 14.8256V19.4833H16.6125V15.1377C16.6125 14.0457 16.2219 13.3006 15.2446 13.3006C14.4989 13.3006 14.0545 13.803 13.8594 14.2885C13.788 14.4614 13.7706 14.7041 13.7706 14.9469V19.4833H11.0705Z" fill="#FFF6F2"/>
</svg>
