<svg width="143" height="31" viewBox="0 0 143 31" fill="none" xmlns="http://www.w3.org/2000/svg">
<g clip-path="url(#clip0_39_3353)">
<path d="M15.0804 1.98248C15.0804 2.01113 15.0061 2.03977 14.9089 2.03977C14.8174 2.03977 14.7374 2.06268 14.7374 2.09705C14.7374 2.1257 14.6345 2.15434 14.5087 2.15434C14.383 2.15434 14.2801 2.17725 14.2801 2.21162C14.2801 2.24027 14.2058 2.26891 14.1086 2.26891C14.0171 2.26891 13.9371 2.29182 13.9371 2.32619C13.9371 2.35484 13.8628 2.38348 13.7656 2.38348C13.6741 2.38348 13.5941 2.40639 13.5941 2.44077C13.5941 2.46941 13.5198 2.49805 13.4226 2.49805C13.3311 2.49805 13.2511 2.52097 13.2511 2.55534C13.2511 2.58398 13.1768 2.61262 13.0796 2.61262C12.9881 2.61262 12.9081 2.63554 12.9081 2.66991C12.9081 2.69855 12.8338 2.72719 12.7366 2.72719C12.6451 2.72719 12.5651 2.75011 12.5651 2.78448C12.5651 2.81312 12.4908 2.84176 12.3936 2.84176C12.3021 2.84176 12.2221 2.86468 12.2221 2.89905C12.2221 2.92769 12.1478 2.95634 12.0506 2.95634C11.9591 2.95634 11.8791 2.97925 11.8791 3.01362C11.8791 3.04226 11.8048 3.07091 11.7076 3.07091C11.6161 3.07091 11.5361 3.09382 11.5361 3.12819C11.5361 3.15683 11.4618 3.18548 11.3646 3.18548C11.2731 3.18548 11.1931 3.20839 11.1931 3.24276C11.1931 3.27141 11.0902 3.30005 10.9644 3.30005C10.8387 3.30005 10.7358 3.32296 10.7358 3.35733C10.7358 3.38598 10.6614 3.41462 10.5643 3.41462C10.4728 3.41462 10.3928 3.43753 10.3928 3.4719C10.3928 3.50055 10.3184 3.52919 10.2213 3.52919C10.1298 3.52919 10.0498 3.5521 10.0498 3.58648C10.0498 3.61512 9.97545 3.64376 9.87827 3.64376C9.7868 3.64376 9.70677 3.66668 9.70677 3.70105C9.70677 3.72969 9.63245 3.75833 9.53527 3.75833C9.4438 3.75833 9.36377 3.78125 9.36377 3.81562C9.36377 3.84426 9.28946 3.8729 9.19227 3.8729C9.10081 3.8729 9.02077 3.89582 9.02077 3.93019C9.02077 3.95883 8.94646 3.98747 8.84927 3.98747C8.75781 3.98747 8.67778 4.01039 8.67778 4.04476C8.67778 4.0734 8.60346 4.10205 8.50628 4.10205C8.41481 4.10205 8.33478 4.12496 8.33478 4.15933C8.33478 4.18797 8.26046 4.21662 8.16328 4.21662C8.07181 4.21662 7.99178 4.23953 7.99178 4.2739C7.99178 4.30254 7.91746 4.33119 7.82028 4.33119C7.72881 4.33119 7.64878 4.3541 7.64878 4.38847C7.64878 4.41711 7.54588 4.44576 7.42012 4.44576C7.29435 4.44576 7.19145 4.46867 7.19145 4.50304C7.19145 4.53168 7.11713 4.56033 7.01995 4.56033C6.92849 4.56033 6.84845 4.58324 6.84845 4.61761C6.84845 4.64626 6.77414 4.6749 6.67695 4.6749C6.58549 4.6749 6.50545 4.69781 6.50545 4.73218C6.50545 4.76083 6.43114 4.78947 6.33396 4.78947C6.24249 4.78947 6.16246 4.81238 6.16246 4.84676C6.16246 4.8754 6.08814 4.90404 5.99096 4.90404C5.89949 4.90404 5.81946 4.92695 5.81946 4.96133C5.81946 4.98997 5.74514 5.01861 5.64796 5.01861C5.55649 5.01861 5.47646 5.04152 5.47646 5.0759C5.47646 5.10454 5.40214 5.13318 5.30496 5.13318C5.2135 5.13318 5.13346 5.1561 5.13346 5.19047C5.13346 5.21911 5.05915 5.24775 4.96196 5.24775C4.8705 5.24775 4.79046 5.27067 4.79046 5.30504C4.79046 5.33368 4.71615 5.36232 4.61897 5.36232C4.5275 5.36232 4.44747 5.38524 4.44747 5.41961C4.44747 5.44825 4.34457 5.47689 4.2188 5.47689C4.09303 5.47689 3.99014 5.49981 3.99014 5.53418C3.99014 5.56282 3.91582 5.59147 3.81864 5.59147C3.72717 5.59147 3.64714 5.61438 3.64714 5.64875C3.64714 5.67739 3.57282 5.70604 3.47564 5.70604C3.38417 5.70604 3.30414 5.72895 3.30414 5.76332C3.30414 5.79197 3.22982 5.82061 3.13264 5.82061C3.04117 5.82061 2.96114 5.84352 2.96114 5.87789C2.96114 5.90654 2.88683 5.93518 2.78964 5.93518C2.69818 5.93518 2.61814 5.95809 2.61814 5.99246C2.61814 6.02111 2.54383 6.04975 2.44664 6.04975C2.31516 6.04975 2.27515 6.07266 2.27515 6.16432C2.27515 6.25598 2.31516 6.27889 2.44664 6.27889C2.54383 6.27889 2.61814 6.30181 2.61814 6.33618C2.61814 6.36482 2.69818 6.39346 2.78964 6.39346C2.88683 6.39346 2.96114 6.41638 2.96114 6.45075C2.96114 6.47939 3.04117 6.50803 3.13264 6.50803C3.22982 6.50803 3.30414 6.53095 3.30414 6.56532C3.30414 6.59396 3.38417 6.6226 3.47564 6.6226C3.57282 6.6226 3.64714 6.64552 3.64714 6.67989C3.64714 6.70853 3.72717 6.73717 3.81864 6.73717C3.91582 6.73717 3.99014 6.76009 3.99014 6.79446C3.99014 6.8231 4.07017 6.85175 4.16163 6.85175C4.25882 6.85175 4.33313 6.87466 4.33313 6.90903C4.33313 6.93767 4.38458 6.96632 4.44747 6.96632C4.51035 6.96632 4.5618 6.97777 4.5618 6.99496C4.5618 7.0637 4.27597 7.31003 4.20737 7.31003C4.16163 7.31003 4.09303 7.36159 4.0473 7.4246C4.00157 7.48761 3.93297 7.53917 3.89295 7.53917C3.79577 7.53917 2.96114 8.37554 2.96114 8.47292C2.96114 8.51302 2.90969 8.58177 2.84681 8.62759C2.78393 8.67342 2.73248 8.74789 2.73248 8.79945C2.73248 8.85101 2.68103 8.92548 2.61814 8.97131C2.55526 9.01714 2.50381 9.09734 2.50381 9.15462C2.50381 9.21191 2.48094 9.25773 2.44664 9.25773C2.41806 9.25773 2.38948 9.30929 2.38948 9.3723C2.38948 9.43532 2.36661 9.48688 2.33231 9.48688C2.30373 9.48688 2.27515 9.53843 2.27515 9.60145C2.27515 9.66446 2.25228 9.71602 2.21798 9.71602C2.1894 9.71602 2.16081 9.79049 2.16081 9.88787C2.16081 9.97953 2.13795 10.0597 2.10365 10.0597C2.07506 10.0597 2.04648 10.1628 2.04648 10.2889C2.04648 10.4149 2.02361 10.518 1.98931 10.518C1.95501 10.518 1.93215 10.6727 1.93215 10.8617C1.93215 11.0508 1.90928 11.2054 1.87498 11.2054C1.83496 11.2054 1.81781 12.1507 1.81781 13.9265V16.6533L1.6749 16.7908C1.60058 16.871 1.5034 16.934 1.46338 16.934C1.41765 16.934 1.34905 16.9855 1.30332 17.0486C1.25758 17.1116 1.18898 17.1631 1.14325 17.1631C1.10324 17.1631 1.00605 17.2261 0.926019 17.3063L0.777387 17.4553L0.897436 17.5584C0.966036 17.6157 1.01749 17.7016 1.01749 17.7417C1.01749 17.7875 1.06894 17.862 1.13182 17.9078C1.1947 17.9537 1.24615 18.0339 1.24615 18.0912C1.24615 18.1484 1.27473 18.1943 1.30332 18.1943C1.33762 18.1943 1.36048 18.3203 1.36048 18.4807C1.36048 18.6354 1.33762 18.7671 1.30332 18.7671C1.27473 18.7671 1.24615 18.8702 1.24615 18.9963C1.24615 19.1223 1.22328 19.2254 1.18898 19.2254C1.1604 19.2254 1.13182 19.277 1.13182 19.34C1.13182 19.403 1.10895 19.4545 1.07465 19.4545C1.04607 19.4545 1.01749 19.529 1.01749 19.6264C1.01749 19.7181 0.994619 19.7983 0.960319 19.7983C0.931736 19.7983 0.903153 19.8441 0.903153 19.9014C0.903153 19.9587 0.851703 20.0389 0.78882 20.0847C0.725937 20.1305 0.674487 20.2107 0.674487 20.268C0.674487 20.3253 0.651621 20.3711 0.617321 20.3711C0.588738 20.3711 0.560155 20.4169 0.560155 20.4742C0.560155 20.5315 0.508705 20.6117 0.445822 20.6575C0.382939 20.7034 0.331489 20.7778 0.331489 20.8294C0.331489 20.881 0.28004 20.9554 0.217157 21.0013C0.154274 21.0471 0.102824 21.1273 0.102824 21.1788C0.102824 21.2361 0.0685243 21.2877 0.0342245 21.2991C-0.0172253 21.3163 -0.0115086 21.3507 0.057091 21.4194C0.119974 21.4882 0.251457 21.5168 0.468689 21.5168C0.645904 21.5168 0.78882 21.5397 0.78882 21.5741C0.78882 21.6085 1.0918 21.6314 1.58915 21.6314C2.0865 21.6314 2.38948 21.6085 2.38948 21.5741C2.38948 21.5397 2.44093 21.5168 2.50381 21.5168C2.57813 21.5168 2.61814 21.4767 2.61814 21.4022C2.61814 21.3392 2.64673 21.2877 2.67531 21.2877C2.70961 21.2877 2.73248 21.2075 2.73248 21.1158C2.73248 21.0184 2.76106 20.944 2.78964 20.944C2.82394 20.944 2.84681 20.8409 2.84681 20.7148C2.84681 20.5888 2.87539 20.4857 2.90398 20.4857C2.93827 20.4857 2.96114 20.3138 2.96114 20.0847C2.96114 19.8555 2.93827 19.6837 2.90398 19.6837C2.87539 19.6837 2.84681 19.5519 2.84681 19.3973C2.84681 19.2369 2.82394 19.1108 2.78964 19.1108C2.76106 19.1108 2.73248 19.0306 2.73248 18.939C2.73248 18.8416 2.70961 18.7671 2.67531 18.7671C2.64673 18.7671 2.61814 18.7156 2.61814 18.6583C2.61814 18.5953 2.58384 18.538 2.54954 18.5265C2.45808 18.4921 2.62958 18.3088 2.74391 18.3088C2.78964 18.3088 2.85824 18.2573 2.90398 18.1943C2.94971 18.1313 3.01831 18.0797 3.06404 18.0797C3.10406 18.0797 3.17837 18.0453 3.22411 17.9995C3.31557 17.9021 3.33272 17.736 3.24697 17.736C3.21839 17.736 3.18981 17.6959 3.18981 17.6443C3.18981 17.5928 3.10977 17.4782 3.01831 17.3923C2.92112 17.3063 2.84681 17.1918 2.84681 17.1402C2.84681 17.0887 2.82394 17.0486 2.78964 17.0486C2.74963 17.0486 2.73248 16.0346 2.73248 14.127C2.73248 12.2194 2.74963 11.2054 2.78964 11.2054C2.82394 11.2054 2.84681 11.0508 2.84681 10.8617C2.84681 10.6727 2.86968 10.518 2.90398 10.518C2.93827 10.518 2.96114 10.4378 2.96114 10.3462C2.96114 10.2488 2.98972 10.1743 3.01831 10.1743C3.05261 10.1743 3.07547 10.0941 3.07547 10.0024C3.07547 9.90506 3.10406 9.83059 3.13264 9.83059C3.16694 9.83059 3.18981 9.77903 3.18981 9.71602C3.18981 9.653 3.21839 9.60145 3.24697 9.60145C3.28127 9.60145 3.30414 9.55562 3.30414 9.49833C3.30414 9.44105 3.35559 9.36085 3.41847 9.31502C3.48135 9.26919 3.5328 9.19472 3.5328 9.14316C3.5328 9.09161 3.58425 9.01714 3.64714 8.97131C3.71002 8.92548 3.76147 8.85674 3.76147 8.81664C3.76147 8.71925 4.48177 7.99746 4.57895 7.99746C4.61897 7.99746 4.68756 7.9459 4.7333 7.88288C4.77903 7.81987 4.85906 7.76831 4.91623 7.76831C4.9734 7.76831 5.01913 7.73967 5.01913 7.71103C5.01913 7.67666 5.07058 7.65374 5.13346 7.65374C5.19635 7.65374 5.2478 7.6251 5.2478 7.59646C5.2478 7.56209 5.29924 7.53917 5.36213 7.53917C5.42501 7.53917 5.47646 7.51053 5.47646 7.48189C5.47646 7.44751 5.55649 7.4246 5.64796 7.4246C5.74514 7.4246 5.81946 7.39596 5.81946 7.36732C5.81946 7.33294 5.97381 7.31003 6.16246 7.31003C6.35111 7.31003 6.50545 7.28712 6.50545 7.25274C6.50545 7.21837 6.67695 7.19546 6.90562 7.19546C7.13428 7.19546 7.30578 7.17254 7.30578 7.13817C7.30578 7.1038 7.46013 7.08089 7.64878 7.08089C7.83743 7.08089 7.99178 7.05797 7.99178 7.0236C7.99178 6.98923 8.14613 6.96632 8.33478 6.96632C8.52343 6.96632 8.67778 6.9434 8.67778 6.90903C8.67778 6.87466 8.83212 6.85175 9.02077 6.85175C9.20942 6.85175 9.36377 6.82883 9.36377 6.79446C9.36377 6.76009 9.53527 6.73717 9.76394 6.73717C9.9926 6.73717 10.1641 6.71426 10.1641 6.67989C10.1641 6.64552 10.3184 6.6226 10.5071 6.6226C10.6957 6.6226 10.8501 6.59969 10.8501 6.56532C10.8501 6.53095 11.0044 6.50803 11.1931 6.50803C11.3817 6.50803 11.5361 6.48512 11.5361 6.45075C11.5361 6.41638 11.6904 6.39346 11.8791 6.39346C12.0677 6.39346 12.2221 6.37055 12.2221 6.33618C12.2221 6.30181 12.3936 6.27889 12.6223 6.27889C12.8509 6.27889 13.0224 6.25598 13.0224 6.22161C13.0224 6.18723 13.1768 6.16432 13.3654 6.16432C13.5541 6.16432 13.7084 6.14141 13.7084 6.10703C13.7084 6.07266 13.8399 6.04975 13.9942 6.04975C14.2629 6.04975 14.2801 6.03829 14.2801 5.90654C14.2801 5.71177 14.6288 5.36232 14.8232 5.36232C14.9032 5.36232 14.9661 5.33368 14.9661 5.30504C14.9661 5.27067 15.0461 5.24775 15.1376 5.24775C15.2348 5.24775 15.3091 5.27067 15.3091 5.30504C15.3091 5.33368 15.372 5.36232 15.452 5.36232C15.6178 5.36232 15.8807 5.59147 15.8807 5.73468C15.8807 5.78051 15.9093 5.82061 15.9379 5.82061C15.9722 5.82061 15.9951 5.98101 15.9951 6.19296C15.9951 6.54813 15.9836 6.5825 15.795 6.76582C15.6864 6.87466 15.5606 6.96632 15.5092 6.96632C15.4634 6.96632 15.4234 6.98923 15.4234 7.0236C15.4234 7.05224 15.2976 7.08089 15.1376 7.08089C14.9832 7.08089 14.8517 7.05224 14.8517 7.0236C14.8517 6.98923 14.806 6.96632 14.7488 6.96632C14.6917 6.96632 14.6116 6.91476 14.5659 6.85175C14.4973 6.75436 14.4173 6.73717 14.0971 6.73717C13.8742 6.73717 13.7084 6.76009 13.7084 6.79446C13.7084 6.82883 13.5541 6.85175 13.3654 6.85175C13.1768 6.85175 13.0224 6.87466 13.0224 6.90903C13.0224 6.9434 12.8681 6.96632 12.6794 6.96632C12.4908 6.96632 12.3364 6.98923 12.3364 7.0236C12.3364 7.05797 12.1821 7.08089 11.9934 7.08089C11.8048 7.08089 11.6504 7.1038 11.6504 7.13817C11.6504 7.17254 11.4961 7.19546 11.3074 7.19546C11.1188 7.19546 10.9644 7.21837 10.9644 7.25274C10.9644 7.28712 10.8101 7.31003 10.6214 7.31003C10.4328 7.31003 10.2784 7.33294 10.2784 7.36732C10.2784 7.40169 10.1241 7.4246 9.93544 7.4246C9.74679 7.4246 9.59244 7.44751 9.59244 7.48189C9.59244 7.51626 9.43809 7.53917 9.24944 7.53917C9.06079 7.53917 8.90644 7.56209 8.90644 7.59646C8.90644 7.63083 8.75209 7.65374 8.56344 7.65374C8.37479 7.65374 8.22044 7.67666 8.22044 7.71103C8.22044 7.7454 8.0661 7.76831 7.87745 7.76831C7.57447 7.76831 7.53445 7.77977 7.53445 7.88288C7.53445 7.97454 7.57447 7.99746 7.70595 7.99746C7.80313 7.99746 7.87745 8.02037 7.87745 8.05474C7.87745 8.08338 7.95748 8.11203 8.04895 8.11203C8.14613 8.11203 8.22044 8.13494 8.22044 8.16931C8.22044 8.19795 8.30048 8.2266 8.39194 8.2266C8.48913 8.2266 8.56344 8.24951 8.56344 8.28388C8.56344 8.31252 8.66634 8.34117 8.79211 8.34117C8.91787 8.34117 9.02077 8.36408 9.02077 8.39845C9.02077 8.4271 9.10081 8.45574 9.19227 8.45574C9.28946 8.45574 9.36377 8.47865 9.36377 8.51302C9.36377 8.54167 9.4438 8.57031 9.53527 8.57031C9.63245 8.57031 9.70677 8.59322 9.70677 8.62759C9.70677 8.65624 9.7868 8.68488 9.87827 8.68488C9.97545 8.68488 10.0498 8.70779 10.0498 8.74216C10.0498 8.77081 10.1298 8.79945 10.2213 8.79945C10.3184 8.79945 10.3928 8.82236 10.3928 8.85674C10.3928 8.88538 10.4728 8.91402 10.5643 8.91402C10.6614 8.91402 10.7358 8.93694 10.7358 8.97131C10.7358 8.99995 10.8158 9.02859 10.9073 9.02859C11.0044 9.02859 11.0788 9.05151 11.0788 9.08588C11.0788 9.11452 11.1588 9.14316 11.2503 9.14316C11.3474 9.14316 11.4218 9.16608 11.4218 9.20045C11.4218 9.22909 11.5018 9.25773 11.5933 9.25773C11.6904 9.25773 11.7648 9.28065 11.7648 9.31502C11.7648 9.34366 11.8448 9.3723 11.9363 9.3723C12.0334 9.3723 12.1078 9.39522 12.1078 9.42959C12.1078 9.45823 12.2107 9.48688 12.3364 9.48688C12.4622 9.48688 12.5651 9.50979 12.5651 9.54416C12.5651 9.57281 12.6451 9.60145 12.7366 9.60145C12.8338 9.60145 12.9081 9.62436 12.9081 9.65873C12.9081 9.68738 12.9881 9.71602 13.0796 9.71602C13.1768 9.71602 13.2511 9.73893 13.2511 9.7733C13.2511 9.80195 13.3311 9.83059 13.4226 9.83059C13.5198 9.83059 13.5941 9.8535 13.5941 9.88787C13.5941 9.91652 13.6741 9.94516 13.7656 9.94516C13.8628 9.94516 13.9371 9.96807 13.9371 10.0024C13.9371 10.0311 13.9885 10.0597 14.0514 10.0597C14.1143 10.0597 14.1657 10.0826 14.1657 10.117C14.1657 10.1457 14.0914 10.1743 13.9942 10.1743C13.9028 10.1743 13.8227 10.1457 13.8227 10.117C13.8227 10.0826 13.7198 10.0597 13.5941 10.0597C13.4683 10.0597 13.3654 10.0311 13.3654 10.0024C13.3654 9.96807 13.2625 9.94516 13.1368 9.94516C13.011 9.94516 12.9081 9.91652 12.9081 9.88787C12.9081 9.8535 12.7823 9.83059 12.6223 9.83059C12.4679 9.83059 12.3364 9.80195 12.3364 9.7733C12.3364 9.73893 12.2335 9.71602 12.1078 9.71602C11.982 9.71602 11.8791 9.68738 11.8791 9.65873C11.8791 9.62436 11.7762 9.60145 11.6504 9.60145C11.5247 9.60145 11.4218 9.57281 11.4218 9.54416C11.4218 9.50979 11.296 9.48688 11.1359 9.48688C10.9816 9.48688 10.8501 9.45823 10.8501 9.42959C10.8501 9.39522 10.7472 9.3723 10.6214 9.3723C10.4957 9.3723 10.3928 9.34366 10.3928 9.31502C10.3928 9.28065 10.2899 9.25773 10.1641 9.25773C10.0383 9.25773 9.93544 9.22909 9.93544 9.20045C9.93544 9.16608 9.80967 9.14316 9.6496 9.14316C9.49525 9.14316 9.36377 9.11452 9.36377 9.08588C9.36377 9.05151 9.26087 9.02859 9.13511 9.02859C9.00934 9.02859 8.90644 8.99995 8.90644 8.97131C8.90644 8.93694 8.80354 8.91402 8.67778 8.91402C8.55201 8.91402 8.44911 8.88538 8.44911 8.85674C8.44911 8.82236 8.32334 8.79945 8.16328 8.79945C8.00893 8.79945 7.87745 8.77081 7.87745 8.74216C7.87745 8.70779 7.77455 8.68488 7.64878 8.68488C7.52302 8.68488 7.42012 8.65624 7.42012 8.62759C7.42012 8.59322 7.36867 8.57031 7.30578 8.57031C7.19145 8.57031 7.19145 8.61041 7.19145 11.1367C7.19145 13.6343 7.18573 13.7031 7.07712 13.7833C7.01424 13.8291 6.96279 13.9036 6.96279 13.9551C6.96279 14.0067 6.91134 14.0812 6.84845 14.127C6.78557 14.1728 6.73412 14.2473 6.73412 14.2989C6.73412 14.3504 6.68267 14.4249 6.61979 14.4707C6.5569 14.5165 6.50545 14.591 6.50545 14.6426C6.50545 14.6941 6.454 14.7686 6.39112 14.8144C6.32824 14.8603 6.27679 14.9405 6.27679 14.9977C6.27679 15.055 6.25392 15.1009 6.21962 15.1009C6.19104 15.1009 6.16246 15.1524 6.16246 15.2154C6.16246 15.2784 6.13959 15.33 6.10529 15.33C6.07671 15.33 6.04812 15.3815 6.04812 15.4446C6.04812 15.5076 6.02526 15.5591 5.99096 15.5591C5.96237 15.5591 5.93379 15.6107 5.93379 15.6737C5.93379 15.7367 5.91092 15.7883 5.87663 15.7883C5.84804 15.7883 5.81946 15.8627 5.81946 15.9601C5.81946 16.0518 5.79659 16.132 5.76229 16.132C5.73371 16.132 5.70513 16.1835 5.70513 16.2466C5.70513 16.3096 5.68226 16.3611 5.64796 16.3611C5.61938 16.3611 5.59079 16.4356 5.59079 16.533C5.59079 16.6246 5.56793 16.7048 5.53363 16.7048C5.50504 16.7048 5.47646 16.7793 5.47646 16.8767C5.47646 16.9684 5.45359 17.0486 5.41929 17.0486C5.39071 17.0486 5.36213 17.1517 5.36213 17.2777C5.36213 17.4037 5.33926 17.5068 5.30496 17.5068C5.27638 17.5068 5.2478 17.61 5.2478 17.736C5.2478 17.862 5.22493 17.9651 5.19063 17.9651C5.15633 17.9651 5.13346 18.137 5.13346 18.3661C5.13346 18.5953 5.1106 18.7671 5.0763 18.7671C5.042 18.7671 5.01913 19.2082 5.01913 19.9701C5.01913 20.732 5.042 21.1731 5.0763 21.1731C5.1106 21.1731 5.13346 21.3278 5.13346 21.5168C5.13346 21.7059 5.15633 21.8605 5.19063 21.8605C5.22493 21.8605 5.2478 21.9866 5.2478 22.147C5.2478 22.3016 5.27638 22.4334 5.30496 22.4334C5.33926 22.4334 5.36213 22.5365 5.36213 22.6625C5.36213 22.7886 5.39071 22.8917 5.41929 22.8917C5.45359 22.8917 5.47646 22.9661 5.47646 23.0635C5.47646 23.1552 5.50504 23.2354 5.53363 23.2354C5.56793 23.2354 5.59079 23.3099 5.59079 23.4072C5.59079 23.4989 5.61938 23.5791 5.64796 23.5791C5.68226 23.5791 5.70513 23.6307 5.70513 23.6937C5.70513 23.7567 5.73371 23.8082 5.76229 23.8082C5.79659 23.8082 5.81946 23.8827 5.81946 23.9801C5.81946 24.0718 5.84804 24.152 5.87663 24.152C5.91092 24.152 5.93379 24.2035 5.93379 24.2665C5.93379 24.3295 5.96237 24.3811 5.99096 24.3811C6.02526 24.3811 6.04812 24.4326 6.04812 24.4957C6.04812 24.5587 6.07671 24.6102 6.10529 24.6102C6.13959 24.6102 6.16246 24.6561 6.16246 24.7133C6.16246 24.7706 6.21391 24.8508 6.27679 24.8967C6.33967 24.9425 6.39112 25.0227 6.39112 25.08C6.39112 25.1373 6.4197 25.1831 6.44829 25.1831C6.48259 25.1831 6.50545 25.2289 6.50545 25.2862C6.50545 25.3435 6.5569 25.4237 6.61979 25.4695C6.68267 25.5153 6.73412 25.5898 6.73412 25.6299C6.73412 25.6757 6.80844 25.7846 6.90562 25.8705C6.99709 25.9564 7.07712 26.0596 7.07712 26.0997C7.07712 26.134 7.18002 26.2658 7.30578 26.3861C7.43155 26.5064 7.53445 26.6324 7.53445 26.6668C7.53445 26.7527 8.36908 27.5891 8.45483 27.5891C8.48913 27.5891 8.61489 27.6922 8.73494 27.8182C8.85499 27.9442 8.98647 28.0474 9.02077 28.0474C9.06079 28.0474 9.16369 28.1218 9.24944 28.2192C9.33519 28.3109 9.4438 28.3911 9.48954 28.3911C9.52955 28.3911 9.60387 28.4426 9.6496 28.5056C9.69534 28.5687 9.77537 28.6202 9.83254 28.6202C9.8897 28.6202 9.93544 28.6431 9.93544 28.6775C9.93544 28.7061 9.98689 28.7348 10.0498 28.7348C10.1127 28.7348 10.1641 28.7577 10.1641 28.7921C10.1641 28.8207 10.1927 28.8494 10.2213 28.8494C10.2556 28.8494 10.2784 28.7978 10.2784 28.7348C10.2784 28.6718 10.307 28.6202 10.3356 28.6202C10.3699 28.6202 10.3928 28.54 10.3928 28.4484C10.3928 28.351 10.4213 28.2765 10.4499 28.2765C10.4842 28.2765 10.5071 28.2249 10.5071 28.1619C10.5071 28.0989 10.5357 28.0474 10.5643 28.0474C10.5986 28.0474 10.6214 27.9958 10.6214 27.9328C10.6214 27.8698 10.65 27.8182 10.6786 27.8182C10.7129 27.8182 10.7358 27.738 10.7358 27.6464C10.7358 27.549 10.7643 27.4745 10.7929 27.4745C10.8272 27.4745 10.8501 27.4229 10.8501 27.3599C10.8501 27.2969 10.8787 27.2454 10.9073 27.2454C10.9416 27.2454 10.9644 27.1938 10.9644 27.1308C10.9644 27.0678 10.993 27.0162 11.0216 27.0162C11.0559 27.0162 11.0788 26.936 11.0788 26.8444C11.0788 26.747 11.1073 26.6725 11.1359 26.6725C11.1702 26.6725 11.1931 26.621 11.1931 26.5579C11.1931 26.4949 11.2217 26.4434 11.2503 26.4434C11.2846 26.4434 11.3074 26.3918 11.3074 26.3288C11.3074 26.2658 11.336 26.2142 11.3646 26.2142C11.3989 26.2142 11.4218 26.134 11.4218 26.0424C11.4218 25.945 11.4503 25.8705 11.4789 25.8705C11.5132 25.8705 11.5361 25.819 11.5361 25.7559C11.5361 25.6929 11.5647 25.6414 11.5933 25.6414C11.6276 25.6414 11.6504 25.5898 11.6504 25.5268C11.6504 25.4638 11.679 25.4122 11.7076 25.4122C11.7419 25.4122 11.7648 25.332 11.7648 25.2404C11.7648 25.143 11.7933 25.0685 11.8219 25.0685C11.8562 25.0685 11.8791 25.017 11.8791 24.9539C11.8791 24.8909 11.9077 24.8394 11.9363 24.8394C11.9706 24.8394 11.9934 24.7878 11.9934 24.7248C11.9934 24.6618 12.022 24.6102 12.0506 24.6102C12.0849 24.6102 12.1078 24.53 12.1078 24.4384C12.1078 24.341 12.1363 24.2665 12.1649 24.2665C12.1992 24.2665 12.2221 24.215 12.2221 24.152C12.2221 24.0889 12.2507 24.0374 12.2793 24.0374C12.3136 24.0374 12.3364 23.9858 12.3364 23.9228C12.3364 23.8598 12.365 23.8082 12.3936 23.8082C12.4279 23.8082 12.4508 23.728 12.4508 23.6364C12.4508 23.539 12.4793 23.4645 12.5079 23.4645C12.5422 23.4645 12.5651 23.413 12.5651 23.35C12.5651 23.2869 12.5937 23.2354 12.6223 23.2354C12.6566 23.2354 12.6794 23.1838 12.6794 23.1208C12.6794 23.0578 12.708 23.0062 12.7366 23.0062C12.7709 23.0062 12.7938 22.926 12.7938 22.8344C12.7938 22.737 12.8223 22.6625 12.8509 22.6625C12.8852 22.6625 12.9081 22.611 12.9081 22.548C12.9081 22.4849 12.9367 22.4334 12.9653 22.4334C12.9996 22.4334 13.0224 22.3818 13.0224 22.3188C13.0224 22.2558 13.051 22.2042 13.0796 22.2042C13.1139 22.2042 13.1368 22.124 13.1368 22.0324C13.1368 21.935 13.1653 21.8605 13.1939 21.8605C13.2282 21.8605 13.2511 21.809 13.2511 21.746C13.2511 21.6829 13.2797 21.6314 13.3082 21.6314C13.3425 21.6314 13.3654 21.5798 13.3654 21.5168C13.3654 21.4538 13.394 21.4022 13.4226 21.4022C13.4569 21.4022 13.4797 21.322 13.4797 21.2304C13.4797 21.133 13.5083 21.0585 13.5369 21.0585C13.5712 21.0585 13.5941 21.007 13.5941 20.944C13.5941 20.881 13.6227 20.8294 13.6512 20.8294C13.6855 20.8294 13.7084 20.7778 13.7084 20.7148C13.7084 20.6518 13.737 20.6003 13.7656 20.6003C13.7999 20.6003 13.8227 20.5201 13.8227 20.4284C13.8227 20.331 13.8513 20.2565 13.8799 20.2565C13.9142 20.2565 13.9371 20.205 13.9371 20.142C13.9371 20.079 13.9657 20.0274 13.9942 20.0274C14.0285 20.0274 14.0514 19.9758 14.0514 19.9128C14.0514 19.8498 14.08 19.7983 14.1086 19.7983C14.1429 19.7983 14.1657 19.7181 14.1657 19.6264C14.1657 19.529 14.1943 19.4545 14.2229 19.4545C14.2572 19.4545 14.2801 19.403 14.2801 19.34C14.2801 19.277 14.3087 19.2254 14.3372 19.2254C14.3715 19.2254 14.3944 19.1738 14.3944 19.1108C14.3944 19.0478 14.423 18.9963 14.4516 18.9963C14.4859 18.9963 14.5087 18.9161 14.5087 18.8244C14.5087 18.727 14.5373 18.6525 14.5659 18.6525C14.6002 18.6525 14.6231 18.601 14.6231 18.538C14.6231 18.475 14.6517 18.4234 14.6802 18.4234C14.7145 18.4234 14.7374 18.3718 14.7374 18.3088C14.7374 18.2458 14.766 18.1943 14.7946 18.1943C14.8289 18.1943 14.8517 18.1141 14.8517 18.0224C14.8517 17.925 14.8803 17.8506 14.9089 17.8506C14.9432 17.8506 14.9661 17.799 14.9661 17.736C14.9661 17.673 14.9947 17.6214 15.0232 17.6214C15.0575 17.6214 15.0804 17.5699 15.0804 17.5068C15.0804 17.4438 15.109 17.3923 15.1376 17.3923C15.1719 17.3923 15.1947 17.3121 15.1947 17.2204C15.1947 17.123 15.2233 17.0486 15.2519 17.0486C15.2862 17.0486 15.3091 16.997 15.3091 16.934C15.3091 16.871 15.3377 16.8194 15.3662 16.8194C15.4005 16.8194 15.4234 16.7679 15.4234 16.7048C15.4234 16.6418 15.452 16.5903 15.4806 16.5903C15.5149 16.5903 15.5377 16.5158 15.5377 16.4241C15.5377 16.3325 15.572 16.2466 15.6121 16.2294C15.6464 16.2179 15.6635 16.1835 15.6406 16.1606C15.5892 16.1033 15.4234 16.2695 15.4234 16.384C15.4234 16.4356 15.4005 16.4757 15.3662 16.4757C15.3377 16.4757 15.3091 16.5215 15.3091 16.5788C15.3091 16.6361 15.2576 16.7163 15.1947 16.7621C15.1319 16.808 15.0804 16.8824 15.0804 16.934C15.0804 16.9855 15.029 17.06 14.9661 17.1058C14.9032 17.1517 14.8517 17.2319 14.8517 17.2892C14.8517 17.3464 14.8289 17.3923 14.7946 17.3923C14.766 17.3923 14.7374 17.4381 14.7374 17.4954C14.7374 17.5527 14.686 17.6329 14.6231 17.6787C14.5602 17.7245 14.5087 17.799 14.5087 17.8506C14.5087 17.9021 14.4573 17.9766 14.3944 18.0224C14.3315 18.0682 14.2801 18.1484 14.2801 18.2057C14.2801 18.263 14.2572 18.3088 14.2229 18.3088C14.1943 18.3088 14.1657 18.3547 14.1657 18.4119C14.1657 18.4692 14.1143 18.5494 14.0514 18.5953C13.9885 18.6411 13.9371 18.7156 13.9371 18.7671C13.9371 18.8187 13.8856 18.8931 13.8227 18.939C13.7599 18.9848 13.7084 19.065 13.7084 19.1223C13.7084 19.1796 13.6855 19.2254 13.6512 19.2254C13.6227 19.2254 13.5941 19.2712 13.5941 19.3285C13.5941 19.3858 13.5426 19.466 13.4797 19.5118C13.4169 19.5577 13.3654 19.6321 13.3654 19.6837C13.3654 19.7352 13.314 19.8097 13.2511 19.8555C13.1882 19.9014 13.1368 19.9816 13.1368 20.0389C13.1368 20.0961 13.1139 20.142 13.0796 20.142C13.051 20.142 13.0224 20.1878 13.0224 20.2451C13.0224 20.3024 12.971 20.3826 12.9081 20.4284C12.8452 20.4742 12.7938 20.5487 12.7938 20.6003C12.7938 20.6518 12.7423 20.7263 12.6794 20.7721C12.6165 20.8179 12.5651 20.8981 12.5651 20.9554C12.5651 21.0127 12.5422 21.0585 12.5079 21.0585C12.4793 21.0585 12.4508 21.1044 12.4508 21.1617C12.4508 21.2189 12.3993 21.2991 12.3364 21.345C12.2735 21.3908 12.2221 21.4653 12.2221 21.5168C12.2221 21.5684 12.1706 21.6428 12.1078 21.6887C12.0449 21.7345 11.9934 21.8147 11.9934 21.872C11.9934 21.9293 11.9706 21.9751 11.9363 21.9751C11.9077 21.9751 11.8791 22.0209 11.8791 22.0782C11.8791 22.1355 11.8276 22.2157 11.7648 22.2615C11.7019 22.3074 11.6504 22.3818 11.6504 22.4334C11.6504 22.4849 11.599 22.5594 11.5361 22.6052C11.4732 22.6511 11.4218 22.7313 11.4218 22.7886C11.4218 22.8458 11.3989 22.8917 11.3646 22.8917C11.336 22.8917 11.3074 22.9375 11.3074 22.9948C11.3074 23.0521 11.256 23.1323 11.1931 23.1781C11.1302 23.2239 11.0788 23.2984 11.0788 23.35C11.0788 23.4015 11.0273 23.476 10.9644 23.5218C10.9015 23.5676 10.8501 23.6478 10.8501 23.7051C10.8501 23.7624 10.8272 23.8082 10.7929 23.8082C10.7643 23.8082 10.7358 23.8541 10.7358 23.9114C10.7358 23.9686 10.6843 24.0488 10.6214 24.0947C10.5585 24.1405 10.5071 24.215 10.5071 24.2665C10.5071 24.3181 10.4556 24.3925 10.3928 24.4384C10.3299 24.4842 10.2784 24.5644 10.2784 24.6217C10.2784 24.679 10.2556 24.7248 10.2213 24.7248C10.1927 24.7248 10.1641 24.7706 10.1641 24.8279C10.1641 24.8852 10.1127 24.9654 10.0498 25.0112C9.98689 25.0571 9.93544 25.1315 9.93544 25.1831C9.93544 25.2346 9.88399 25.3091 9.8211 25.3549C9.75822 25.4008 9.70677 25.481 9.70677 25.5383C9.70677 25.5955 9.6839 25.6414 9.6496 25.6414C9.62102 25.6414 9.59244 25.6815 9.59244 25.733C9.59244 25.8361 9.46095 25.9851 9.36949 25.9851C9.27802 25.9851 8.56344 25.2576 8.56344 25.1659C8.56344 25.1258 8.51199 25.0571 8.44911 25.0112C8.38623 24.9654 8.33478 24.8909 8.33478 24.8394C8.33478 24.7878 8.28333 24.7133 8.22044 24.6675C8.15756 24.6217 8.10611 24.5472 8.10611 24.4957C8.10611 24.4441 8.05466 24.3696 7.99178 24.3238C7.9289 24.278 7.87745 24.1978 7.87745 24.1405C7.87745 24.0832 7.85458 24.0374 7.82028 24.0374C7.7917 24.0374 7.76311 23.9858 7.76311 23.9228C7.76311 23.8598 7.74025 23.8082 7.70595 23.8082C7.67736 23.8082 7.64878 23.7567 7.64878 23.6937C7.64878 23.6307 7.62592 23.5791 7.59162 23.5791C7.56303 23.5791 7.53445 23.5275 7.53445 23.4645C7.53445 23.4015 7.51158 23.35 7.47728 23.35C7.4487 23.35 7.42012 23.2984 7.42012 23.2354C7.42012 23.1724 7.39725 23.1208 7.36295 23.1208C7.33437 23.1208 7.30578 23.0406 7.30578 22.949C7.30578 22.8516 7.28292 22.7771 7.24862 22.7771C7.22003 22.7771 7.19145 22.6969 7.19145 22.6052C7.19145 22.5079 7.16858 22.4334 7.13428 22.4334C7.1057 22.4334 7.07712 22.3303 7.07712 22.2042C7.07712 22.0782 7.05425 21.9751 7.01995 21.9751C6.99137 21.9751 6.96279 21.872 6.96279 21.746C6.96279 21.6199 6.93992 21.5168 6.90562 21.5168C6.87132 21.5168 6.84845 21.345 6.84845 21.1158C6.84845 20.8867 6.82559 20.7148 6.79129 20.7148C6.75699 20.7148 6.73412 20.4284 6.73412 19.9701C6.73412 19.5118 6.75699 19.2254 6.79129 19.2254C6.82559 19.2254 6.84845 19.0535 6.84845 18.8244C6.84845 18.5953 6.87132 18.4234 6.90562 18.4234C6.93992 18.4234 6.96279 18.2916 6.96279 18.137C6.96279 17.9766 6.99137 17.8506 7.01995 17.8506C7.05425 17.8506 7.07712 17.7474 7.07712 17.6214C7.07712 17.4954 7.1057 17.3923 7.13428 17.3923C7.16858 17.3923 7.19145 17.3121 7.19145 17.2204C7.19145 17.123 7.22003 17.0486 7.24862 17.0486C7.28292 17.0486 7.30578 16.997 7.30578 16.934C7.30578 16.871 7.33437 16.8194 7.36295 16.8194C7.39725 16.8194 7.42012 16.7392 7.42012 16.6476C7.42012 16.5502 7.4487 16.4757 7.47728 16.4757C7.51158 16.4757 7.53445 16.4241 7.53445 16.3611C7.53445 16.2981 7.56303 16.2466 7.59162 16.2466C7.62592 16.2466 7.64878 16.195 7.64878 16.132C7.64878 16.069 7.67736 16.0174 7.70595 16.0174C7.74025 16.0174 7.76311 15.9716 7.76311 15.9143C7.76311 15.857 7.81456 15.7768 7.87745 15.731C7.94033 15.6852 7.99178 15.605 7.99178 15.5477C7.99178 15.4904 8.02036 15.4446 8.04895 15.4446C8.08325 15.4446 8.10611 15.4045 8.10611 15.3529C8.10611 15.3013 8.18614 15.1868 8.27761 15.1009C8.37479 15.0149 8.44911 14.9118 8.44911 14.8717C8.44911 14.8373 8.58059 14.6827 8.73494 14.528C8.89501 14.3733 9.02077 14.2187 9.02077 14.1843C9.02077 14.1041 9.39807 13.726 9.4781 13.726C9.5124 13.726 9.66675 13.5942 9.8211 13.4396C9.97545 13.2792 10.1355 13.1531 10.1755 13.1531C10.2213 13.1531 10.2899 13.1016 10.3356 13.0386C10.3813 12.9756 10.4556 12.924 10.5071 12.924C10.5585 12.924 10.6329 12.8724 10.6786 12.8094C10.7243 12.7464 10.8044 12.6949 10.8615 12.6949C10.9187 12.6949 10.9644 12.6662 10.9644 12.6376C10.9644 12.6032 11.0159 12.5803 11.0788 12.5803C11.1416 12.5803 11.1931 12.5516 11.1931 12.523C11.1931 12.4886 11.2445 12.4657 11.3074 12.4657C11.3703 12.4657 11.4218 12.4371 11.4218 12.4084C11.4218 12.3741 11.4732 12.3511 11.5361 12.3511C11.599 12.3511 11.6504 12.3225 11.6504 12.2939C11.6504 12.2595 11.7019 12.2366 11.7648 12.2366C11.8276 12.2366 11.8791 12.2079 11.8791 12.1793C11.8791 12.1449 11.9591 12.122 12.0506 12.122C12.1478 12.122 12.2221 12.0934 12.2221 12.0647C12.2221 12.0303 12.3021 12.0074 12.3936 12.0074C12.4908 12.0074 12.5651 11.9788 12.5651 11.9502C12.5651 11.9158 12.6451 11.8929 12.7366 11.8929C12.8338 11.8929 12.9081 11.8642 12.9081 11.8356C12.9081 11.8012 13.011 11.7783 13.1368 11.7783C13.2625 11.7783 13.3654 11.7497 13.3654 11.721C13.3654 11.6866 13.4969 11.6637 13.6512 11.6637C13.8113 11.6637 13.9371 11.6351 13.9371 11.6064C13.9371 11.5721 14.3773 11.5492 15.1376 11.5492C15.8979 11.5492 16.3381 11.5721 16.3381 11.6064C16.3381 11.6351 16.4695 11.6637 16.6239 11.6637C16.784 11.6637 16.9097 11.6866 16.9097 11.721C16.9097 11.7497 17.0126 11.7783 17.1384 11.7783C17.2642 11.7783 17.3671 11.8012 17.3671 11.8356C17.3671 11.8642 17.47 11.8929 17.5957 11.8929C17.7215 11.8929 17.8244 11.9158 17.8244 11.9502C17.8244 11.9788 17.8758 12.0074 17.9387 12.0074C18.0016 12.0074 18.0531 12.0303 18.0531 12.0647C18.0531 12.0934 18.1331 12.122 18.2246 12.122C18.3217 12.122 18.3961 12.1449 18.3961 12.1793C18.3961 12.2079 18.4475 12.2366 18.5104 12.2366C18.5733 12.2366 18.6247 12.2595 18.6247 12.2939C18.6247 12.3225 18.6762 12.3511 18.7391 12.3511C18.8019 12.3511 18.8534 12.3741 18.8534 12.4084C18.8534 12.4371 18.9048 12.4657 18.9677 12.4657C19.0306 12.4657 19.0821 12.4886 19.0821 12.523C19.0821 12.5516 19.1335 12.5803 19.1964 12.5803C19.2593 12.5803 19.3107 12.6032 19.3107 12.6376C19.3107 12.6662 19.3564 12.6949 19.4136 12.6949C19.4708 12.6949 19.5508 12.7464 19.5965 12.8094C19.6423 12.8724 19.7166 12.924 19.768 12.924C19.8195 12.924 19.8938 12.9756 19.9395 13.0386C19.9853 13.1016 20.0539 13.1531 20.0996 13.1531C20.1396 13.1531 20.3283 13.3078 20.5112 13.4969C20.6941 13.6859 20.8771 13.8406 20.9114 13.8406C20.9971 13.8406 21.14 13.9838 21.14 14.0697C21.14 14.1041 21.2944 14.2874 21.483 14.4707C21.6717 14.654 21.826 14.8431 21.826 14.8832C21.826 14.929 21.8775 14.9977 21.9404 15.0436C22.0033 15.0894 22.0547 15.1639 22.0547 15.2154C22.0547 15.267 22.1061 15.3414 22.169 15.3873C22.2319 15.4331 22.2834 15.5133 22.2834 15.5706C22.2834 15.6279 22.3119 15.6737 22.3405 15.6737C22.3748 15.6737 22.3977 15.7195 22.3977 15.7768C22.3977 15.8341 22.4491 15.9143 22.512 15.9601C22.5806 16.006 22.6264 16.1091 22.6264 16.2007C22.6264 16.2867 22.6549 16.3611 22.6835 16.3611C22.7178 16.3611 22.7407 16.4127 22.7407 16.4757C22.7407 16.5387 22.7693 16.5903 22.7979 16.5903C22.8322 16.5903 22.855 16.6418 22.855 16.7048C22.855 16.7679 22.8836 16.8194 22.9122 16.8194C22.9465 16.8194 22.9694 16.8939 22.9694 16.9913C22.9694 17.0829 22.9979 17.1631 23.0265 17.1631C23.0608 17.1631 23.0837 17.2376 23.0837 17.335C23.0837 17.4266 23.1123 17.5068 23.1409 17.5068C23.1752 17.5068 23.198 17.5813 23.198 17.6787C23.198 17.7704 23.2266 17.8506 23.2552 17.8506C23.2895 17.8506 23.3124 17.9766 23.3124 18.137C23.3124 18.2916 23.3409 18.4234 23.3695 18.4234C23.4038 18.4234 23.4267 18.5953 23.4267 18.8244C23.4267 19.0535 23.4496 19.2254 23.4839 19.2254C23.5182 19.2254 23.541 19.4946 23.541 19.9128C23.541 20.331 23.5182 20.6003 23.4839 20.6003C23.4496 20.6003 23.4267 20.7893 23.4267 21.0585C23.4267 21.3278 23.4038 21.5168 23.3695 21.5168C23.3409 21.5168 23.3124 21.6199 23.3124 21.746C23.3124 21.872 23.2895 21.9751 23.2552 21.9751C23.2266 21.9751 23.198 22.0782 23.198 22.2042C23.198 22.3303 23.1752 22.4334 23.1409 22.4334C23.1123 22.4334 23.0837 22.5079 23.0837 22.6052C23.0837 22.6969 23.0608 22.7771 23.0265 22.7771C22.9979 22.7771 22.9694 22.8516 22.9694 22.949C22.9694 23.0406 22.9465 23.1208 22.9122 23.1208C22.8836 23.1208 22.855 23.1724 22.855 23.2354C22.855 23.2984 22.8322 23.35 22.7979 23.35C22.7693 23.35 22.7407 23.4015 22.7407 23.4645C22.7407 23.5275 22.7178 23.5791 22.6835 23.5791C22.6549 23.5791 22.6264 23.6307 22.6264 23.6937C22.6264 23.7567 22.6035 23.8082 22.5692 23.8082C22.5406 23.8082 22.512 23.8598 22.512 23.9228C22.512 23.9858 22.4892 24.0374 22.4549 24.0374C22.4263 24.0374 22.3977 24.0889 22.3977 24.152C22.3977 24.215 22.3748 24.2665 22.3405 24.2665C22.3119 24.2665 22.2834 24.3123 22.2834 24.3696C22.2834 24.4269 22.2319 24.5071 22.169 24.5529C22.1061 24.5988 22.0547 24.6732 22.0547 24.7133C22.0547 24.7592 21.9804 24.868 21.8832 24.9539C21.7917 25.0399 21.7117 25.143 21.7117 25.1774C21.7117 25.2747 20.5226 26.4434 20.4255 26.4434C20.3797 26.4434 20.3397 26.4663 20.3397 26.5007C20.3397 26.5293 20.2883 26.5579 20.2254 26.5579C20.1511 26.5579 20.111 26.5178 20.111 26.4434C20.111 26.3804 20.0882 26.3288 20.0539 26.3288C20.0253 26.3288 19.9967 26.2772 19.9967 26.2142C19.9967 26.1512 19.9738 26.0997 19.9395 26.0997C19.911 26.0997 19.8824 26.0481 19.8824 25.9851C19.8824 25.9221 19.8595 25.8705 19.8252 25.8705C19.7966 25.8705 19.768 25.819 19.768 25.7559C19.768 25.6929 19.7452 25.6414 19.7109 25.6414C19.6823 25.6414 19.6537 25.5612 19.6537 25.4695C19.6537 25.3721 19.6308 25.2977 19.5965 25.2977C19.568 25.2977 19.5394 25.2461 19.5394 25.1831C19.5394 25.1201 19.5165 25.0685 19.4822 25.0685C19.4536 25.0685 19.425 25.017 19.425 24.9539C19.425 24.8909 19.4022 24.8394 19.3679 24.8394C19.3393 24.8394 19.3107 24.7878 19.3107 24.7248C19.3107 24.6618 19.2878 24.6102 19.2535 24.6102C19.225 24.6102 19.1964 24.53 19.1964 24.4384C19.1964 24.341 19.1735 24.2665 19.1392 24.2665C19.1106 24.2665 19.0821 24.215 19.0821 24.152C19.0821 24.0889 19.0592 24.0374 19.0249 24.0374C18.9963 24.0374 18.9677 23.9858 18.9677 23.9228C18.9677 23.8598 18.9449 23.8082 18.9106 23.8082C18.882 23.8082 18.8534 23.7567 18.8534 23.6937C18.8534 23.6307 18.8305 23.5791 18.7962 23.5791C18.7676 23.5791 18.7391 23.4989 18.7391 23.4072C18.7391 23.3099 18.7162 23.2354 18.6819 23.2354C18.6533 23.2354 18.6247 23.1838 18.6247 23.1208C18.6247 23.0578 18.6019 23.0062 18.5676 23.0062C18.539 23.0062 18.5104 22.9547 18.5104 22.8917C18.5104 22.8287 18.4875 22.7771 18.4532 22.7771C18.4246 22.7771 18.3961 22.7255 18.3961 22.6625C18.3961 22.5995 18.3732 22.548 18.3389 22.548C18.3103 22.548 18.2817 22.4964 18.2817 22.4334C18.2817 22.3704 18.2589 22.3188 18.2246 22.3188C18.196 22.3188 18.1674 22.2386 18.1674 22.147C18.1674 22.0496 18.1445 21.9751 18.1102 21.9751C18.0816 21.9751 18.0531 21.9235 18.0531 21.8605C18.0531 21.7975 18.0302 21.746 17.9959 21.746C17.9673 21.746 17.9387 21.6944 17.9387 21.6314C17.9387 21.5684 17.9159 21.5168 17.8816 21.5168C17.853 21.5168 17.8244 21.4653 17.8244 21.4022C17.8244 21.3392 17.8015 21.2877 17.7672 21.2877C17.7386 21.2877 17.7101 21.2075 17.7101 21.1158C17.7101 21.0184 17.6872 20.944 17.6529 20.944C17.6243 20.944 17.5957 20.8924 17.5957 20.8294C17.5957 20.7664 17.5729 20.7148 17.5386 20.7148C17.51 20.7148 17.4814 20.6633 17.4814 20.6003C17.4814 20.5372 17.4585 20.4857 17.4242 20.4857C17.3956 20.4857 17.3671 20.4341 17.3671 20.3711C17.3671 20.3081 17.3442 20.2565 17.3099 20.2565C17.2813 20.2565 17.2527 20.205 17.2527 20.142C17.2527 20.079 17.2299 20.0274 17.1956 20.0274C17.167 20.0274 17.1384 19.9472 17.1384 19.8555C17.1384 19.7582 17.1155 19.6837 17.0812 19.6837C17.0526 19.6837 17.0241 19.6321 17.0241 19.5691C17.0241 19.5061 17.0012 19.4545 16.9669 19.4545C16.9383 19.4545 16.9097 19.403 16.9097 19.34C16.9097 19.277 16.8869 19.2254 16.8526 19.2254C16.824 19.2254 16.7954 19.1738 16.7954 19.1108C16.7954 19.0478 16.7725 18.9963 16.7382 18.9963C16.7096 18.9963 16.6811 18.9161 16.6811 18.8244C16.6811 18.727 16.6582 18.6525 16.6239 18.6525C16.5953 18.6525 16.5667 18.601 16.5667 18.538C16.5667 18.475 16.5439 18.4234 16.5096 18.4234C16.481 18.4234 16.4524 18.3718 16.4524 18.3088C16.4524 18.2458 16.4295 18.1943 16.3952 18.1943C16.3666 18.1943 16.3381 18.1427 16.3381 18.0797C16.3381 18.0167 16.3152 17.9651 16.2809 17.9651C16.2523 17.9651 16.2237 17.8849 16.2237 17.7933C16.2237 17.6959 16.2009 17.6214 16.1666 17.6214C16.138 17.6214 16.1094 17.5699 16.1094 17.5068C16.1094 17.4438 16.0865 17.3923 16.0522 17.3923C16.0237 17.3923 15.9951 17.4438 15.9951 17.5068C15.9951 17.5699 15.9722 17.6214 15.9379 17.6214C15.9093 17.6214 15.8807 17.673 15.8807 17.736C15.8807 17.799 15.8579 17.8506 15.8236 17.8506C15.795 17.8506 15.7664 17.9021 15.7664 17.9651C15.7664 18.0281 15.7435 18.0797 15.7092 18.0797C15.6807 18.0797 15.6521 18.1542 15.6521 18.2515C15.6521 18.3432 15.6292 18.4234 15.5949 18.4234C15.5663 18.4234 15.5377 18.475 15.5377 18.538C15.5377 18.601 15.5149 18.6525 15.4806 18.6525C15.452 18.6525 15.4234 18.7041 15.4234 18.7671C15.4234 18.8301 15.4005 18.8817 15.3662 18.8817C15.3377 18.8817 15.3091 18.9562 15.3091 19.0535C15.3091 19.1452 15.2862 19.2254 15.2519 19.2254C15.2233 19.2254 15.1947 19.277 15.1947 19.3342C15.1947 19.3973 15.1604 19.4603 15.1261 19.4775C15.069 19.5061 15.069 19.5176 15.1261 19.5462C15.1604 19.5634 15.1947 19.6264 15.1947 19.6894C15.1947 19.7467 15.2233 19.7983 15.2519 19.7983C15.2862 19.7983 15.3091 19.8727 15.3091 19.9701C15.3091 20.0618 15.3377 20.142 15.3662 20.142C15.4005 20.142 15.4234 20.1935 15.4234 20.2565C15.4234 20.3196 15.452 20.3711 15.4806 20.3711C15.5149 20.3711 15.5377 20.4227 15.5377 20.4857C15.5377 20.5487 15.5663 20.6003 15.5949 20.6003C15.6292 20.6003 15.6521 20.6747 15.6521 20.7721C15.6521 20.8638 15.6807 20.944 15.7092 20.944C15.7435 20.944 15.7664 20.9955 15.7664 21.0585C15.7664 21.1216 15.795 21.1731 15.8236 21.1731C15.8579 21.1731 15.8807 21.2247 15.8807 21.2877C15.8807 21.3507 15.9093 21.4022 15.9379 21.4022C15.9722 21.4022 15.9951 21.4767 15.9951 21.5741C15.9951 21.6658 16.0237 21.746 16.0522 21.746C16.0865 21.746 16.1094 21.7975 16.1094 21.8605C16.1094 21.9235 16.138 21.9751 16.1666 21.9751C16.2009 21.9751 16.2237 22.0267 16.2237 22.0897C16.2237 22.1527 16.2523 22.2042 16.2809 22.2042C16.3152 22.2042 16.3381 22.2558 16.3381 22.3188C16.3381 22.3818 16.3666 22.4334 16.3952 22.4334C16.4295 22.4334 16.4524 22.5079 16.4524 22.6052C16.4524 22.6969 16.481 22.7771 16.5096 22.7771C16.5439 22.7771 16.5667 22.8287 16.5667 22.8917C16.5667 22.9547 16.5953 23.0062 16.6239 23.0062C16.6582 23.0062 16.6811 23.0578 16.6811 23.1208C16.6811 23.1838 16.7096 23.2354 16.7382 23.2354C16.7725 23.2354 16.7954 23.3099 16.7954 23.4072C16.7954 23.4989 16.824 23.5791 16.8526 23.5791C16.8869 23.5791 16.9097 23.602 16.9097 23.6364C16.9097 23.6708 16.2638 23.6937 15.0804 23.6937H13.2511V23.8655C13.2511 23.9572 13.2282 24.0374 13.1939 24.0374C13.1653 24.0374 13.1368 24.0889 13.1368 24.152C13.1368 24.215 13.1139 24.2665 13.0796 24.2665C13.051 24.2665 13.0224 24.3181 13.0224 24.3811C13.0224 24.4441 12.9996 24.4957 12.9653 24.4957C12.9367 24.4957 12.9081 24.5701 12.9081 24.6675C12.9081 24.7592 12.8852 24.8394 12.8509 24.8394C12.8223 24.8394 12.7938 24.8909 12.7938 24.9539C12.7938 25.017 12.7709 25.0685 12.7366 25.0685C12.708 25.0685 12.6794 25.1201 12.6794 25.1831C12.6794 25.2977 12.7194 25.2977 15.1147 25.2977C17.6758 25.2977 17.7101 25.3034 17.7101 25.5497C17.7101 25.6013 17.7386 25.6414 17.7672 25.6414C17.8015 25.6414 17.8244 25.7158 17.8244 25.8132C17.8244 25.9049 17.853 25.9851 17.8816 25.9851C17.9159 25.9851 17.9387 26.0366 17.9387 26.0997C17.9387 26.1627 17.9673 26.2142 17.9959 26.2142C18.0302 26.2142 18.0531 26.2658 18.0531 26.3288C18.0531 26.3918 18.0816 26.4434 18.1102 26.4434C18.1445 26.4434 18.1674 26.5178 18.1674 26.6152C18.1674 26.7069 18.196 26.7871 18.2246 26.7871C18.2589 26.7871 18.2817 26.8386 18.2817 26.9017C18.2817 26.9647 18.3103 27.0162 18.3389 27.0162C18.3732 27.0162 18.3961 27.0678 18.3961 27.1308C18.3961 27.1938 18.4246 27.2454 18.4532 27.2454C18.4875 27.2454 18.5104 27.3198 18.5104 27.4172C18.5104 27.5089 18.539 27.5891 18.5676 27.5891C18.6019 27.5891 18.6247 27.6406 18.6247 27.7036C18.6247 27.7667 18.6533 27.8182 18.6819 27.8182C18.7162 27.8182 18.7391 27.8698 18.7391 27.9328C18.7391 27.9958 18.7676 28.0474 18.7962 28.0474C18.8305 28.0474 18.8534 28.1218 18.8534 28.2192C18.8534 28.3109 18.882 28.3911 18.9106 28.3911C18.9449 28.3911 18.9677 28.4426 18.9677 28.5056C18.9677 28.5687 18.9963 28.6202 19.0249 28.6202C19.0592 28.6202 19.0821 28.6603 19.0821 28.7119C19.0821 28.8895 19.2364 28.9639 19.608 28.9639C19.9052 28.9639 19.9853 28.941 20.0539 28.8494C20.0996 28.7863 20.1796 28.7348 20.2368 28.7348C20.294 28.7348 20.3397 28.7061 20.3397 28.6775C20.3397 28.6431 20.3854 28.6202 20.4426 28.6202C20.4998 28.6202 20.5798 28.5687 20.6255 28.5056C20.6713 28.4426 20.7456 28.3911 20.797 28.3911C20.8485 28.3911 20.9228 28.3395 20.9685 28.2765C21.0143 28.2135 21.0829 28.1619 21.1286 28.1619C21.1686 28.1619 21.3287 28.0302 21.483 27.8755C21.6374 27.7151 21.7917 27.5891 21.826 27.5891C21.9061 27.5891 22.7407 26.7527 22.7407 26.6668C22.7407 26.6324 22.8436 26.5064 22.9694 26.3861C23.0951 26.2658 23.198 26.134 23.198 26.0997C23.198 26.0596 23.2723 25.9564 23.3695 25.8705C23.461 25.7846 23.541 25.67 23.541 25.6185C23.541 25.5669 23.5696 25.5268 23.5982 25.5268C23.6325 25.5268 23.6554 25.481 23.6554 25.4237C23.6554 25.3664 23.7068 25.2862 23.7697 25.2404C23.8326 25.1945 23.884 25.1143 23.884 25.0571C23.884 24.9998 23.9126 24.9539 23.9412 24.9539C23.9755 24.9539 23.9984 24.9024 23.9984 24.8394C23.9984 24.7764 24.0269 24.7248 24.0555 24.7248C24.0898 24.7248 24.1127 24.6732 24.1127 24.6102C24.1127 24.5472 24.1413 24.4957 24.1699 24.4957C24.2042 24.4957 24.227 24.4441 24.227 24.3811C24.227 24.3181 24.2556 24.2665 24.2842 24.2665C24.3185 24.2665 24.3414 24.215 24.3414 24.152C24.3414 24.0889 24.3699 24.0374 24.3985 24.0374C24.4328 24.0374 24.4557 23.9858 24.4557 23.9228C24.4557 23.8598 24.4843 23.8082 24.5129 23.8082C24.5472 23.8082 24.57 23.728 24.57 23.6364C24.57 23.539 24.5986 23.4645 24.6272 23.4645C24.6615 23.4645 24.6844 23.3843 24.6844 23.2927C24.6844 23.1953 24.7129 23.1208 24.7415 23.1208C24.7758 23.1208 24.7987 23.0406 24.7987 22.949C24.7987 22.8516 24.8273 22.7771 24.8559 22.7771C24.8902 22.7771 24.913 22.6969 24.913 22.6052C24.913 22.5079 24.9416 22.4334 24.9702 22.4334C25.0045 22.4334 25.0273 22.3016 25.0273 22.147C25.0273 21.9866 25.0559 21.8605 25.0845 21.8605C25.1188 21.8605 25.1417 21.6887 25.1417 21.4595C25.1417 21.2304 25.1645 21.0585 25.1988 21.0585C25.2331 21.0585 25.256 20.6404 25.256 19.9128C25.256 19.1853 25.2331 18.7671 25.1988 18.7671C25.1645 18.7671 25.1417 18.6124 25.1417 18.4234C25.1417 18.2344 25.1188 18.0797 25.0845 18.0797C25.0559 18.0797 25.0273 17.9479 25.0273 17.7933C25.0273 17.6329 25.0045 17.5068 24.9702 17.5068C24.9416 17.5068 24.913 17.4037 24.913 17.2777C24.913 17.1517 24.8902 17.0486 24.8559 17.0486C24.8273 17.0486 24.7987 16.9684 24.7987 16.8767C24.7987 16.7793 24.7758 16.7048 24.7415 16.7048C24.7129 16.7048 24.6844 16.6246 24.6844 16.533C24.6844 16.4356 24.6615 16.3611 24.6272 16.3611C24.5986 16.3611 24.57 16.3096 24.57 16.2466C24.57 16.1835 24.5472 16.132 24.5129 16.132C24.4843 16.132 24.4557 16.0518 24.4557 15.9601C24.4557 15.8627 24.4328 15.7883 24.3985 15.7883C24.3699 15.7883 24.3414 15.7367 24.3414 15.6737C24.3414 15.6107 24.3185 15.5591 24.2842 15.5591C24.2556 15.5591 24.227 15.5076 24.227 15.4446C24.227 15.3815 24.2042 15.33 24.1699 15.33C24.1413 15.33 24.1127 15.2784 24.1127 15.2154C24.1127 15.1524 24.0898 15.1009 24.0555 15.1009C24.0269 15.1009 23.9984 15.055 23.9984 14.9977C23.9984 14.9405 23.9469 14.8603 23.884 14.8144C23.8211 14.7686 23.7697 14.6941 23.7697 14.6426C23.7697 14.591 23.7182 14.5165 23.6554 14.4707C23.5925 14.4249 23.541 14.3504 23.541 14.2989C23.541 14.2473 23.4896 14.1728 23.4267 14.127C23.3638 14.0812 23.3124 14.0067 23.3124 13.9551C23.3124 13.9036 23.2609 13.8291 23.198 13.7833C23.0894 13.7031 23.0837 13.6343 23.0837 11.1367C23.0837 8.61041 23.0837 8.57031 22.9694 8.57031C22.9065 8.57031 22.855 8.59322 22.855 8.62759C22.855 8.65624 22.7521 8.68488 22.6264 8.68488C22.5006 8.68488 22.3977 8.70779 22.3977 8.74216C22.3977 8.77081 22.2719 8.79945 22.1119 8.79945C21.9575 8.79945 21.826 8.82236 21.826 8.85674C21.826 8.88538 21.7231 8.91402 21.5974 8.91402C21.4716 8.91402 21.3687 8.93694 21.3687 8.97131C21.3687 8.99995 21.2658 9.02859 21.14 9.02859C21.0143 9.02859 20.9114 9.05151 20.9114 9.08588C20.9114 9.11452 20.7856 9.14316 20.6255 9.14316C20.4712 9.14316 20.3397 9.16608 20.3397 9.20045C20.3397 9.22909 20.2368 9.25773 20.111 9.25773C19.9853 9.25773 19.8824 9.28065 19.8824 9.31502C19.8824 9.34366 19.7795 9.3723 19.6537 9.3723C19.5279 9.3723 19.425 9.39522 19.425 9.42959C19.425 9.45823 19.2993 9.48688 19.1392 9.48688C18.9849 9.48688 18.8534 9.50979 18.8534 9.54416C18.8534 9.57281 18.7505 9.60145 18.6247 9.60145C18.499 9.60145 18.3961 9.62436 18.3961 9.65873C18.3961 9.68738 18.2703 9.71602 18.1102 9.71602C17.9559 9.71602 17.8244 9.73893 17.8244 9.7733C17.8244 9.80195 17.7215 9.83059 17.5957 9.83059C17.47 9.83059 17.3671 9.8535 17.3671 9.88787C17.3671 9.91652 17.2642 9.94516 17.1384 9.94516C17.0126 9.94516 16.9097 9.96807 16.9097 10.0024C16.9097 10.0311 16.784 10.0597 16.6239 10.0597C16.4695 10.0597 16.3381 10.0826 16.3381 10.117C16.3381 10.1457 16.2866 10.1743 16.2237 10.1743C16.1609 10.1743 16.1094 10.1457 16.1094 10.117C16.1094 10.0826 16.1609 10.0597 16.2237 10.0597C16.2866 10.0597 16.3381 10.0311 16.3381 10.0024C16.3381 9.96807 16.4181 9.94516 16.5096 9.94516C16.6067 9.94516 16.6811 9.91652 16.6811 9.88787C16.6811 9.8535 16.7611 9.83059 16.8526 9.83059C16.9497 9.83059 17.0241 9.80195 17.0241 9.7733C17.0241 9.73893 17.127 9.71602 17.2527 9.71602C17.3785 9.71602 17.4814 9.68738 17.4814 9.65873C17.4814 9.62436 17.5614 9.60145 17.6529 9.60145C17.7501 9.60145 17.8244 9.57281 17.8244 9.54416C17.8244 9.50979 17.9044 9.48688 17.9959 9.48688C18.0931 9.48688 18.1674 9.45823 18.1674 9.42959C18.1674 9.39522 18.2474 9.3723 18.3389 9.3723C18.4361 9.3723 18.5104 9.34366 18.5104 9.31502C18.5104 9.28065 18.5904 9.25773 18.6819 9.25773C18.7791 9.25773 18.8534 9.22909 18.8534 9.20045C18.8534 9.16608 18.9334 9.14316 19.0249 9.14316C19.1221 9.14316 19.1964 9.11452 19.1964 9.08588C19.1964 9.05151 19.2764 9.02859 19.3679 9.02859C19.4651 9.02859 19.5394 8.99995 19.5394 8.97131C19.5394 8.93694 19.6194 8.91402 19.7109 8.91402C19.8081 8.91402 19.8824 8.88538 19.8824 8.85674C19.8824 8.82236 19.9624 8.79945 20.0539 8.79945C20.1511 8.79945 20.2254 8.77081 20.2254 8.74216C20.2254 8.70779 20.3054 8.68488 20.3969 8.68488C20.4941 8.68488 20.5684 8.65624 20.5684 8.62759C20.5684 8.59322 20.6713 8.57031 20.797 8.57031C20.9228 8.57031 21.0257 8.54167 21.0257 8.51302C21.0257 8.47865 21.1057 8.45574 21.1972 8.45574C21.2944 8.45574 21.3687 8.4271 21.3687 8.39845C21.3687 8.36408 21.4487 8.34117 21.5402 8.34117C21.6374 8.34117 21.7117 8.31252 21.7117 8.28388C21.7117 8.24951 21.7917 8.2266 21.8832 8.2266C21.9804 8.2266 22.0547 8.19795 22.0547 8.16931C22.0547 8.13494 22.1347 8.11203 22.2262 8.11203C22.3234 8.11203 22.3977 8.08338 22.3977 8.05474C22.3977 8.02037 22.4777 7.99746 22.5692 7.99746C22.6664 7.99746 22.7407 7.96881 22.7407 7.94017C22.7407 7.9058 22.8207 7.88288 22.9122 7.88288C23.0094 7.88288 23.0837 7.85424 23.0837 7.8256C23.0837 7.79123 23.1637 7.76831 23.2552 7.76831C23.3524 7.76831 23.4267 7.73967 23.4267 7.71103C23.4267 7.67666 23.5067 7.65374 23.5982 7.65374C23.6954 7.65374 23.7697 7.6251 23.7697 7.59646C23.7697 7.56209 23.8497 7.53917 23.9412 7.53917C24.0384 7.53917 24.1127 7.51053 24.1127 7.48189C24.1127 7.44751 24.2156 7.4246 24.3414 7.4246C24.4671 7.4246 24.57 7.39596 24.57 7.36732C24.57 7.33294 24.6501 7.31003 24.7415 7.31003C24.8387 7.31003 24.913 7.28139 24.913 7.25274C24.913 7.21837 24.993 7.19546 25.0845 7.19546C25.1817 7.19546 25.256 7.16682 25.256 7.13817C25.256 7.1038 25.336 7.08089 25.4275 7.08089C25.5247 7.08089 25.599 7.05224 25.599 7.0236C25.599 6.98923 25.679 6.96632 25.7705 6.96632C25.8677 6.96632 25.942 6.93767 25.942 6.90903C25.942 6.87466 26.022 6.85175 26.1135 6.85175C26.2107 6.85175 26.285 6.8231 26.285 6.79446C26.285 6.76009 26.365 6.73717 26.4565 6.73717C26.5537 6.73717 26.628 6.70853 26.628 6.67989C26.628 6.64552 26.708 6.6226 26.7995 6.6226C26.8967 6.6226 26.971 6.59396 26.971 6.56532C26.971 6.53095 27.051 6.50803 27.1425 6.50803C27.2397 6.50803 27.314 6.47939 27.314 6.45075C27.314 6.41638 27.394 6.39346 27.4855 6.39346C27.5827 6.39346 27.657 6.36482 27.657 6.33618C27.657 6.30181 27.737 6.27889 27.8285 6.27889C27.96 6.27889 28 6.25598 28 6.16432C28 6.07266 27.96 6.04975 27.8285 6.04975C27.737 6.04975 27.657 6.02111 27.657 5.99246C27.657 5.95809 27.5541 5.93518 27.4283 5.93518C27.3026 5.93518 27.1997 5.90654 27.1997 5.87789C27.1997 5.84352 27.1254 5.82061 27.0282 5.82061C26.9367 5.82061 26.8567 5.79197 26.8567 5.76332C26.8567 5.72895 26.7824 5.70604 26.6852 5.70604C26.5937 5.70604 26.5137 5.67739 26.5137 5.64875C26.5137 5.61438 26.4394 5.59147 26.3422 5.59147C26.2507 5.59147 26.1707 5.56282 26.1707 5.53418C26.1707 5.49981 26.0964 5.47689 25.9992 5.47689C25.9077 5.47689 25.8277 5.44825 25.8277 5.41961C25.8277 5.38524 25.7534 5.36232 25.6562 5.36232C25.5647 5.36232 25.4847 5.33368 25.4847 5.30504C25.4847 5.27067 25.4104 5.24775 25.3132 5.24775C25.2217 5.24775 25.1417 5.21911 25.1417 5.19047C25.1417 5.1561 25.0674 5.13318 24.9702 5.13318C24.8787 5.13318 24.7987 5.10454 24.7987 5.0759C24.7987 5.04152 24.7244 5.01861 24.6272 5.01861C24.5357 5.01861 24.4557 4.98997 24.4557 4.96133C24.4557 4.92695 24.3814 4.90404 24.2842 4.90404C24.1927 4.90404 24.1127 4.8754 24.1127 4.84676C24.1127 4.81238 24.0098 4.78947 23.884 4.78947C23.7583 4.78947 23.6554 4.76083 23.6554 4.73218C23.6554 4.69781 23.581 4.6749 23.4839 4.6749C23.3924 4.6749 23.3124 4.64626 23.3124 4.61761C23.3124 4.58324 23.238 4.56033 23.1409 4.56033C23.0494 4.56033 22.9694 4.53168 22.9694 4.50304C22.9694 4.46867 22.895 4.44576 22.7979 4.44576C22.7064 4.44576 22.6264 4.41711 22.6264 4.38847C22.6264 4.3541 22.552 4.33119 22.4549 4.33119C22.3634 4.33119 22.2834 4.30254 22.2834 4.2739C22.2834 4.23953 22.209 4.21662 22.1119 4.21662C22.0204 4.21662 21.9404 4.18797 21.9404 4.15933C21.9404 4.12496 21.8661 4.10205 21.7689 4.10205C21.6774 4.10205 21.5974 4.0734 21.5974 4.04476C21.5974 4.01039 21.5231 3.98747 21.4259 3.98747C21.3344 3.98747 21.2544 3.95883 21.2544 3.93019C21.2544 3.89582 21.1801 3.8729 21.0829 3.8729C20.9914 3.8729 20.9114 3.84426 20.9114 3.81562C20.9114 3.78125 20.8371 3.75833 20.7399 3.75833C20.6484 3.75833 20.5684 3.72969 20.5684 3.70105C20.5684 3.66668 20.4655 3.64376 20.3397 3.64376C20.2139 3.64376 20.111 3.61512 20.111 3.58648C20.111 3.5521 20.0367 3.52919 19.9395 3.52919C19.8481 3.52919 19.768 3.50055 19.768 3.4719C19.768 3.43753 19.6937 3.41462 19.5965 3.41462C19.5051 3.41462 19.425 3.38598 19.425 3.35733C19.425 3.32296 19.3507 3.30005 19.2535 3.30005C19.1621 3.30005 19.0821 3.27141 19.0821 3.24276C19.0821 3.20839 19.0077 3.18548 18.9106 3.18548C18.8191 3.18548 18.7391 3.15683 18.7391 3.12819C18.7391 3.09382 18.6647 3.07091 18.5676 3.07091C18.4761 3.07091 18.3961 3.04226 18.3961 3.01362C18.3961 2.97925 18.3217 2.95634 18.2246 2.95634C18.1331 2.95634 18.0531 2.92769 18.0531 2.89905C18.0531 2.86468 17.9787 2.84176 17.8816 2.84176C17.7901 2.84176 17.7101 2.81312 17.7101 2.78448C17.7101 2.75011 17.6357 2.72719 17.5386 2.72719C17.4471 2.72719 17.3671 2.69855 17.3671 2.66991C17.3671 2.63554 17.2927 2.61262 17.1956 2.61262C17.1041 2.61262 17.0241 2.58398 17.0241 2.55534C17.0241 2.52097 16.9212 2.49805 16.7954 2.49805C16.6696 2.49805 16.5667 2.46941 16.5667 2.44077C16.5667 2.40639 16.4924 2.38348 16.3952 2.38348C16.3038 2.38348 16.2237 2.35484 16.2237 2.32619C16.2237 2.29182 16.1494 2.26891 16.0522 2.26891C15.9608 2.26891 15.8807 2.24027 15.8807 2.21162C15.8807 2.17725 15.8064 2.15434 15.7092 2.15434C15.6178 2.15434 15.5377 2.1257 15.5377 2.09705C15.5377 2.06268 15.4634 2.03977 15.3662 2.03977C15.2748 2.03977 15.1947 2.01113 15.1947 1.98248C15.1947 1.94811 15.1719 1.9252 15.1376 1.9252C15.109 1.9252 15.0804 1.94811 15.0804 1.98248Z" fill="#9EBBFD"/>
<path d="M16.9668 12.8104C16.8582 12.9307 16.7324 13.0338 16.6924 13.0396C16.6467 13.0396 16.5152 13.1427 16.3951 13.2687C16.2751 13.3947 16.1436 13.4978 16.1093 13.4978C16.075 13.4978 15.9435 13.601 15.8235 13.727C15.7034 13.853 15.5719 13.9561 15.5376 13.9561C15.5033 13.9561 15.3719 14.0592 15.2518 14.1853C15.1318 14.3113 15.006 14.4144 14.966 14.4144C14.8745 14.4144 14.623 14.6837 14.623 14.7868C14.623 14.8498 14.6859 14.8727 14.8517 14.8727C14.9774 14.8727 15.0803 14.8956 15.0803 14.93C15.0803 14.9586 15.1318 14.9873 15.1946 14.9873C15.269 14.9873 15.309 15.0274 15.309 15.1018C15.309 15.1649 15.3376 15.2164 15.3661 15.2164C15.4004 15.2164 15.4233 15.2565 15.4233 15.3081C15.4233 15.394 15.5548 15.5601 15.6177 15.5601C15.6348 15.5601 15.652 15.5086 15.652 15.4455C15.652 15.3825 15.6806 15.331 15.7091 15.331C15.7434 15.331 15.7663 15.2794 15.7663 15.2164C15.7663 15.1534 15.7949 15.1018 15.8235 15.1018C15.8578 15.1018 15.8806 15.0503 15.8806 14.9873C15.8806 14.9243 15.9092 14.8727 15.9378 14.8727C15.9721 14.8727 15.995 14.8211 15.995 14.7581C15.995 14.6951 16.0236 14.6436 16.0521 14.6436C16.0864 14.6436 16.1093 14.592 16.1093 14.529C16.1093 14.466 16.1379 14.4144 16.1665 14.4144C16.2008 14.4144 16.2236 14.3629 16.2236 14.2998C16.2236 14.2368 16.2522 14.1853 16.2808 14.1853C16.3151 14.1853 16.338 14.1337 16.338 14.0707C16.338 14.0077 16.3666 13.9561 16.3951 13.9561C16.4294 13.9561 16.4523 14.1681 16.4523 14.4717C16.4523 14.7753 16.4294 14.9873 16.3951 14.9873C16.3666 14.9873 16.338 15.0388 16.338 15.1018C16.338 15.1763 16.378 15.2164 16.4523 15.2164C16.5152 15.2164 16.5666 15.2393 16.5666 15.2737C16.5666 15.3023 16.6981 15.331 16.8525 15.331C17.0125 15.331 17.1383 15.3539 17.1383 15.3883C17.1383 15.4169 17.1669 15.4455 17.1955 15.4455C17.2298 15.4455 17.2526 14.93 17.2526 14.0134C17.2526 13.2229 17.2355 12.5813 17.2126 12.5813C17.184 12.587 17.0754 12.6901 16.9668 12.8104Z" fill="#9EBBFD"/>
<path d="M45.88 19.6046H40.06L39.06 22.4446H36.68L41.66 8.52458H44.3L49.28 22.4446H46.88L45.88 19.6046ZM45.24 17.7446L42.98 11.2846L40.7 17.7446H45.24ZM50.6853 16.8846C50.6853 15.7779 50.912 14.7979 51.3653 13.9446C51.832 13.0912 52.4586 12.4312 53.2453 11.9646C54.0453 11.4846 54.932 11.2446 55.9053 11.2446C56.6253 11.2446 57.332 11.4046 58.0253 11.7246C58.732 12.0312 59.292 12.4446 59.7053 12.9646V7.64458H62.0053V22.4446H59.7053V20.7846C59.332 21.3179 58.812 21.7579 58.1453 22.1046C57.492 22.4512 56.7386 22.6246 55.8853 22.6246C54.9253 22.6246 54.0453 22.3846 53.2453 21.9046C52.4586 21.4112 51.832 20.7312 51.3653 19.8646C50.912 18.9846 50.6853 17.9912 50.6853 16.8846ZM59.7053 16.9246C59.7053 16.1646 59.5453 15.5046 59.2253 14.9446C58.9186 14.3846 58.512 13.9579 58.0053 13.6646C57.4986 13.3712 56.952 13.2246 56.3653 13.2246C55.7786 13.2246 55.232 13.3712 54.7253 13.6646C54.2186 13.9446 53.8053 14.3646 53.4853 14.9246C53.1786 15.4712 53.0253 16.1246 53.0253 16.8846C53.0253 17.6446 53.1786 18.3112 53.4853 18.8846C53.8053 19.4579 54.2186 19.8979 54.7253 20.2046C55.2453 20.4979 55.792 20.6446 56.3653 20.6446C56.952 20.6446 57.4986 20.4979 58.0053 20.2046C58.512 19.9112 58.9186 19.4846 59.2253 18.9246C59.5453 18.3512 59.7053 17.6846 59.7053 16.9246ZM78.34 11.2446C79.2067 11.2446 79.98 11.4246 80.66 11.7846C81.3533 12.1446 81.8933 12.6779 82.28 13.3846C82.68 14.0912 82.88 14.9446 82.88 15.9446V22.4446H80.62V16.2846C80.62 15.2979 80.3733 14.5446 79.88 14.0246C79.3867 13.4912 78.7133 13.2246 77.86 13.2246C77.0067 13.2246 76.3267 13.4912 75.82 14.0246C75.3267 14.5446 75.08 15.2979 75.08 16.2846V22.4446H72.82V16.2846C72.82 15.2979 72.5733 14.5446 72.08 14.0246C71.5867 13.4912 70.9133 13.2246 70.06 13.2246C69.2067 13.2246 68.5267 13.4912 68.02 14.0246C67.5267 14.5446 67.28 15.2979 67.28 16.2846V22.4446H65V11.4246H67.28V12.6846C67.6533 12.2312 68.1267 11.8779 68.7 11.6246C69.2733 11.3712 69.8867 11.2446 70.54 11.2446C71.42 11.2446 72.2067 11.4312 72.9 11.8046C73.5933 12.1779 74.1267 12.7179 74.5 13.4246C74.8333 12.7579 75.3533 12.2312 76.06 11.8446C76.7667 11.4446 77.5267 11.2446 78.34 11.2446ZM86.9413 9.96458C86.5279 9.96458 86.1813 9.82458 85.9013 9.54458C85.6213 9.26458 85.4813 8.91791 85.4813 8.50458C85.4813 8.09125 85.6213 7.74458 85.9013 7.46458C86.1813 7.18458 86.5279 7.04458 86.9413 7.04458C87.3413 7.04458 87.6813 7.18458 87.9613 7.46458C88.2413 7.74458 88.3813 8.09125 88.3813 8.50458C88.3813 8.91791 88.2413 9.26458 87.9613 9.54458C87.6813 9.82458 87.3413 9.96458 86.9413 9.96458ZM88.0613 11.4246V22.4446H85.7813V11.4246H88.0613ZM93.7147 13.2846V19.3846C93.7147 19.7979 93.808 20.0979 93.9947 20.2846C94.1947 20.4579 94.528 20.5446 94.9947 20.5446H96.3947V22.4446H94.5947C93.568 22.4446 92.7814 22.2046 92.2347 21.7246C91.688 21.2446 91.4147 20.4646 91.4147 19.3846V13.2846H90.1147V11.4246H91.4147V8.68458H93.7147V11.4246H96.3947V13.2846H93.7147ZM103.076 22.5846C102.143 22.5846 101.303 22.4246 100.556 22.1046C99.8094 21.7712 99.2228 21.3046 98.7961 20.7046C98.3694 20.1046 98.1561 19.4046 98.1561 18.6046H100.596C100.649 19.2046 100.883 19.6979 101.296 20.0846C101.723 20.4712 102.316 20.6646 103.076 20.6646C103.863 20.6646 104.476 20.4779 104.916 20.1046C105.356 19.7179 105.576 19.2246 105.576 18.6246C105.576 18.1579 105.436 17.7779 105.156 17.4846C104.889 17.1912 104.549 16.9646 104.136 16.8046C103.736 16.6446 103.176 16.4712 102.456 16.2846C101.549 16.0446 100.809 15.8046 100.236 15.5646C99.6761 15.3112 99.1961 14.9246 98.7961 14.4046C98.3961 13.8846 98.1961 13.1912 98.1961 12.3246C98.1961 11.5246 98.3961 10.8246 98.7961 10.2246C99.1961 9.62458 99.7561 9.16458 100.476 8.84458C101.196 8.52458 102.029 8.36458 102.976 8.36458C104.323 8.36458 105.423 8.70458 106.276 9.38458C107.143 10.0512 107.623 10.9712 107.716 12.1446H105.196C105.156 11.6379 104.916 11.2046 104.476 10.8446C104.036 10.4846 103.456 10.3046 102.736 10.3046C102.083 10.3046 101.549 10.4712 101.136 10.8046C100.723 11.1379 100.516 11.6179 100.516 12.2446C100.516 12.6712 100.643 13.0246 100.896 13.3046C101.163 13.5712 101.496 13.7846 101.896 13.9446C102.296 14.1046 102.843 14.2779 103.536 14.4646C104.456 14.7179 105.203 14.9712 105.776 15.2246C106.363 15.4779 106.856 15.8712 107.256 16.4046C107.669 16.9246 107.876 17.6246 107.876 18.5046C107.876 19.2112 107.683 19.8779 107.296 20.5046C106.923 21.1312 106.369 21.6379 105.636 22.0246C104.916 22.3979 104.063 22.5846 103.076 22.5846ZM112.846 13.0446C113.233 12.5379 113.76 12.1112 114.426 11.7646C115.093 11.4179 115.846 11.2446 116.686 11.2446C117.646 11.2446 118.52 11.4846 119.306 11.9646C120.106 12.4312 120.733 13.0912 121.186 13.9446C121.64 14.7979 121.866 15.7779 121.866 16.8846C121.866 17.9912 121.64 18.9846 121.186 19.8646C120.733 20.7312 120.106 21.4112 119.306 21.9046C118.52 22.3846 117.646 22.6246 116.686 22.6246C115.846 22.6246 115.1 22.4579 114.446 22.1246C113.793 21.7779 113.26 21.3512 112.846 20.8446V27.6846H110.566V11.4246H112.846V13.0446ZM119.546 16.8846C119.546 16.1246 119.386 15.4712 119.066 14.9246C118.76 14.3646 118.346 13.9446 117.826 13.6646C117.32 13.3712 116.773 13.2246 116.186 13.2246C115.613 13.2246 115.066 13.3712 114.546 13.6646C114.04 13.9579 113.626 14.3846 113.306 14.9446C113 15.5046 112.846 16.1646 112.846 16.9246C112.846 17.6846 113 18.3512 113.306 18.9246C113.626 19.4846 114.04 19.9112 114.546 20.2046C115.066 20.4979 115.613 20.6446 116.186 20.6446C116.773 20.6446 117.32 20.4979 117.826 20.2046C118.346 19.8979 118.76 19.4579 119.066 18.8846C119.386 18.3112 119.546 17.6446 119.546 16.8846ZM128.901 22.6246C127.861 22.6246 126.921 22.3912 126.081 21.9246C125.241 21.4446 124.581 20.7779 124.101 19.9246C123.621 19.0579 123.381 18.0579 123.381 16.9246C123.381 15.8046 123.628 14.8112 124.121 13.9446C124.614 13.0779 125.288 12.4112 126.141 11.9446C126.994 11.4779 127.948 11.2446 129.001 11.2446C130.054 11.2446 131.008 11.4779 131.861 11.9446C132.714 12.4112 133.388 13.0779 133.881 13.9446C134.374 14.8112 134.621 15.8046 134.621 16.9246C134.621 18.0446 134.368 19.0379 133.861 19.9046C133.354 20.7712 132.661 21.4446 131.781 21.9246C130.914 22.3912 129.954 22.6246 128.901 22.6246ZM128.901 20.6446C129.488 20.6446 130.034 20.5046 130.541 20.2246C131.061 19.9446 131.481 19.5246 131.801 18.9646C132.121 18.4046 132.281 17.7246 132.281 16.9246C132.281 16.1246 132.128 15.4512 131.821 14.9046C131.514 14.3446 131.108 13.9246 130.601 13.6446C130.094 13.3646 129.548 13.2246 128.961 13.2246C128.374 13.2246 127.828 13.3646 127.321 13.6446C126.828 13.9246 126.434 14.3446 126.141 14.9046C125.848 15.4512 125.701 16.1246 125.701 16.9246C125.701 18.1112 126.001 19.0312 126.601 19.6846C127.214 20.3246 127.981 20.6446 128.901 20.6446ZM139.535 13.2846V19.3846C139.535 19.7979 139.628 20.0979 139.815 20.2846C140.015 20.4579 140.348 20.5446 140.815 20.5446H142.215V22.4446H140.415C139.388 22.4446 138.602 22.2046 138.055 21.7246C137.508 21.2446 137.235 20.4646 137.235 19.3846V13.2846H135.935V11.4246H137.235V8.68458H139.535V11.4246H142.215V13.2846H139.535Z" fill="#9EBBFD"/>
</g>
<defs>
<clipPath id="clip0_39_3353">
<rect width="143" height="30" fill="white" transform="translate(0 0.44458)"/>
</clipPath>
</defs>
</svg>
