<svg width="11" height="8" viewBox="0 0 11 8" fill="none" xmlns="http://www.w3.org/2000/svg">
<rect x="1.38174" y="1.78841" width="8.52171" height="3.06781" fill="#D3E2FF"/>
<path fill-rule="evenodd" clip-rule="evenodd" d="M0.907973 1.6231C0.77121 1.8921 0.77121 2.24407 0.77121 2.94799V5.96482C0.77121 6.66875 0.77121 7.02071 0.907973 7.28971C1.02859 7.52617 1.22097 7.71837 1.45754 7.83877C1.72654 7.97604 2.0785 7.97604 2.78243 7.97604H8.81608C9.52001 7.97604 9.87197 7.97604 10.141 7.83877C10.3773 7.71828 10.5695 7.52609 10.69 7.28971C10.8273 7.02071 10.8273 6.66875 10.8273 5.96482V2.94799C10.8273 2.24407 10.8273 1.8921 10.69 1.6231C10.5696 1.38654 10.3774 1.19416 10.141 1.07354C9.87197 0.936775 9.52001 0.936775 8.81608 0.936775H2.78243C2.0785 0.936775 1.72654 0.936775 1.45754 1.07354C1.22089 1.19407 1.02851 1.38646 0.907973 1.6231ZM2.10213 1.94238H9.49638C9.55036 1.94232 9.60293 1.95963 9.64631 1.99176C9.68969 2.02388 9.72157 2.06912 9.73725 2.12078C9.75293 2.17243 9.75156 2.22776 9.73336 2.27858C9.71515 2.3294 9.68107 2.37301 9.63616 2.40295L6.07881 4.78222C5.99608 4.83756 5.89879 4.86711 5.79925 4.86711C5.69972 4.86711 5.60243 4.83756 5.5197 4.78222L1.96235 2.40295C1.91744 2.37301 1.88336 2.3294 1.86515 2.27858C1.84695 2.22776 1.84558 2.17243 1.86126 2.12078C1.87693 2.06912 1.90882 2.02388 1.9522 1.99176C1.99558 1.95963 2.04815 1.94232 2.10213 1.94238Z" fill="#025B95"/>
</svg>
