<svg width="10" height="22" viewBox="0 0 10 22" fill="none" xmlns="http://www.w3.org/2000/svg">
<rect x="1.90527" y="6.54919" width="5.08223" height="5.71751" fill="#263238"/>
<path fill-rule="evenodd" clip-rule="evenodd" d="M4.91968 8.01434C4.24035 8.01434 3.68976 8.56494 3.68976 9.24426C3.68976 9.92359 4.24035 10.4742 4.91968 10.4742C5.599 10.4742 6.14959 9.92359 6.14959 9.24426C6.14959 8.56494 5.599 8.01434 4.91968 8.01434ZM4.91968 11.2941C3.78774 11.2941 2.86981 10.3766 2.86981 9.24426C2.86981 8.11192 3.78774 7.1944 4.91968 7.1944C6.05161 7.1944 6.96954 8.11192 6.96954 9.24426C6.96954 10.3766 6.05161 11.2941 4.91968 11.2941ZM4.91968 4.32458C2.20279 4.32458 0 6.52737 0 9.24426C0 11.3015 4.10178 17.4482 4.91968 17.4437C5.72486 17.4482 9.83935 11.2736 9.83935 9.24426C9.83935 6.52737 7.63657 4.32458 4.91968 4.32458Z" fill="#9EBBFD"/>
</svg>
