<svg width="27" height="27" viewBox="0 0 27 27" fill="none" xmlns="http://www.w3.org/2000/svg">
<rect x="0.970032" y="0.44458" width="26.03" height="26.03" rx="13.015" fill="#061A31"/>
<path d="M14.4104 5.21751C15.2983 5.20386 16.1798 5.21096 17.0607 5.20386C17.09 6.31287 17.5369 7.31104 18.2481 8.05039L18.247 8.0493C19.0123 8.74332 20.0082 9.19326 21.1061 9.2697L21.1213 9.2708V12.0207C20.0842 11.9945 19.1089 11.7537 18.2296 11.3398L18.2741 11.3583C17.8488 11.1525 17.4892 10.9411 17.1475 10.7053L17.1757 10.7238C17.1692 12.7163 17.1822 14.7089 17.1621 16.6943C17.1062 17.7061 16.7721 18.6289 16.2362 19.3994L16.247 19.3824C15.3509 20.6744 13.8994 21.5224 12.2488 21.5726H12.2412C12.1745 21.5759 12.0958 21.5775 12.0166 21.5775C11.0782 21.5775 10.2011 21.3144 9.45363 20.8573L9.47532 20.8699C8.11491 20.0459 7.1765 18.636 7.00292 16.9962L7.00075 16.9738C6.98719 16.6326 6.98068 16.2913 6.99424 15.9571C7.26004 13.3476 9.43193 11.3288 12.0719 11.3288C12.3687 11.3288 12.6594 11.3545 12.942 11.4031L12.9116 11.3987C12.9252 12.4084 12.8845 13.4186 12.8845 14.4282C12.6551 14.3446 12.3903 14.296 12.1143 14.296C11.101 14.296 10.2391 14.948 9.92012 15.8583L9.91524 15.8747C9.84309 16.1078 9.80132 16.3759 9.80132 16.6533C9.80132 16.7658 9.80838 16.8772 9.82139 16.9864L9.82031 16.9733C10.0004 18.0905 10.9518 18.9336 12.0991 18.9336C12.1322 18.9336 12.1647 18.9331 12.1972 18.9314H12.1924C12.9859 18.9074 13.6748 18.4777 14.0643 17.8426L14.0697 17.8328C14.2145 17.6296 14.3138 17.3839 14.3469 17.1169L14.3474 17.1093C14.4152 15.8878 14.3881 14.6734 14.3946 13.4519C14.4011 10.702 14.3881 7.95865 14.4082 5.21587L14.4104 5.21751Z" fill="#FFF6F2"/>
</svg>
