<svg width="27" height="27" viewBox="0 0 27 27" fill="none" xmlns="http://www.w3.org/2000/svg">
<rect x="0.188293" y="0.44458" width="26.03" height="26.03" rx="13.015" fill="#061A31"/>
<g clip-path="url(#clip0_39_3420)">
<path fill-rule="evenodd" clip-rule="evenodd" d="M17.4708 16.3602C17.2971 16.8519 16.6067 17.2587 16.056 17.3776C15.6791 17.4577 15.1876 17.521 13.5313 16.8346C11.6712 16.0639 9.0881 13.3187 9.0881 11.4919C9.0881 10.5618 9.62431 9.4789 10.562 9.4789C11.0131 9.4789 11.1126 9.4877 11.2611 9.84384C11.4348 10.2634 11.8586 11.2972 11.909 11.4032C12.1173 11.8379 11.6971 12.0924 11.3922 12.4709C11.2949 12.5848 11.1847 12.708 11.3079 12.9199C11.4304 13.1276 11.8542 13.8182 12.4769 14.3726C13.2813 15.0892 13.9335 15.318 14.167 15.4154C14.3407 15.4875 14.5483 15.4707 14.6751 15.3351C14.8359 15.1614 15.0355 14.8731 15.2387 14.5891C15.3822 14.3858 15.5645 14.3604 15.7555 14.4325C15.8845 14.4772 17.5241 15.2386 17.5933 15.3605C17.6445 15.4491 17.6445 15.8686 17.4708 16.3602ZM13.2769 6.18286H13.2733C9.29998 6.18286 6.06827 9.41555 6.06827 13.3901C6.06827 14.9661 6.57638 16.4282 7.44053 17.6141L6.54251 20.2922L9.31224 19.4071C10.4517 20.1612 11.8117 20.5973 13.2769 20.5973C17.2503 20.5973 20.4827 17.3646 20.4827 13.3901C20.4827 9.41555 17.2503 6.18286 13.2769 6.18286Z" fill="#FFF6F2"/>
</g>
<defs>
<clipPath id="clip0_39_3420">
<rect width="14.4144" height="14.4144" fill="white" transform="translate(6.06586 6.18286)"/>
</clipPath>
</defs>
</svg>
