<svg width="27" height="27" viewBox="0 0 27 27" fill="none" xmlns="http://www.w3.org/2000/svg">
<rect x="0.376114" y="0.44458" width="26.03" height="26.03" rx="13.015" fill="#061A31"/>
<path fill-rule="evenodd" clip-rule="evenodd" d="M11.924 15.3983V11.3145C13.3738 11.9967 14.4966 12.6557 15.8246 13.3662C14.7293 13.9736 13.3738 14.6552 11.924 15.3983ZM20.0036 9.2834C19.7535 8.95392 19.3272 8.69744 18.8735 8.61253C17.5397 8.35925 9.21874 8.35853 7.88568 8.61253C7.52179 8.68075 7.19775 8.84564 6.9194 9.10183C5.74654 10.1904 6.11406 16.0282 6.39676 16.9738C6.51564 17.3832 6.66932 17.6784 6.86287 17.8721C7.11223 18.1283 7.45364 18.3047 7.8458 18.3838C8.944 18.611 14.6017 18.738 18.8503 18.4179C19.2417 18.3497 19.5882 18.1676 19.8615 17.9006C20.9459 16.8163 20.872 10.6507 20.0036 9.2834Z" fill="#FFF6F2"/>
</svg>
